<svg width="20" height="25" viewBox="0 0 20 25" fill="none" xmlns="http://www.w3.org/2000/svg">
<path d="M16.7458 13.3307C16.7696 11.4816 17.7627 9.73192 19.338 8.76341C18.3442 7.34406 16.6796 6.44415 14.9477 6.38997C13.1006 6.19608 11.3098 7.49528 10.3685 7.49528C9.40905 7.49528 7.9598 6.40922 6.39919 6.44133C4.36502 6.50705 2.46865 7.66357 1.47898 9.44198C-0.648418 13.1252 0.93843 18.5384 2.9763 21.5157C3.99589 22.9736 5.1875 24.6021 6.7467 24.5443C8.27246 24.481 8.84231 23.5714 10.684 23.5714C12.5087 23.5714 13.0433 24.5443 14.6341 24.5076C16.2714 24.481 17.3029 23.0432 18.2867 21.5715C19.0193 20.5327 19.583 19.3846 19.957 18.1698C18.0329 17.356 16.748 15.4197 16.7458 13.3307Z" fill="white"/>
<path d="M13.741 4.43197C14.6336 3.36034 15.0734 1.98294 14.9669 0.592285C13.6031 0.735528 12.3433 1.38734 11.4386 2.41786C10.5539 3.42472 10.0935 4.77788 10.1805 6.11539C11.5448 6.12943 12.886 5.49529 13.741 4.43197Z" fill="white"/>
</svg>






