<svg width="25" height="24" viewBox="0 0 25 24" fill="none" xmlns="http://www.w3.org/2000/svg">
<path d="M22.9168 10.041H2.0835M11.4585 14.041H6.25016M2.0835 8.24102L2.0835 15.841C2.0835 16.9611 2.0835 17.5212 2.31057 17.949C2.5103 18.3253 2.82901 18.6313 3.22102 18.823C3.66667 19.041 4.25005 19.041 5.41683 19.041L19.5835 19.041C20.7503 19.041 21.3337 19.041 21.7793 18.823C22.1713 18.6313 22.49 18.3253 22.6898 17.949C22.9168 17.5212 22.9168 16.9611 22.9168 15.841V8.24102C22.9168 7.12091 22.9168 6.56086 22.6898 6.13304C22.49 5.75671 22.1713 5.45075 21.7793 5.259C21.3337 5.04102 20.7503 5.04102 19.5835 5.04102L5.41683 5.04102C4.25005 5.04102 3.66667 5.04102 3.22102 5.259C2.82901 5.45075 2.5103 5.75671 2.31057 6.13303C2.0835 6.56086 2.0835 7.12091 2.0835 8.24102Z" stroke="black" stroke-width="1.8" stroke-linecap="round" stroke-linejoin="round"/>
</svg>
