<svg width="22" height="22" viewBox="0 0 22 22" fill="none" xmlns="http://www.w3.org/2000/svg">
<g clip-path="url(#clip0_19393_20672)">
<path d="M10.4844 3.12812C10.4844 3.12812 9.59062 3.50625 8.59375 2.54375C8.00937 1.99375 7.0125 1.5125 6.6 1.375H6.22188C6.22188 1.375 4.91563 1.375 3.54063 2.54375C2.71563 3.23125 1.95938 3.3 1.82188 3.12812H1.44375C0.9625 4.19375 0 4.05625 0 4.05625V14.5062H11.7563L10.8625 3.12812H10.4844Z" fill="#3E4347"/>
<path d="M10.8625 3.12813C10.8625 3.12813 9.96874 3.50625 8.97186 2.54375C7.76874 1.375 6.59999 1.375 6.59999 1.375C6.59999 1.375 5.29374 1.375 3.91874 2.54375C2.78436 3.50625 1.82186 3.12813 1.82186 3.12813C1.34061 4.19375 0.378113 4.09063 0.378113 4.09063V14.5406H12.1344V4.05625C12.1344 4.05625 11.275 4.19375 10.8625 3.12813Z" fill="#62696D"/>
<path d="M0.378113 12.2031L7.73436 16.1562V19.25L0.378113 14.5063V12.2031Z" fill="#3E4347"/>
<path d="M7.73438 19.25L22 16.8438V14.0938L7.73438 16.1562V19.25ZM7.39062 19.0438L7.52812 20.4875L7.73438 20.625V19.25L7.39062 19.0438Z" fill="#62696D"/>
<path d="M7.73439 20.6251L8.21564 20.4876L8.45626 19.147L7.73439 19.2501V20.6251ZM21.8625 18.2188V16.8782L20.9344 17.0501L21.2438 18.322L21.8625 18.2188ZM0.137512 14.5063V15.6063H0.653137L0.996887 14.5063H0.137512Z" fill="#3E4347"/>
<path d="M0.378113 12.2031L7.73436 16.1562L22 14.0938L12.0312 10.6562L0.378113 12.2031Z" fill="#94989B"/>
<path d="M0.790588 10.2095L7.97496 13.0626V15.6751L0.790588 12.1345V10.2095Z" fill="#DAE3EA"/>
<path d="M7.97504 15.6751L21.2782 13.922V11.5845L7.97504 13.0626V15.6751Z" fill="#FFDD7D"/>
<path d="M0.790588 10.2094L7.97496 13.0625L21.2781 11.5844L12.1343 9.28125L0.790588 10.2094Z" fill="white"/>
<path d="M1.40936 8.80013C1.40936 8.80013 1.82186 9.90013 3.12811 10.4158C3.12811 10.4158 5.08749 9.83138 7.69999 9.86575C7.69999 9.86575 6.66874 8.93763 6.39374 8.147C6.39374 8.18138 4.12499 7.35638 1.40936 8.80013ZM7.35624 8.31888C7.35624 8.31888 7.63124 9.41888 8.52499 9.9345C8.52499 9.9345 9.86561 9.35013 11.6187 9.3845C11.6187 9.3845 10.9312 8.45638 10.725 7.66575C10.7594 7.70013 9.21249 6.87513 7.35624 8.31888Z" fill="#B2C1C0"/>
<path d="M2.57812 7.97471C2.57812 7.97471 3.47188 9.17784 3.88438 10.7935C3.88438 10.7935 5.84375 10.0028 8.45625 10.0372C8.45625 10.0372 7.425 8.73096 7.15 7.66534C7.15 7.66534 5.225 7.28721 2.57812 7.97471ZM7.76875 7.63096C7.76875 7.63096 8.55937 8.73096 8.9375 10.1747C8.9375 10.1747 10.6906 9.45284 13.0281 9.48721C13.0281 9.48721 12.1 8.31846 11.8594 7.35596C11.8594 7.35596 10.1406 7.01221 7.76875 7.63096Z" fill="#DAE3EA"/>
<path d="M4.05626 13.7498C4.05626 13.7498 3.85001 12.3061 3.95313 11.8936C4.02188 11.5842 4.36563 11.1373 4.53751 10.9654C5.01876 10.5873 6.70313 10.4498 6.70313 10.4498C6.70313 10.4498 12.7875 9.59044 14.7813 9.65919C15.0906 9.65919 15.9156 10.2092 15.9156 10.2092L6.42813 11.4123L5.39688 13.2342L5.29376 14.4029L4.05626 13.7498Z" fill="#A53838"/>
<path d="M5.98125 12.272L5.43125 13.2345L5.32812 14.3688L7.975 15.6751V13.0626L5.98125 12.272Z" fill="#A53838"/>
<path d="M7.97504 13.0626V15.6751L21.2782 13.922V11.5845L7.97504 13.0626Z" fill="#ED4C5C"/>
<path d="M5.98126 12.272L7.97501 13.0626L21.2781 11.5845L15.8469 10.2095L6.46251 11.3782L5.98126 12.272Z" fill="#C94747"/>
<path d="M18.7 10.9312C18.7 10.9312 18.4594 10.5187 18.3563 10.4156C18.2188 10.3125 17.8063 10.2781 17.8063 10.2781C17.8063 10.2781 17.6688 9.96875 17.6 9.93437C17.4281 9.86562 16.9469 10.175 16.9469 10.175C16.9469 10.175 16.6719 9.79688 16.5688 9.79688C14.0594 9.79688 8.80002 10.4156 6.3594 11.1375C6.0844 11.2063 5.6719 11.8594 5.5344 12.1688C5.19065 12.8563 4.74377 14.4375 4.64065 15.2969C4.53752 16.0875 5.01877 18.3563 5.01877 18.3563C5.01877 18.3563 5.43127 16.8094 5.8094 16.3625C5.98127 16.1562 6.15315 17.2906 6.15315 17.2906C6.15315 17.2906 6.46252 15.8469 6.56565 15.7094C6.70315 15.5375 6.9094 16.5688 6.9094 16.5688C6.9094 16.5688 7.11565 14.3 7.28752 13.75C7.39065 13.3719 7.76877 12.7188 8.0094 12.6156C10.4156 11.55 15.4688 10.6906 17.9438 10.7594C18.0813 10.7937 18.7 10.9312 18.7 10.9312Z" fill="#ED4C5C"/>
</g>
<defs>
<clipPath id="clip0_19393_20672">
<rect width="22" height="22" fill="white"/>
</clipPath>
</defs>
</svg>
