<svg width="148" height="30" viewBox="0 0 148 30" fill="none" xmlns="http://www.w3.org/2000/svg">
<rect x="0.636364" y="0.636364" width="42.7273" height="28.7273" rx="5.36364" fill="white"/>
<rect x="0.636364" y="0.636364" width="42.7273" height="28.7273" rx="5.36364" stroke="#F2F4F7" stroke-width="1.27273"/>
<path fill-rule="evenodd" clip-rule="evenodd" d="M13.912 19.8229H11.2464L9.24761 12.2406C9.15274 11.8918 8.9513 11.5835 8.65498 11.4381C7.91549 11.0729 7.10062 10.7823 6.21167 10.6357V10.3438H10.5057C11.0983 10.3438 11.5428 10.7823 11.6168 11.2915L12.6539 16.7609L15.3182 10.3438H17.9097L13.912 19.8229ZM19.3913 19.8229H16.8739L18.9468 10.3438H21.4642L19.3913 19.8229ZM24.7209 12.9696C24.795 12.4591 25.2395 12.1672 25.758 12.1672C26.5729 12.0939 27.4605 12.2405 28.2013 12.6044L28.6458 10.5635C27.905 10.2716 27.0901 10.125 26.3506 10.125C23.9073 10.125 22.1294 11.438 22.1294 13.2603C22.1294 14.6466 23.3888 15.3745 24.2777 15.813C25.2395 16.2503 25.6099 16.5422 25.5358 16.9794C25.5358 17.6353 24.795 17.9272 24.0555 17.9272C23.1665 17.9272 22.2776 17.7086 21.464 17.3434L21.0196 19.3856C21.9085 19.7495 22.8702 19.8961 23.7592 19.8961C26.4988 19.9681 28.2013 18.6564 28.2013 16.6875C28.2013 14.2081 24.7209 14.0628 24.7209 12.9696ZM37.0117 19.8229L35.0128 10.3438H32.8658C32.4214 10.3438 31.9769 10.6357 31.8287 11.0729L28.1274 19.8229H30.7188L31.2361 18.4379H34.4202L34.7165 19.8229H37.0117ZM33.2361 12.8967L33.9756 16.4692H31.9027L33.2361 12.8967Z" fill="#172B85"/>
<rect x="52.6364" y="0.636364" width="42.7273" height="28.7273" rx="5.36364" fill="white"/>
<rect x="52.6364" y="0.636364" width="42.7273" height="28.7273" rx="5.36364" stroke="#F2F4F7" stroke-width="1.27273"/>
<path d="M65.612 6.25H72.5461C73.514 6.25 74.1161 7.03447 73.8903 8.00011L70.6619 21.7818C70.4341 22.7441 69.465 23.5292 68.4964 23.5292H61.5629C60.5963 23.5292 59.993 22.7441 60.2188 21.7818L63.4484 8.00011C63.6742 7.03447 64.6429 6.25 65.612 6.25Z" fill="#E21836"/>
<path d="M71.9687 6.25H79.9428C80.9106 6.25 80.4742 7.03447 80.2465 8.00011L77.0187 21.7818C76.7922 22.7441 76.8628 23.5292 75.893 23.5292H67.919C66.9492 23.5292 66.349 22.7441 66.5768 21.7818L69.8045 8.00011C70.0337 7.03447 71.0003 6.25 71.9687 6.25Z" fill="#00447C"/>
<path d="M79.6268 6.25H86.561C87.5303 6.25 88.1323 7.03447 87.9046 8.00011L84.6768 21.7818C84.449 22.7441 83.4792 23.5292 82.51 23.5292H75.5791C74.6093 23.5292 74.0078 22.7441 74.235 21.7818L77.4633 8.00011C77.6891 7.03447 78.657 6.25 79.6268 6.25Z" fill="#007B84"/>
<path d="M67.4224 10.6669C66.7094 10.6741 66.4988 10.6669 66.4315 10.6511C66.4056 10.7733 65.9245 12.9803 65.9231 12.9822C65.8195 13.4287 65.7441 13.747 65.4881 13.9525C65.3427 14.072 65.173 14.1296 64.9763 14.1296C64.6601 14.1296 64.4758 13.9735 64.4449 13.6774L64.439 13.5757C64.439 13.5757 64.5353 12.9776 64.5353 12.9743C64.5353 12.9743 65.0403 10.963 65.1308 10.6972C65.1355 10.682 65.1369 10.6741 65.138 10.6669C64.1551 10.6755 63.9808 10.6669 63.9688 10.6511C63.9622 10.6728 63.9379 10.7975 63.9379 10.7975L63.4222 13.0644L63.3779 13.2566L63.2922 13.8855C63.2922 14.072 63.3291 14.2243 63.4024 14.353C63.6374 14.7612 64.3075 14.8224 64.6866 14.8224C65.175 14.8224 65.6332 14.7192 65.9429 14.5308C66.4803 14.215 66.621 13.7214 66.7464 13.2828L66.8045 13.0578C66.8045 13.0578 67.3247 10.9689 67.4131 10.6972C67.4165 10.682 67.4179 10.6741 67.4224 10.6669ZM69.1924 12.352C69.067 12.352 68.8379 12.3823 68.632 12.4826C68.5573 12.5208 68.4866 12.5648 68.4121 12.6087L68.4794 12.3672L68.4425 12.3265C68.006 12.4144 67.9083 12.4262 67.505 12.4826L67.4712 12.505C67.4244 12.891 67.3828 13.1812 67.2092 13.94C67.1432 14.2196 67.0745 14.502 67.0058 14.7809L67.0243 14.8164C67.4376 14.7947 67.563 14.7947 67.9221 14.8006L67.9512 14.7692C67.9968 14.5367 68.0028 14.4823 68.1038 14.0116C68.1513 13.7884 68.2504 13.298 68.2992 13.1234C68.389 13.0821 68.4775 13.0414 68.562 13.0414C68.7633 13.0414 68.7388 13.216 68.731 13.2856C68.7224 13.4024 68.6491 13.7839 68.5739 14.1114L68.5237 14.3228C68.4887 14.4789 68.4503 14.6307 68.4153 14.7855L68.4305 14.8164C68.8379 14.7947 68.9621 14.7947 69.3099 14.8006L69.3508 14.7692C69.4137 14.4062 69.4321 14.309 69.5437 13.7805L69.5998 13.5377C69.7088 13.0624 69.7635 12.8214 69.6811 12.6251C69.5939 12.4052 69.3846 12.352 69.1924 12.352ZM71.1698 12.8496C70.9533 12.891 70.8152 12.9185 70.6779 12.9364C70.5419 12.958 70.4092 12.9777 70.2 13.0066L70.1834 13.0216L70.1682 13.0335C70.1464 13.1884 70.1312 13.3224 70.1023 13.4798C70.0778 13.6427 70.0401 13.8277 69.9787 14.0936C69.9312 14.2971 69.9067 14.368 69.8797 14.4396C69.8533 14.5112 69.8243 14.5808 69.7708 14.7809L69.7834 14.7994L69.7938 14.8164C69.9894 14.8071 70.1173 14.8006 70.2488 14.7994C70.3801 14.7947 70.5162 14.7994 70.7268 14.8006L70.7452 14.7856L70.765 14.7691C70.7954 14.5887 70.8 14.5401 70.8186 14.452C70.837 14.3576 70.8688 14.2268 70.9467 13.8776C70.9835 13.7136 71.0246 13.5501 71.0628 13.3827C71.1025 13.216 71.1441 13.0518 71.1836 12.8878L71.1777 12.868L71.1698 12.8496ZM71.1744 12.1787C70.9777 12.0633 70.6324 12.0999 70.4 12.2594C70.1682 12.4157 70.1419 12.6375 70.3379 12.7545C70.5313 12.8667 70.8779 12.8333 71.1083 12.6725C71.3395 12.5128 71.3684 12.293 71.1744 12.1787ZM72.3642 14.8525C72.7622 14.8525 73.1702 14.7435 73.4773 14.4198C73.7136 14.1573 73.8219 13.7668 73.8594 13.6059C73.9816 13.0729 73.8865 12.824 73.767 12.6724C73.5854 12.4413 73.2647 12.3672 72.9319 12.3672C72.7318 12.3672 72.2551 12.3869 71.8828 12.7282C71.6154 12.9744 71.4919 13.3085 71.4173 13.6288C71.3421 13.9551 71.2556 14.5427 71.799 14.7613C71.9666 14.8329 72.2083 14.8525 72.3642 14.8525ZM72.3331 13.6532C72.4248 13.2495 72.5332 12.9107 72.8097 12.9107C73.0264 12.9107 73.0421 13.1628 72.9457 13.5678C72.9285 13.6577 72.8494 13.9919 72.7424 14.1343C72.6677 14.2393 72.5793 14.303 72.4816 14.303C72.4525 14.303 72.2796 14.303 72.2769 14.0477C72.2756 13.9217 72.3015 13.793 72.3331 13.6532ZM74.8544 14.8006L74.8855 14.7692C74.9296 14.5368 74.9369 14.4822 75.0346 14.0116C75.0834 13.7885 75.1845 13.2981 75.232 13.1235C75.3219 13.082 75.4089 13.0413 75.4961 13.0413C75.6961 13.0413 75.6718 13.2159 75.6638 13.2855C75.6565 13.4024 75.5832 13.7837 75.5066 14.1113L75.4591 14.3227C75.4228 14.479 75.3832 14.6306 75.3483 14.7855L75.3635 14.8164C75.7721 14.7948 75.8916 14.7948 76.2415 14.8006L76.2837 14.7692C76.3451 14.406 76.3617 14.3089 76.4766 13.7806L76.5314 13.5375C76.6409 13.0623 76.6963 12.8215 76.6152 12.6252C76.5254 12.4052 76.3148 12.3521 76.1254 12.3521C75.9998 12.3521 75.7694 12.3822 75.5648 12.4827C75.4916 12.5208 75.4182 12.5647 75.3462 12.6087L75.4089 12.3672L75.3753 12.3264C74.9389 12.4144 74.8392 12.4262 74.4364 12.4827L74.4055 12.505C74.3567 12.891 74.3169 13.1811 74.1434 13.94C74.0773 14.2197 74.0087 14.502 73.94 14.781L73.9585 14.8164C74.3724 14.7948 74.4959 14.7948 74.8544 14.8006ZM77.857 14.8163C77.8827 14.6917 78.0353 13.9526 78.0367 13.9526C78.0367 13.9526 78.1666 13.4102 78.1746 13.3906C78.1746 13.3906 78.2155 13.3341 78.2564 13.3118H78.3166C78.8843 13.3118 79.5253 13.3118 80.0278 12.9442C80.3697 12.6922 80.6035 12.3199 80.7078 11.8675C80.7348 11.7566 80.7547 11.6247 80.7547 11.4928C80.7547 11.3195 80.7198 11.1481 80.6187 11.0141C80.3625 10.6577 79.8522 10.6511 79.2632 10.6485C79.2613 10.6485 78.9728 10.6511 78.9728 10.6511C78.2189 10.6604 77.9165 10.6577 77.7923 10.6426C77.7818 10.6972 77.762 10.7943 77.762 10.7943C77.762 10.7943 77.4919 12.0389 77.4919 12.0409C77.4919 12.0409 76.8456 14.6871 76.8152 14.8118C77.4735 14.8039 77.7434 14.8039 77.857 14.8163ZM78.3575 12.6054C78.3575 12.6054 78.6446 11.3634 78.6433 11.3681L78.6526 11.3044L78.6566 11.2558L78.7714 11.2676C78.7714 11.2676 79.3636 11.3182 79.3775 11.3195C79.6112 11.4094 79.7075 11.6412 79.6403 11.9436C79.5789 12.2201 79.3986 12.4525 79.1669 12.5648C78.9761 12.6599 78.7423 12.6678 78.5015 12.6678H78.3456L78.3575 12.6054ZM80.1454 13.6762C80.0695 13.9978 79.9823 14.5853 80.5229 14.7947C80.6953 14.8677 80.8498 14.8893 81.0068 14.8814C81.1726 14.8725 81.3263 14.7898 81.4686 14.6709C81.4557 14.7198 81.4429 14.7687 81.43 14.8177L81.4545 14.8492C81.8434 14.8329 81.9641 14.8329 82.3855 14.8361L82.4237 14.8072C82.4852 14.4475 82.5431 14.0983 82.703 13.4103C82.781 13.0807 82.8587 12.7544 82.9386 12.4262L82.9261 12.39C82.4911 12.4702 82.3748 12.4873 81.9563 12.5463L81.9246 12.572C81.9203 12.6055 81.9159 12.6376 81.9119 12.6697C81.8468 12.5652 81.7525 12.4759 81.607 12.4203C81.4209 12.3475 80.9838 12.4413 80.6081 12.7814C80.3441 13.0243 80.2174 13.357 80.1454 13.6762ZM81.059 13.6958C81.1522 13.2994 81.2592 12.9639 81.5363 12.9639C81.7116 12.9639 81.8039 13.1248 81.7851 13.399C81.7703 13.4674 81.7542 13.5395 81.7351 13.621C81.7074 13.7388 81.6773 13.8556 81.6481 13.9726C81.6183 14.0526 81.5837 14.1281 81.5456 14.1783C81.4743 14.2788 81.3046 14.3411 81.2069 14.3411C81.1792 14.3411 81.0082 14.3411 81.0023 14.0904C81.0009 13.9655 81.0268 13.837 81.059 13.6958ZM85.8304 12.3868L85.7967 12.3487C85.3663 12.4354 85.2884 12.4492 84.8929 12.5023L84.8638 12.5312C84.8624 12.5359 84.8613 12.5431 84.8592 12.5497L84.8579 12.5431C84.5635 13.2185 84.5721 13.0728 84.3324 13.6045C84.3311 13.5804 84.3311 13.5652 84.3297 13.5395L84.2697 12.3868L84.232 12.3487C83.7811 12.4354 83.7704 12.4492 83.354 12.5023L83.3215 12.5312C83.317 12.545 83.317 12.5601 83.3143 12.5766L83.317 12.5824C83.369 12.847 83.3565 12.788 83.4088 13.2054C83.4331 13.4103 83.4655 13.6163 83.4899 13.8186C83.5309 14.1573 83.5539 14.324 83.6041 14.8407C83.3229 15.3022 83.2563 15.4768 82.9855 15.8818L82.9874 15.8859L82.7968 16.1857C82.775 16.2173 82.7552 16.239 82.7275 16.2482C82.697 16.2632 82.6575 16.2658 82.6026 16.2658H82.4969L82.3399 16.7851L82.8786 16.7944C83.1948 16.793 83.3935 16.646 83.5005 16.4483L83.8392 15.8713H83.8338L83.8695 15.8306C84.0973 15.3429 85.8304 12.3868 85.8304 12.3868ZM80.1453 19.2069H79.9168L80.7626 16.4254H81.0431L81.1322 16.1389L81.1408 16.4575C81.1303 16.6545 81.2862 16.8291 81.6955 16.8002H82.1689L82.3319 16.2646H82.1537C82.0513 16.2646 82.0038 16.2389 82.0097 16.1837L82.0011 15.8596H81.1244V15.8613C80.841 15.8671 79.9946 15.8883 79.8232 15.9337C79.6158 15.9868 79.3973 16.1431 79.3973 16.1431L79.4831 15.8562H78.6631L78.4922 16.4254L77.6351 19.2494H77.4688L77.3057 19.7811H78.9391L78.8843 19.9584H79.6892L79.7426 19.7811H79.9684L80.1453 19.2069ZM79.4752 16.9906C79.3439 17.0267 79.0995 17.1363 79.0995 17.1363L79.3168 16.4254H79.9684L79.8112 16.9433C79.8112 16.9433 79.6099 16.9551 79.4752 16.9906ZM79.4877 18.0061C79.4877 18.0061 79.283 18.0317 79.1483 18.0619C79.0156 18.1019 78.7669 18.2279 78.7669 18.2279L78.9913 17.4882H79.6462L79.4877 18.0061ZM79.1226 19.2134H78.4691L78.6585 18.5891H79.3101L79.1226 19.2134ZM80.6966 17.4882H81.6387L81.5033 17.9241H80.5487L80.4054 18.4007H81.2406L80.6082 19.2862C80.5639 19.3512 80.5242 19.3742 80.4801 19.3926C80.4358 19.4149 80.3777 19.4411 80.3104 19.4411H80.0787L79.9195 19.9631H80.5255C80.8406 19.9631 81.0267 19.8206 81.1641 19.6335L81.5978 19.0433L81.6909 19.6426C81.7107 19.7549 81.7918 19.8206 81.8467 19.8461C81.9074 19.8764 81.9701 19.9283 82.0587 19.936C82.1537 19.9401 82.2223 19.9433 82.2679 19.9433H82.5657L82.7445 19.3591H82.6271C82.5596 19.3591 82.4435 19.3479 82.4237 19.3268C82.404 19.3013 82.404 19.262 82.3933 19.2021L82.2988 18.6015H81.912L82.0817 18.4007H83.0344L83.1809 17.9241H82.2988L82.4362 17.4882H83.3156L83.4787 16.9506H80.857L80.6966 17.4882ZM72.7397 19.3348L72.9596 18.6075H73.8633L74.0285 18.0665H73.1239L73.262 17.6188H74.1459L74.3097 17.095H72.098L71.9376 17.6188H72.4401L72.306 18.0665H71.8022L71.6352 18.6167H72.1375L71.8445 19.579C71.8049 19.7064 71.8631 19.7549 71.8999 19.8141C71.9376 19.8717 71.9758 19.9099 72.0617 19.9316C72.1502 19.9512 72.2109 19.963 72.2934 19.963H73.3122L73.4937 19.3637L73.0421 19.4254C72.9549 19.4254 72.7134 19.415 72.7397 19.3348ZM72.8434 15.8529L72.6144 16.2645C72.5654 16.3544 72.5213 16.4102 72.4815 16.4359C72.4466 16.4576 72.3773 16.4667 72.2769 16.4667H72.1574L71.9977 16.9932H72.3945C72.5853 16.9932 72.7318 16.9236 72.8018 16.8888C72.877 16.8488 72.8968 16.8717 72.9549 16.8159L73.089 16.7004H74.3282L74.4926 16.1522H73.5855L73.7439 15.8529H72.8434ZM74.6729 19.3454C74.6517 19.3151 74.6669 19.2618 74.6992 19.1509L75.0379 18.0362H76.2428C76.4184 18.0337 76.5452 18.0317 76.6277 18.0258C76.7162 18.0166 76.8126 17.9851 76.9175 17.9287C77.0259 17.8695 77.0813 17.8072 77.1281 17.7356C77.1803 17.6642 77.2642 17.5079 77.3362 17.2669L77.7619 15.8562L76.5116 15.8635C76.5116 15.8635 76.1265 15.9199 75.957 15.9823C75.786 16.0519 75.5416 16.2461 75.5416 16.2461L75.6545 15.8594H74.8821L73.8008 19.4254C73.7624 19.5638 73.7367 19.6643 73.7308 19.7247C73.7288 19.7897 73.8133 19.8541 73.868 19.9026C73.9328 19.9512 74.0284 19.9433 74.1202 19.9512C74.2167 19.9584 74.3539 19.963 74.5434 19.963H75.137L75.3192 19.3512L74.7878 19.4012C74.731 19.4012 74.6899 19.3709 74.6729 19.3454ZM75.2565 17.2834H76.522L76.4416 17.5341C76.4303 17.54 76.4032 17.5217 76.2744 17.5368H75.1786L75.2565 17.2834ZM75.51 16.4424H76.7862L76.6944 16.7444C76.6944 16.7444 76.0929 16.7385 75.9966 16.7562C75.5727 16.8291 75.3251 17.0543 75.3251 17.0543L75.51 16.4424ZM76.4699 18.3737C76.4594 18.4112 76.4429 18.4341 76.4197 18.4512C76.394 18.4677 76.3525 18.4736 76.2904 18.4736H76.1101L76.1207 18.1682H75.3707L75.3402 19.661C75.339 19.7687 75.3495 19.8311 75.4288 19.881C75.5081 19.9433 75.7523 19.9512 76.081 19.9512H76.551L76.7207 19.3925L76.3116 19.4148L76.1755 19.4227C76.1569 19.4148 76.1392 19.4076 76.1194 19.3879C76.1021 19.371 76.0731 19.3814 76.0778 19.2737L76.081 18.891L76.5101 18.8734C76.7419 18.8734 76.8409 18.7984 76.9254 18.727C77.006 18.6586 77.0324 18.5799 77.0628 18.4736L77.1348 18.1348H76.5451L76.4699 18.3737Z" fill="#FEFEFE"/>
<rect x="104.636" y="0.636364" width="42.7273" height="28.7273" rx="5.36364" fill="white"/>
<rect x="104.636" y="0.636364" width="42.7273" height="28.7273" rx="5.36364" stroke="#F2F4F7" stroke-width="1.27273"/>
<path d="M131.924 6.28516C136.77 6.28538 140.698 10.0351 140.698 14.6602C140.698 19.2854 136.77 23.0349 131.924 23.0352C129.751 23.0352 127.764 22.2797 126.231 21.0312C124.699 22.2796 122.713 23.0351 120.54 23.0352C115.694 23.0352 111.765 19.2855 111.765 14.6602C111.765 10.035 115.694 6.28516 120.54 6.28516C122.712 6.28523 124.699 7.04096 126.231 8.28906C127.764 7.04083 129.751 6.28516 131.924 6.28516Z" fill="#ED0006"/>
<path d="M131.924 6.28516C136.77 6.28534 140.698 10.0351 140.698 14.6602C140.698 19.2854 136.77 23.035 131.924 23.0352C129.751 23.0352 127.764 22.2797 126.232 21.0312C128.117 19.4951 129.315 17.2118 129.315 14.6602C129.315 12.1085 128.118 9.82509 126.232 8.28906C127.764 7.04081 129.751 6.28516 131.924 6.28516Z" fill="#F9A000"/>
<path d="M126.232 8.29102C128.118 9.82705 129.315 12.1105 129.315 14.6621C129.315 17.2137 128.117 19.4971 126.232 21.0332C124.346 19.4971 123.149 17.2137 123.149 14.6621C123.149 12.1105 124.346 9.82705 126.232 8.29102Z" fill="#FF5E00"/>
</svg>
