<svg width="48" height="48" viewBox="0 0 48 48" fill="none" xmlns="http://www.w3.org/2000/svg">
  <rect width="48" height="48" rx="4" fill="#EAECF0" />
  <path
    d="M28 20.0003V16.501C28 15.6692 28 15.2534 27.8248 14.9978C27.6717 14.7745 27.4346 14.6228 27.1678 14.5774C26.8623 14.5254 26.4847 14.6997 25.7295 15.0482L16.859 19.1423C16.1855 19.4532 15.8488 19.6086 15.6021 19.8496C15.3841 20.0627 15.2176 20.3229 15.1155 20.6101C15 20.9351 15 21.306 15 22.0478V27.0003M28.5 26.5003H28.51M15 23.2003L15 29.8003C15 30.9204 15 31.4805 15.218 31.9083C15.4097 32.2846 15.7157 32.5906 16.092 32.7823C16.5198 33.0003 17.0799 33.0003 18.2 33.0003H29.8C30.9201 33.0003 31.4802 33.0003 31.908 32.7823C32.2843 32.5906 32.5903 32.2846 32.782 31.9083C33 31.4805 33 30.9204 33 29.8003V23.2003C33 22.0802 33 21.5202 32.782 21.0923C32.5903 20.716 32.2843 20.4101 31.908 20.2183C31.4802 20.0003 30.9201 20.0003 29.8 20.0003L18.2 20.0003C17.0799 20.0003 16.5198 20.0003 16.092 20.2183C15.7157 20.41 15.4097 20.716 15.218 21.0923C15 21.5202 15 22.0802 15 23.2003ZM29 26.5003C29 26.7765 28.7761 27.0003 28.5 27.0003C28.2239 27.0003 28 26.7765 28 26.5003C28 26.2242 28.2239 26.0003 28.5 26.0003C28.7761 26.0003 29 26.2242 29 26.5003Z"
    stroke="#475467" stroke-width="2" stroke-linecap="round" stroke-linejoin="round" />
</svg>