<svg id="Group_2183" data-name="Group 2183" xmlns="http://www.w3.org/2000/svg" width="160" height="41.5" viewBox="0 0 233.44 41.5"><path id="Path_8" data-name="Path 8" d="M552.708,5.819h-6.386a11.389,11.389,0,0,1-5.213,3.894V5.819h-5.387V24.207h5.387V14.645l.912-.389a20.594,20.594,0,0,1,5.6,9.952h5.561a25.169,25.169,0,0,0-6.6-12.245A18.014,18.014,0,0,0,552.708,5.819ZM536.593,35.586a9.689,9.689,0,0,1-1.216,1.341,1.743,1.743,0,0,1-.87.519c-.26,0-.39-.173-.39-.476a3.154,3.154,0,0,1,.086-.519l-1.216.606a1.438,1.438,0,0,0-.131.649,1.05,1.05,0,0,0,1.173,1.038,1.881,1.881,0,0,0,1.173-.433,5.024,5.024,0,0,0,1.13-1.038c.3-.389.739-.909,1.172-1.471l.174.087c-.043.043-.087.173-.174.3a3.329,3.329,0,0,0-.652,1.688.881.881,0,0,0,.26.649,1.044,1.044,0,0,0,.609.216,5.671,5.671,0,0,0,2.041-1l.347-1.082a3.771,3.771,0,0,1-.739.389c-.26.13-.477.216-.564.26h-.173a.33.33,0,0,1-.262-.347,2.592,2.592,0,0,1,.218-.865c.174-.476.348-.865.521-1.254l1-2.034-1.085-.562c-.3.519-.695,1.038-1.13,1.645A17.387,17.387,0,0,1,536.593,35.586Zm-5.083,3.591c.609-1.341,1.565-3.2,2.91-5.581l-1.085-.563a18.3,18.3,0,0,1-1.564,2.25,8.284,8.284,0,0,1-1.391,1.385,2.881,2.881,0,0,1-.826.519h-.13c-.131,0-.174-.086-.174-.216a6.524,6.524,0,0,1,.653-1.428l1.476-2.683-1.13-.606c-.565,1-1.129,2.033-1.738,3.159a6.29,6.29,0,0,0-.825,2.38.942.942,0,0,0,.217.736.7.7,0,0,0,.478.216c.7,0,1.694-.692,3.084-2.12l.087.087c-.218.346-.392.649-.565.908a18.654,18.654,0,0,0-2.128,4.456l1.3.26C530.425,41.6,530.859,40.562,531.51,39.177Zm-4.084-14.97h5.387V5.819h-5.387v5.192h-6.254V5.819h-5.387V24.207h5.387V15.121h6.254Zm-12.249,8.22a4,4,0,0,0-1.086.216A5.342,5.342,0,0,0,513,33.25l.478.692c.087-.043.131-.087.217-.13.044,0,.087-.043.131-.087a2.018,2.018,0,0,1,.781-.3c.218,0,.348.13.348.389a5.51,5.51,0,0,1-.825,1.99c-.739,1.255-1.347,1.9-1.868,1.9-.347,0-.477-.26-.477-.692a1.636,1.636,0,0,1,.174-.735L510.7,36.8a2.54,2.54,0,0,0-.086.606,1.424,1.424,0,0,0,.346.952,1.284,1.284,0,0,0,.957.389,2.63,2.63,0,0,0,1.043-.26,6.8,6.8,0,0,0,1.259-.822,15.63,15.63,0,0,0,1.608-1.471c.044-.043.13-.087.173-.173.087-.087.174-.13.218-.173.044-.087.13-.13.217-.216l.043.043-1.433,2.769.868.433a10.4,10.4,0,0,1,.87-1.341,4.329,4.329,0,0,1,.651-.779,7.561,7.561,0,0,1,.608-.519l.087-.087.086-.086.087.043c-.044.043-.044.043-.044.087l-.043.043c0,.043-.044.043-.044.087a2.1,2.1,0,0,0-.434,1.254q0,1.169,1.043,1.169a4.622,4.622,0,0,0,2.389-1l.347-1.082c-.26.173-.652.346-1.172.606a3.234,3.234,0,0,1-.956.346c-.217,0-.3-.216-.3-.649a2.535,2.535,0,0,1,.651-1.428A7.81,7.81,0,0,1,521.91,33.9l-.477-.823a8.377,8.377,0,0,0-1.434.779,18.794,18.794,0,0,0-2.259,1.731,2.5,2.5,0,0,0-.26.216h-.087c.043-.087.173-.389.435-.865l.912-1.644-.7-.433a10.517,10.517,0,0,1-1.434,1.688,13.894,13.894,0,0,1-1.347,1.211h-.086c.086-.13.13-.173.13-.216.044-.043.087-.086.087-.13l.087-.087c0-.043.044-.086.086-.173a2.733,2.733,0,0,0,.653-1.6C516.22,32.774,515.873,32.428,515.178,32.428Zm-6.56-8.22h5.43c-.391-2.034-.825-3.981-1.39-6.014-.044-.173-.13-.476-.217-.865l-.7-2.206c-.348-.909-.652-1.774-.956-2.6-.348-.822-.651-1.557-.956-2.206a37.427,37.427,0,0,0-2.475-4.5h-5.126a23.46,23.46,0,0,0-1.39,2.337l-.434.865-.218.519a16.2,16.2,0,0,0-.652,1.514,48.085,48.085,0,0,0-2.346,6.577c-.347,1.168-.652,2.206-.912,3.158s-.477,2.077-.739,3.418h5.43c.217-1.125.435-2.164.7-3.115h6.385C508.314,21.957,508.444,23.255,508.617,24.207Zm-1.65-6.966H502.71a38.939,38.939,0,0,1,2.129-5.97A25.736,25.736,0,0,1,506.968,17.241Zm-12.814-2.552c-1.912-2.6-7.125-2.769-10.6-2.293V9.929h9.687V5.819H478.124V24.207h8.732a11.6,11.6,0,0,0,5.777-1.342A5.654,5.654,0,0,0,494.153,14.689Zm-4.344,3.332c-.044,1.557-1.3,2.336-3.605,2.336h-2.65l-.044-4.327C485.247,15.813,489.809,15.381,489.809,18.02ZM478.342,33.682a1.242,1.242,0,0,0-.262-.822.881.881,0,0,0-.825-.346,3.6,3.6,0,0,0-1.521.389,7.752,7.752,0,0,0-1.607,1.125,6.032,6.032,0,0,0-1.26,1.557,3.086,3.086,0,0,0-.477,1.644,1.353,1.353,0,0,0,1.52,1.514,6.487,6.487,0,0,0,.912-.087c.3-.086.652-.173,1.043-.3s.868-.346,1.434-.606l.346-1.082a8.783,8.783,0,0,1-3,.952.537.537,0,0,1-.652-.562,2.938,2.938,0,0,1,.434-1.384,4.35,4.35,0,0,1,1.043-1.428,1.485,1.485,0,0,1,1.043-.606.468.468,0,0,1,.26.043c.044.087.087.13.087.173a1.935,1.935,0,0,1-.217.563l1,.606a3.4,3.4,0,0,0,.522-.649A1.474,1.474,0,0,0,478.342,33.682ZM463.051,9.929H469V5.819H451.713v4.11h5.951V24.207h5.387ZM450.107,35.2a7.363,7.363,0,0,0-1.043.216l1.3-2.51-1.086-.519-3.127,6.057,1.26.433,1.216-2.423a7.933,7.933,0,0,1,2.172-.476q-.521.974-.651,1.3a1.31,1.31,0,0,0-.13.519.806.806,0,0,0,.3.692.919.919,0,0,0,.7.26,7.179,7.179,0,0,0,2.3-1l.3-1.082a3.877,3.877,0,0,0-.739.389,3.142,3.142,0,0,1-1.043.389.23.23,0,0,1-.26-.26,1.786,1.786,0,0,1,.174-.519c.043,0,.043-.087.086-.173s.044-.13.087-.173l1.434-2.942-1.086-.476-1.043,2.207A6.034,6.034,0,0,0,450.107,35.2Zm-5.648-10.99h5.387V5.819h-5.387a23.4,23.4,0,0,0-5.256,7.615h-.086a23.408,23.408,0,0,0-5.257-7.615h-5.386V24.207h5.386V12.785c1.434,1.774,2.91,5.711,3.519,8.351h3.562c.608-2.64,2.085-6.577,3.518-8.351ZM430.3,32.644a3.681,3.681,0,0,0-1.911.736,7.6,7.6,0,0,0-1.868,1.86,3.3,3.3,0,0,0-.782,1.9,1.627,1.627,0,0,0,.391,1.212,1.231,1.231,0,0,0,.868.389,2.765,2.765,0,0,0,1.607-.606,7.08,7.08,0,0,0,1.3-1.125l.174-.173h.087a.726.726,0,0,1-.087.216c-.087.086-.087.216-.131.26a2.1,2.1,0,0,0-.13.3c0,.13-.043.26-.043.389a.748.748,0,0,0,.26.519,1.07,1.07,0,0,0,.652.216,2.144,2.144,0,0,0,.956-.3,5.2,5.2,0,0,0,1.086-.692l.348-1.082a8.364,8.364,0,0,1-.912.476,2.913,2.913,0,0,1-.739.26c-.131,0-.218-.086-.218-.26a2.62,2.62,0,0,1,.391-.952l1.39-2.726-1.13-.606-.173.346A1.715,1.715,0,0,0,430.3,32.644Zm-.956,1.385a2.679,2.679,0,0,1,1.3-.563.908.908,0,0,1,.7.346l-.781,1.514a3.35,3.35,0,0,1-.782.909,7.127,7.127,0,0,1-1.13.865,1.772,1.772,0,0,1-.868.389c-.3,0-.435-.216-.435-.692a2.23,2.23,0,0,1,.608-1.384A6.021,6.021,0,0,1,429.342,34.029Zm-3.258-15.1a11.337,11.337,0,0,0,.7-3.937c0-.389-.044-.822-.087-1.3-.086-.433-.173-.909-.26-1.342a9.862,9.862,0,0,0-.348-1.212c-.173-.389-.3-.735-.521-1.125A8.857,8.857,0,0,0,422.175,6.6a10.858,10.858,0,0,0-2.433-.908,14,14,0,0,0-5.69,0,10.857,10.857,0,0,0-2.433.908,9.266,9.266,0,0,0-3.432,3.418c-.173.389-.3.735-.477,1.125a9.657,9.657,0,0,0-.348,1.212c-.087.433-.173.909-.26,1.342-.044.476-.087.908-.087,1.3a11.335,11.335,0,0,0,.7,3.937,8.55,8.55,0,0,0,2,3.072,8.794,8.794,0,0,0,3.127,1.9,11.914,11.914,0,0,0,8.124,0,8.8,8.8,0,0,0,3.127-1.9A8.551,8.551,0,0,0,426.084,18.928Zm-4.909-3.591-.044.649-.173,1.125a5.342,5.342,0,0,1-1.261,2.25,3.5,3.5,0,0,1-2.692,1.082h-.218a3.5,3.5,0,0,1-2.693-1.082,5.328,5.328,0,0,1-1.259-2.25l-.173-1.125-.044-.649v-.346a8.971,8.971,0,0,1,.391-2.6,4.3,4.3,0,0,1,1.39-2.077,3.949,3.949,0,0,1,2.172-.735,1.648,1.648,0,0,1,.652,0,3.954,3.954,0,0,1,2.173.735,4.315,4.315,0,0,1,1.389,2.077,8.932,8.932,0,0,1,.391,2.6Zm-14.987,15.1c-.564,0-.868-.389-.868-1.082l-1.3.043c0,1.3.564,1.9,1.694,1.9a3.33,3.33,0,0,0,2.563-1.255c.044-.043.131-.173.3-.346l-.608-.519C407.275,30,406.711,30.437,406.189,30.437Zm-6.212-6.23h5.429V5.819a45.46,45.46,0,0,0-8.035.216c-9.253,1.6-9.469,10.254-8.949,18.172h5.43c-.26-4.717-.348-9.952,2-12.418,1.216-1.3,2.519-1.384,4.126-1.384Zm-9.6,4.153a9.65,9.65,0,0,0-2.3,1.774,9.409,9.409,0,0,0-1.737,2.6,7.059,7.059,0,0,0-.652,2.942,3.459,3.459,0,0,0,.348,1.688,2.528,2.528,0,0,0,1,1.125,2.874,2.874,0,0,0,1.39.346,4.617,4.617,0,0,0,1.651-.3,5.907,5.907,0,0,0,1.476-.779l.348-1.082a6.019,6.019,0,0,1-1.39.735,3.712,3.712,0,0,1-1.433.3,1.966,1.966,0,0,1-1.434-.476,2.3,2.3,0,0,1-.477-1.557,6.328,6.328,0,0,1,.564-2.423,8.434,8.434,0,0,1,1.433-2.293,7.152,7.152,0,0,1,1.825-1.644,2.983,2.983,0,0,1,1.694-.649.751.751,0,0,1,.564.216.617.617,0,0,1,.174.433,1.849,1.849,0,0,1-.608,1.081,9.321,9.321,0,0,1-1.261,1.082l1.13.649a5.465,5.465,0,0,0,1.564-1.342,2.2,2.2,0,0,0,.521-1.384,1.634,1.634,0,0,0-.521-1.211,2.363,2.363,0,0,0-1.52-.476A5.069,5.069,0,0,0,390.378,28.361Zm-4.04-9.432a10.429,10.429,0,0,0,.7-3.937c0-.389-.043-.822-.087-1.3a7.379,7.379,0,0,0-.26-1.342,10.026,10.026,0,0,0-.348-1.212c-.131-.389-.305-.735-.478-1.125A9.272,9.272,0,0,0,382.429,6.6a10.517,10.517,0,0,0-2.389-.908,14.918,14.918,0,0,0-2.476-.3h-.782a14.919,14.919,0,0,0-2.477.3,10.49,10.49,0,0,0-2.388.908,9.267,9.267,0,0,0-3.432,3.418c-.173.389-.348.735-.478,1.125a9.887,9.887,0,0,0-.39,1.212c-.087.433-.174.909-.218,1.342a6.941,6.941,0,0,0-.087,1.3,11.362,11.362,0,0,0,.652,3.937,9.186,9.186,0,0,0,2,3.072,8.625,8.625,0,0,0,3.172,1.9,10.928,10.928,0,0,0,4,.692h.086a10.928,10.928,0,0,0,4-.692,8.258,8.258,0,0,0,5.126-4.976Zm-4.866-3.591-.086.649-.174,1.125a4.9,4.9,0,0,1-1.26,2.25,3.406,3.406,0,0,1-2.65,1.082h-.26a3.4,3.4,0,0,1-2.65-1.082,4.9,4.9,0,0,1-1.26-2.25l-.218-1.125-.044-.649v-.346a7.758,7.758,0,0,1,.435-2.6,4.311,4.311,0,0,1,1.39-2.077,3.831,3.831,0,0,1,2.171-.735,1.433,1.433,0,0,1,.608,0,3.835,3.835,0,0,1,2.173.735,4.317,4.317,0,0,1,1.39,2.077,7.755,7.755,0,0,1,.434,2.6ZM359.84,9.929h7.515V5.819H354.411V24.207h5.429ZM393.549,35.24a3.3,3.3,0,0,0-.782,1.9,1.481,1.481,0,0,0,.435,1.212,1.14,1.14,0,0,0,.825.389,2.672,2.672,0,0,0,1.608-.606,5.037,5.037,0,0,0,1.3-1.125c.086-.087.173-.13.217-.173h.044a.728.728,0,0,1-.087.216,1.45,1.45,0,0,1-.131.26,1.088,1.088,0,0,1-.086.3,1.192,1.192,0,0,0-.044.389.685.685,0,0,0,.217.519,1.072,1.072,0,0,0,.652.216,2.291,2.291,0,0,0,1-.3,9.272,9.272,0,0,0,1.086-.692l.348-1.082c-.262.13-.566.3-.956.476a2.343,2.343,0,0,1-.7.26c-.174,0-.218-.086-.218-.26a3.21,3.21,0,0,1,.348-.952l1.39-2.726-1.129-.606-.174.346a1.625,1.625,0,0,0-1.347-.563,3.806,3.806,0,0,0-1.955.736A7.622,7.622,0,0,0,393.549,35.24Zm.825,1.557a2.511,2.511,0,0,1,.608-1.384,7.017,7.017,0,0,1,1.39-1.384,2.684,2.684,0,0,1,1.3-.563,1,1,0,0,1,.739.346l-.826,1.514a3.931,3.931,0,0,1-.738.909,7.124,7.124,0,0,1-1.13.865,1.954,1.954,0,0,1-.868.389C394.548,37.49,394.374,37.274,394.374,36.8Zm6.038.3a1.9,1.9,0,0,0-.217.822.742.742,0,0,0,.217.649.654.654,0,0,0,.477.173c.652,0,1.651-.649,3-1.991a7.148,7.148,0,0,1,.653-.649l.086.043a4.31,4.31,0,0,0-.868,1.688v.3a.475.475,0,0,0,.26.433.56.56,0,0,0,.435.173,3.479,3.479,0,0,0,1.042-.346,6.141,6.141,0,0,0,1.217-.649l.39-1.082c-.3.13-.564.259-.825.389a1.6,1.6,0,0,1-.7.3.23.23,0,0,1-.26-.26.8.8,0,0,1,.087-.3l1.737-3.245-1.085-.519a6.007,6.007,0,0,1-1,1.385,15.516,15.516,0,0,1-1.477,1.471q-.781.713-1.043.908a.812.812,0,0,1-.434.216c-.131,0-.174-.087-.174-.216v-.043a1.169,1.169,0,0,1,.131-.346l1.868-3.5-1.085-.562c-.782,1.428-1.347,2.466-1.694,3.2C400.8,36.235,400.542,36.754,400.412,37.1Zm9.514-4.716-3.085,6.057,1.26.433,1.172-2.423a7.879,7.879,0,0,1,2.216-.476q-.521.974-.652,1.3a1.3,1.3,0,0,0-.131.519.913.913,0,0,0,.26.692,1.068,1.068,0,0,0,.7.26,6.458,6.458,0,0,0,2.3-1l.348-1.082c-.477.216-.7.346-.782.389a2.73,2.73,0,0,1-1,.389.23.23,0,0,1-.26-.26,1.785,1.785,0,0,1,.174-.519l.086-.173c0-.087.044-.13.044-.173l1.477-2.942-1.086-.476-1.043,2.207a6.7,6.7,0,0,0-1.172.086,7.826,7.826,0,0,0-1,.216l1.3-2.51Zm10.685,3.2a3.536,3.536,0,0,0-.478,1.644,1.367,1.367,0,0,0,1.564,1.514,6.5,6.5,0,0,0,.913-.087c.3-.086.652-.173,1.043-.3.347-.13.868-.346,1.433-.606l.348-1.082a9.213,9.213,0,0,1-3.041.952.6.6,0,0,1-.477-.173.774.774,0,0,1-.174-.389,3.551,3.551,0,0,1,.435-1.384,6.068,6.068,0,0,1,1.043-1.428,1.64,1.64,0,0,1,1.086-.606.326.326,0,0,1,.217.043c.086.087.086.13.086.173a1.136,1.136,0,0,1-.217.563l1.043.606a6.193,6.193,0,0,0,.478-.649,1.593,1.593,0,0,0,.217-.692,1.247,1.247,0,0,0-.26-.822.929.929,0,0,0-.826-.346,3.772,3.772,0,0,0-1.564.389,9.064,9.064,0,0,0-1.607,1.125A8.6,8.6,0,0,0,420.611,35.586ZM441.2,30.048l.348-.346-.652-.519c-.652.822-1.26,1.255-1.738,1.255-.564,0-.868-.389-.868-1.082l-1.3.043c0,1.3.564,1.9,1.694,1.9A3.248,3.248,0,0,0,441.2,30.048ZM433.339,37.1a2.851,2.851,0,0,0-.217.822.893.893,0,0,0,.217.649.726.726,0,0,0,.478.173c.651,0,1.651-.649,3-1.991a4.885,4.885,0,0,1,.7-.649l.044.043a5.028,5.028,0,0,0-.868,1.688v.3a.729.729,0,0,0,.26.433.625.625,0,0,0,.434.173,3.617,3.617,0,0,0,1.086-.346,6.516,6.516,0,0,0,.782-.389.761.761,0,0,0,.3.519,1.318,1.318,0,0,0,.7.216,3.318,3.318,0,0,0,2.3-1.558.747.747,0,0,1,.26-.26c.044-.086.087-.13.131-.216.26,1.341.7,2.033,1.39,2.033a1.512,1.512,0,0,0,.912-.346,6.822,6.822,0,0,0,.825-.649l.348-1.082a5.964,5.964,0,0,1-.826.476,1.857,1.857,0,0,1-.738.26c-.478,0-.782-.476-.869-1.428a26.942,26.942,0,0,1,3.259-2.812l-1-.519c-.391.346-.7.649-.912.822-.174.173-.391.389-.653.606-.217.216-.521.476-.868.822,0-.649-.043-1.428-.043-2.293l-1.173-.606a7.279,7.279,0,0,0-.044.952,23.46,23.46,0,0,0,.217,2.812c-.608.649-1.043,1.082-1.3,1.342-.26.216-.434.346-.608.346-.218,0-.348-.173-.348-.476a1.279,1.279,0,0,1,.087-.519l-.564.3v-.086c-.261.13-.565.259-.782.389a1.7,1.7,0,0,1-.739.3c-.131,0-.217-.087-.217-.26a.815.815,0,0,1,.086-.3l1.694-3.245-1.043-.519a7.655,7.655,0,0,1-1,1.385c-.348.389-.826.865-1.477,1.471q-.781.713-1.043.908a.918.918,0,0,1-.477.216.2.2,0,0,1-.174-.216v-.043a1.169,1.169,0,0,1,.131-.346l1.867-3.5-1.086-.562c-.738,1.428-1.3,2.466-1.651,3.2A12.764,12.764,0,0,0,433.339,37.1Zm21.111-1.86a4.538,4.538,0,0,0-.652,2.034,1.328,1.328,0,0,0,.478,1.082,1.561,1.561,0,0,0,1.042.389,2.715,2.715,0,0,0,1.651-.562,4.77,4.77,0,0,0,1.217-1.255,2.187,2.187,0,0,0,.521-1.168c0-.086,0-.13.043-.173.044,0,.174-.043.391-.086a3.3,3.3,0,0,0,.782-.346c.173-.086.3-.173.39-.216l.087.087a11.988,11.988,0,0,0-.956,1.514,3.366,3.366,0,0,0-.521,1.428c0,.519.3.779.868.779a2.157,2.157,0,0,0,1.043-.3,3.772,3.772,0,0,0,1.129-.692l.348-1.082a3.516,3.516,0,0,1-1.564.822.23.23,0,0,1-.26-.26,1.561,1.561,0,0,1,.131-.476c.13-.216.217-.432.3-.606l1.433-2.552-1-.563a2.907,2.907,0,0,1-.7.822,4.226,4.226,0,0,1-1.043.649,4.02,4.02,0,0,1-1.172.346,1.567,1.567,0,0,0-1.043-.3,1.793,1.793,0,0,0-.781.3c-.262.173-.435.346-.435.519l.173.389c.044.087.087.13.174.13a3.138,3.138,0,0,0,.608-.087h.087c.044.043.044.043.044.087v.043a1.932,1.932,0,0,1-.3.649,3.766,3.766,0,0,1-.738.909,1.129,1.129,0,0,1-.782.389.441.441,0,0,1-.3-.173.526.526,0,0,1-.13-.389,1.6,1.6,0,0,1,.086-.519c.087-.173.174-.389.348-.692.608-1.168,1.173-2.206,1.781-3.2l-1.086-.519Q455.1,34.007,454.45,35.24Zm9.905-.346c-1.3,1.255-1.912,2.207-1.912,2.9a.88.88,0,0,0,.26.649,1.23,1.23,0,0,0,.913.3,3.118,3.118,0,0,0,1.26-.3,9.2,9.2,0,0,0,1.3-.692l.349-1.082a7.277,7.277,0,0,1-1.173.606,2.743,2.743,0,0,1-.956.3c-.13,0-.217,0-.26-.086-.087-.043-.087-.13-.087-.216,0-.3.521-.952,1.651-2.034a8.842,8.842,0,0,0,.913-.952,1.371,1.371,0,0,0,.26-.865c0-.519-.26-.779-.87-.779a4.907,4.907,0,0,0-2.475.822l.391.692a6.461,6.461,0,0,1,1.129-.476h.174a.139.139,0,0,1,.13.13c0,.087-.086.173-.173.3l-.391.389A3.929,3.929,0,0,1,464.355,34.894Zm14.378.346a3.3,3.3,0,0,0-.782,1.9,1.623,1.623,0,0,0,.391,1.212,1.312,1.312,0,0,0,.868.389,2.768,2.768,0,0,0,1.607-.606,5.019,5.019,0,0,0,1.3-1.125c.087-.087.174-.13.217-.173h.044a.748.748,0,0,1-.086.216,1.523,1.523,0,0,1-.131.26,2.713,2.713,0,0,0-.087.3,1.22,1.22,0,0,0-.042.389.684.684,0,0,0,.216.519,1.076,1.076,0,0,0,.653.216,2.29,2.29,0,0,0,1-.3,9.375,9.375,0,0,0,1.086-.692l.3-1.082a8.372,8.372,0,0,1-.913.476,2.445,2.445,0,0,1-.738.26c-.131,0-.174-.086-.174-.26a3.211,3.211,0,0,1,.347-.952l1.39-2.726-1.13-.606-.173.346a1.627,1.627,0,0,0-1.347-.563,3.8,3.8,0,0,0-1.955.736A7.6,7.6,0,0,0,478.733,35.24Zm.825,1.557a2.511,2.511,0,0,1,.608-1.384,6.993,6.993,0,0,1,1.39-1.384,2.676,2.676,0,0,1,1.3-.563,1,1,0,0,1,.739.346l-.826,1.514a3.932,3.932,0,0,1-.738.909,9.858,9.858,0,0,1-1.13.865,1.955,1.955,0,0,1-.868.389C479.732,37.49,479.558,37.274,479.558,36.8Zm8.557-4.413-3.084,6.057,1.261.433,1.172-2.423a7.88,7.88,0,0,1,2.216-.476q-.523.974-.651,1.3a1.293,1.293,0,0,0-.131.519.913.913,0,0,0,.26.692,1.069,1.069,0,0,0,.7.26,4.619,4.619,0,0,0,1.824-.692.626.626,0,0,0,.3.476,1.3,1.3,0,0,0,.652.216c.739,0,1.477-.519,2.346-1.558a1.662,1.662,0,0,1,.218-.26c.044-.086.13-.13.173-.216.218,1.341.7,2.033,1.39,2.033a1.406,1.406,0,0,0,.868-.346,7.6,7.6,0,0,0,.869-.649l.348-1.082c-.218.13-.478.3-.826.476a2,2,0,0,1-.781.26c-.478,0-.782-.476-.869-1.428a27.016,27.016,0,0,1,3.258-2.812l-1-.519a11.938,11.938,0,0,1-.912.822l-.608.606c-.26.216-.522.476-.868.822-.044-.649-.087-1.428-.087-2.293l-1.173-.606c0,.347-.044.649-.044.952a23.289,23.289,0,0,0,.218,2.812c-.564.649-1,1.082-1.26,1.342a1.275,1.275,0,0,1-.609.346c-.259,0-.39-.173-.39-.476a3.175,3.175,0,0,1,.087-.519l-.522.26.044-.043a5.518,5.518,0,0,0-.782.389,2.73,2.73,0,0,1-1,.389.23.23,0,0,1-.26-.26,1.026,1.026,0,0,1,.174-.519l.086-.173c0-.087.044-.13.044-.173l1.477-2.942-1.13-.476-1,2.207a6.7,6.7,0,0,0-1.173.086,7.833,7.833,0,0,0-1,.216l1.3-2.51Zm11.642,3.028a6.61,6.61,0,0,0-.869,2.38.948.948,0,0,0,.261.736.7.7,0,0,0,.477.216c.652,0,1.694-.692,3.083-2.12l.087.087c-.217.346-.39.649-.564.908a19.167,19.167,0,0,0-2.173,4.456l1.348.26c.26-.736.694-1.774,1.3-3.159.651-1.341,1.608-3.2,2.955-5.581l-1.086-.563a18.026,18.026,0,0,1-1.607,2.25,8.277,8.277,0,0,1-1.347,1.385,2.9,2.9,0,0,1-.825.519h-.131c-.131,0-.174-.086-.174-.216a6.549,6.549,0,0,1,.651-1.428l1.477-2.683-1.13-.606C500.929,33.25,500.321,34.288,499.757,35.413Zm6.081,0a6.288,6.288,0,0,0-.825,2.38.938.938,0,0,0,.217.736.7.7,0,0,0,.478.216c.652,0,1.693-.692,3.083-2.12l.087.087c-.217.346-.391.649-.565.908a17.086,17.086,0,0,0-2.128,4.456l1.3.26c.26-.736.7-1.774,1.347-3.159.608-1.341,1.564-3.2,2.91-5.581l-1.085-.563a14.49,14.49,0,0,1-1.607,2.25,6.9,6.9,0,0,1-1.348,1.385,2.881,2.881,0,0,1-.825.519h-.131c-.13,0-.173-.086-.173-.216a6.486,6.486,0,0,1,.651-1.428L508.7,32.86l-1.129-.606C507.01,33.25,506.446,34.288,505.838,35.413Zm16.594,0a6.624,6.624,0,0,0-.868,2.38.951.951,0,0,0,.26.736.7.7,0,0,0,.477.216c.652,0,1.694-.692,3.084-2.12l.087.087c-.218.346-.391.649-.564.908a17.05,17.05,0,0,0-2.129,4.456l1.3.26c.26-.736.7-1.774,1.3-3.159.652-1.341,1.607-3.2,2.954-5.581l-1.086-.563a17.938,17.938,0,0,1-1.607,2.25,8.274,8.274,0,0,1-1.347,1.385,2.881,2.881,0,0,1-.825.519h-.131c-.13,0-.173-.086-.173-.216a6.49,6.49,0,0,1,.652-1.428L525.3,32.86l-1.129-.606C523.6,33.25,523.04,34.288,522.432,35.413Zm20.5-3.028-3.127,6.057,1.3.433,1.172-2.423a7.939,7.939,0,0,1,2.173-.476c-.3.649-.522,1.082-.608,1.3a1.454,1.454,0,0,0-.174.519.941.941,0,0,0,.3.692.991.991,0,0,0,.7.26,6.375,6.375,0,0,0,2.26-1,1.646,1.646,0,0,0,.39.562,1.72,1.72,0,0,0,1.26.433,4.343,4.343,0,0,0,2.345-.649,4.742,4.742,0,0,0,1.564-1.644,4.1,4.1,0,0,0,.521-1.947,2.452,2.452,0,0,0-.435-1.471,1.571,1.571,0,0,0-1.3-.606,3.123,3.123,0,0,0-2.084,1l.608.735a2.381,2.381,0,0,1,1.3-.779.909.909,0,0,1,.477.173.779.779,0,0,1,.174.606,3.407,3.407,0,0,1-.218,1.038,3.3,3.3,0,0,0-1.3-.216,1.924,1.924,0,0,0-1.13.3l.652.865a1.433,1.433,0,0,1,.956-.346,3.2,3.2,0,0,1,.521.087,4.893,4.893,0,0,1-1.085,1.341,2.1,2.1,0,0,1-1.3.519.6.6,0,0,1-.565-.26.872.872,0,0,1-.173-.563,4.475,4.475,0,0,1,.087-.649l-1.217.519v.043a3.392,3.392,0,0,0-.434.216,2.611,2.611,0,0,1-1.043.389c-.131,0-.217-.086-.217-.26a1.024,1.024,0,0,1,.173-.519.428.428,0,0,1,.044-.173c.044-.087.086-.13.086-.173l1.477-2.942-1.129-.476-1.043,2.207a6.283,6.283,0,0,0-1.13.086,9.374,9.374,0,0,0-1.043.216l1.3-2.51Z" transform="translate(-319.746 -0.836)" fill="#483eb4" fill-rule="evenodd"></path><path id="Subtraction_1" data-name="Subtraction 1" d="M28.42,28.339H0V0H28.42V28.338ZM14.323,1.732a12.685,12.685,0,0,0-1.833.134,12.436,12.436,0,0,0-8.3,4.884,12.227,12.227,0,0,0-2.34,9.178,12.555,12.555,0,0,0,12.441,10.68,12.839,12.839,0,0,0,1.763-.122,12.621,12.621,0,0,0,9.557-6.923,11.2,11.2,0,0,0,1.086-3.592H17.528l-2,3.592h5.821a9.035,9.035,0,0,1-7.08,3.462,8.87,8.87,0,1,1,0-17.739,8.615,8.615,0,0,1,7.123,3.591h-8.08L7.494,19.648h4.084l4-7.268H26.694a9.253,9.253,0,0,0-1.043-3.5A12.631,12.631,0,0,0,14.323,1.732Z" fill="#483eb4"></path></svg>