<svg width="276" height="205" viewBox="0 0 276 205" fill="none" xmlns="http://www.w3.org/2000/svg">
<path fill-rule="evenodd" clip-rule="evenodd" d="M136.497 28.4875C185.974 70.2125 237.91 54.2218 243.733 102.244C249.919 153.289 233.372 122.568 193.52 154.416C135.359 200.901 48.0234 184.682 44.7888 101.759C42.6362 46.5153 97.1888 -4.66048 136.497 28.4875Z" fill="#F2F8FD"/>
<path d="M31.5319 140.395C31.9679 139.429 32.229 138.443 32.7433 137.628C33.3234 136.835 34.2989 136.223 35.3081 136.582C39.8254 138.045 44.3683 138.012 46.8131 134.279C46.7964 134.336 46.7898 134.395 46.7933 134.454C46.794 134.509 46.8598 134.53 46.9144 134.529C46.9704 134.638 47.1788 134.723 47.2887 134.776C47.8598 135.031 48.5041 135.056 49.1261 134.983C49.9108 134.853 50.5488 134.332 51.2323 133.953C51.6734 133.689 52.1388 133.467 52.6222 133.292C52.6332 133.546 52.6068 133.8 52.544 134.046C52.5312 134.043 52.5177 134.042 52.5045 134.044C52.4913 134.046 52.4787 134.051 52.4677 134.058C51.9198 134.808 50.7758 135.04 49.8214 135.587C49.0071 135.979 48.3375 136.598 47.7672 137.304C47.2274 137.935 46.7867 138.643 46.4603 139.406C45.6941 141.065 45.4871 142.902 45.3997 144.705C45.3929 145.065 45.2092 147.001 45.8169 146.688C46.3991 146.058 46.7062 145.268 47.3456 144.856C49.1972 143.545 51.5101 143.342 53.1505 141.728C54.8008 140.026 55.9952 136.746 53.9524 134.914C53.6501 134.654 53.3035 134.451 52.9293 134.315C52.8635 134.294 52.8194 134.261 52.7536 134.24C52.8467 133.899 52.8866 133.545 52.8719 133.191C53.2602 133.07 53.6646 133.01 54.0712 133.012C54.6717 133.005 55.2953 133.095 55.8834 132.957C56.8964 132.737 57.6943 131.887 57.9771 130.889C58.0606 130.572 58.1869 130.177 58.1822 129.795C58.6894 130.193 59.24 130.568 59.865 130.768C60.7636 131.019 61.8871 130.907 62.235 129.877C62.4455 129.219 62.2842 128.533 62.2217 127.878C62.1618 127.442 62.2959 126.796 62.3768 126.26C62.4208 126.504 62.5127 126.737 62.6472 126.945C62.8143 127.216 63.0031 127.476 63.192 127.736C63.1 129.156 63.0863 130.729 63.8659 131.976C61.9295 131.683 61.4974 134.789 58.7923 133.271C58.441 133.123 57.493 132.403 57.3701 133.07C57.3398 133.278 57.4293 133.452 57.4971 133.637C57.6773 134.094 57.9255 134.522 58.2333 134.906C59.1642 136.019 60.7687 136.841 62.2166 136.452C62.7283 136.325 63.2039 135.916 63.5176 135.671C63.8914 135.405 64.3057 135.201 64.7444 135.067C65.6364 134.772 66.5961 134.662 67.3874 134.172C67.5697 134.053 67.7367 133.911 67.8847 133.751C68.0137 134.481 68.5137 135.185 69.5919 135.838C71.0537 136.596 72.5002 137.004 73.6726 138.213C73.8712 138.386 74.2712 138.949 74.5371 139.251C74.8693 139.63 75.1074 139.452 75.1784 139.003C75.6815 137.261 75.7674 135.348 74.9608 133.676C74.59 132.796 73.9878 131.788 73.7489 131.004C73.5982 130.285 73.6133 129.728 73.6586 128.963C73.7545 127.861 74.0841 126.792 74.6253 125.828C74.8176 125.454 75.1081 125.112 75.3442 124.771C75.8798 125.703 75.9818 126.914 75.7859 127.867C75.4748 129.236 74.706 130.676 75.2909 132.078C75.5285 132.752 75.9837 133.369 76.7067 133.546C77.1014 133.672 77.5382 133.667 77.9221 133.826C78.1421 133.904 78.3523 134.008 78.5485 134.135L78.6471 134.167C78.6661 134.161 78.6838 134.152 78.6991 134.14C78.7143 134.127 78.7269 134.112 78.7359 134.094C78.7449 134.077 78.7502 134.057 78.7515 134.038C78.7528 134.018 78.75 133.998 78.7433 133.98C78.9155 133.781 79.0392 133.168 79.1141 133.047C79.9914 130.644 81.3279 129.187 80.4199 126.358C80.3086 125.998 80.1729 125.646 80.0139 125.304C80.2645 125.257 80.5039 125.188 80.7546 125.142C82.1156 124.798 83.5581 124.878 84.7245 125.596C85.1091 125.81 85.6264 126.12 85.8587 126.357C86.0021 126.476 86.0811 126.682 86.2672 126.724C86.6271 126.676 86.3264 126.199 86.3021 125.992C85.9829 124.893 85.817 123.824 85.8695 122.753C85.8792 120.853 86.9177 119.137 87.4412 117.274C87.8146 115.653 87.4875 113.898 86.727 112.422C85.6652 110.415 83.3021 109.187 81.0841 110.001L80.7368 110.18C79.9269 109.141 78.7171 108.446 77.4777 108.013C76.688 107.706 75.8562 107.585 75.0556 107.311C73.6294 106.782 71.9598 105.994 70.6166 106.906C70.6377 106.84 70.6699 106.796 70.6804 106.763C71.5367 105.333 71.5813 103.607 71.7364 101.989C71.7673 101.201 71.901 100.421 72.1342 99.6685C72.1356 99.6714 72.1376 99.674 72.1401 99.6761C72.1425 99.6782 72.1453 99.6798 72.1484 99.6808C72.1515 99.6818 72.1547 99.6821 72.1579 99.6818C72.1612 99.6815 72.1643 99.6806 72.1671 99.679C72.6795 99.6073 73.1637 99.9072 73.7544 99.9874C74.2881 100.039 74.8252 100.047 75.3602 100.012C75.4838 100.305 75.6074 100.598 75.7964 100.858C76.2404 101.453 76.8463 101.883 77.5272 102.191C79.0534 102.861 79.7473 101.542 80.4113 100.431C80.6579 100.057 81.0809 99.8111 81.5025 99.4566C81.9247 99.1064 82.2723 98.6751 82.5246 98.1881C82.9304 97.4297 83.0718 96.4778 82.7343 95.6628C82.4875 95.1306 81.9171 94.93 81.3909 94.7617C80.5798 94.5203 79.7595 94.4211 78.9694 94.114C78.3991 93.9134 77.882 93.6029 77.2794 93.4464C76.8193 93.2991 76.317 93.3379 75.848 93.3873C75.3462 93.4977 74.8349 93.5588 74.3212 93.5697C74.6118 92.3211 74.8466 90.9641 75.5898 90.1141C76.2463 89.3089 77.2251 88.9693 78.2184 88.9245C78.366 88.9071 78.5157 88.9239 78.6558 88.9738C79.0801 89.744 79.6138 90.513 80.4907 90.7754C81.1162 91.0299 81.901 90.9002 82.376 90.4358C82.4542 90.3386 82.5191 90.2313 82.5686 90.1167C82.9443 91.379 83.739 92.0683 85.1139 91.9643C85.4961 91.9596 85.8664 91.8787 86.248 91.8195C86.4006 91.7958 86.5749 91.7609 86.6943 91.672C86.9541 91.4833 86.9817 91.057 86.7067 90.8965C86.3113 90.7157 85.8331 90.9071 85.4299 90.9775C84.9836 91.0704 84.7011 91.2157 84.3609 91.0888C83.8341 90.8659 83.3682 90.2817 82.9044 89.8615C83.6123 89.689 84.2411 89.3101 84.6486 88.7154C85.1011 88.2072 85.6115 87.972 86.2977 87.8108C86.9403 87.6718 87.6367 87.4778 88.0783 86.9481C88.7011 86.0778 88.7063 84.7017 87.878 83.9473C86.6413 82.8266 85.175 83.4997 85.2173 85.181C85.2127 85.7053 85.2865 86.3815 85.1707 86.7434C85.0017 87.215 84.5913 87.5913 84.0598 87.8926C83.6145 88.0946 83.1586 88.3295 82.8573 88.7045C82.8533 87.4704 81.9941 86.8692 80.9573 86.03C80.1256 85.3611 79.1692 84.8641 78.1437 84.5679C77.7273 84.4528 77.2556 84.2838 76.8208 84.4529C76.3539 84.6658 76.4591 85.2437 76.7144 85.5791C77.2492 86.4573 78.3044 87.0124 78.3591 87.9182C78.4157 88.0813 78.3317 88.3444 78.3559 88.5517C77.2961 88.5208 76.1871 88.9274 75.4761 89.7333C74.4947 90.761 74.3264 92.1936 74.0148 93.508C73.1633 93.5621 72.2899 93.5727 71.4394 93.6813C71.4065 93.6708 71.3848 93.682 71.3526 93.726C71.3254 93.7126 71.2945 93.7091 71.2651 93.7162C71.2388 93.7259 71.2155 93.7423 71.1974 93.7638C71.1794 93.7852 71.1672 93.8109 71.162 93.8385C71.1568 93.866 71.1589 93.8944 71.168 93.921C71.177 93.9475 71.1928 93.9712 71.2138 93.9898C72.0351 94.4059 72.7489 95.0066 73.2992 95.7447C72.7383 97.215 72.0457 98.6431 71.682 100.177C71.3197 101.819 71.4623 103.641 71.0214 105.132C70.834 105.888 70.4907 106.394 70.1717 107.108C70.2039 107.064 70.1612 107.141 70.1185 107.218C70.0248 107.312 69.9518 107.424 69.904 107.548L69.8711 107.538C68.1936 107.001 66.5163 108.277 65.0918 108.764C64.6241 108.923 64.1116 108.995 63.7302 109.054C63.3158 109.103 62.1474 109.128 62.9737 109.718C63.8105 110.276 64.7335 110.735 65.5492 111.358C66.013 111.778 66.4466 112.407 66.7598 113.014C67.5993 114.697 68.2448 116.589 69.4421 118.06C69.4316 118.096 69.432 118.134 69.4434 118.169C69.9468 119.146 69.4897 120.178 68.5023 120.715C68.0465 120.949 67.3374 121.013 66.7842 121.325C65.2034 120.656 63.4807 121.791 62.6229 123.112C62.2921 123.75 62.181 124.494 62.1566 125.193C62.1555 125.408 62.1654 125.623 62.1863 125.837C62.1497 125.788 62.1011 125.75 62.0453 125.726C61.9895 125.702 61.9284 125.692 61.8679 125.699C61.3009 125.771 60.9286 126.595 60.7024 126.849C60.4011 127.224 59.9005 127.372 59.4427 127.443C60.0051 126.082 60.2255 124.43 60.2567 123.425C60.2527 123.097 60.3356 122.725 60.2882 122.42C60.3089 122.41 60.3273 122.396 60.3421 122.379C60.357 122.362 60.368 122.342 60.3744 122.32C60.4046 122.112 60.8815 121.812 61.0847 121.46C61.3308 121.031 61.4011 120.528 61.3951 120.036C61.4483 119.02 61.0325 118.053 60.4002 117.252C59.8002 116.408 58.7141 116.006 57.9556 115.6C56.9109 115.012 56.0616 114.324 55.6662 113.236C55.4917 112.74 55.4257 112.212 55.4727 111.688C55.5844 110.998 55.5382 109.896 54.5575 110.072C53.1801 110.864 53.231 114.161 53.5864 115.544C54.0924 117.646 54.9629 120.082 54.6263 122.041C54.5027 122.654 54.2349 123.094 53.7983 123.099C53.7654 123.089 53.7433 123.1 53.7107 123.089C53.2613 122.057 52.6817 121.092 52.0804 120.138C52.0357 120.052 51.9804 119.998 51.9356 119.911C52.1582 119.588 52.3375 119.237 52.4691 118.867C52.6449 118.396 52.7708 117.907 52.8445 117.41C52.9636 117.321 52.8951 117.082 52.8826 116.951C52.8201 116.296 52.4852 115.7 52.2267 115.091C51.8003 114.157 51.7765 113.098 51.3712 112.098C50.8336 111.002 49.7633 110.097 48.5279 109.992C48.4296 109.981 48.33 109.986 48.2332 110.007C48.1093 109.198 48.0555 108.38 48.0725 107.562C48.6599 107.369 49.1901 106.959 49.4012 106.355C49.5226 106.088 49.5789 105.795 49.5655 105.501C50.2404 105.318 50.9686 105.025 51.2553 104.356C51.3184 104.158 51.3816 103.961 51.423 103.775C51.5885 104.098 51.7979 104.397 52.0454 104.663C52.9394 105.438 53.8307 104.182 54.2371 103.478C54.8152 102.521 56.073 101.763 56.4511 100.525C56.8732 99.3181 56.735 97.8236 55.8278 96.8626C55.2192 96.2147 54.3838 95.7662 53.5075 95.5584C52.8434 95.4575 52.1643 95.5413 51.5446 95.8007L51.5229 95.8118C51.0147 95.4894 50.4346 95.2976 49.8343 95.2535C48.9593 95.1549 48.145 95.5471 47.3073 95.7866C47.0711 95.84 46.8277 95.8539 46.5869 95.8278L46.554 95.8173C46.5269 95.8038 46.496 95.8004 46.4665 95.8075C46.108 95.0581 45.7494 94.309 45.4343 93.5373C45.1645 92.9072 44.8835 92.2553 44.6243 91.5923C45.0046 91.644 45.3916 91.6132 45.759 91.502C46.3576 91.331 46.82 90.7356 46.7684 90.1028C46.7309 89.7101 46.5296 89.3194 46.548 89.0352C46.5343 88.7948 46.7394 88.6069 46.9209 88.2661C47.1978 87.6839 46.9056 87.0103 46.5826 86.49C46.0372 85.6448 44.9399 85.2212 43.9374 85.4081C43.5776 85.4562 43.3257 85.3938 43.0079 85.3102C43.6341 84.7128 43.8182 83.684 44.2911 83.0557C44.3982 82.9201 44.5173 82.7944 44.6469 82.6801C44.6385 82.7098 44.6394 82.7414 44.6495 82.7706C44.6596 82.7998 44.6785 82.8251 44.7036 82.8432C44.707 82.8934 44.7225 82.9419 44.7489 82.9847C45.0064 83.955 45.4638 84.8608 46.0918 85.6441C46.5694 86.3045 47.2529 86.8313 48.0943 86.8649C48.5429 86.9358 48.9554 86.7233 49.3132 86.5115C49.7144 86.2773 50.1268 86.0647 50.5393 85.8523C51.0617 85.5891 51.6507 85.4874 52.2312 85.5601C52.8117 85.6328 53.3574 85.8766 53.7988 86.2605C54.0962 86.4644 54.3304 86.8657 54.6508 87.1675C54.67 87.1998 54.6996 87.2245 54.7348 87.2376C54.77 87.2506 54.8086 87.2512 54.8442 87.2393C54.8798 87.2274 54.9102 87.2036 54.9304 87.172C54.9507 87.1404 54.9594 87.1028 54.9553 87.0655C54.9323 86.9676 54.833 86.8813 54.7883 86.7946C54.2211 85.9605 53.804 84.8844 53.1704 83.9746C52.3481 82.8051 51.4487 81.5928 50.227 80.8214C49.4133 80.3616 48.4502 80.1986 47.5221 80.2098C47.0605 80.2172 46.6068 80.3311 46.1964 80.5426C45.786 80.754 45.43 81.0574 45.156 81.4289C44.9787 81.6902 44.8387 81.975 44.7403 82.275C44.7011 82.291 44.6673 82.3179 44.6429 82.3526C43.8523 82.8973 43.688 83.7512 43.2821 84.5097C43.0684 84.8946 42.9073 85.115 42.5928 85.3044L42.506 85.3491C41.9802 83.4224 41.5412 81.451 41.6819 79.5381C41.6883 79.4388 41.7017 79.3402 41.722 79.2428C41.8746 79.2191 42.0384 79.2171 42.1799 79.1717C42.7351 79.0231 43.0567 78.5276 43.2139 77.9797C43.4671 77.245 43.4894 76.3818 43.0117 75.7214C42.934 75.6241 42.8117 75.4398 42.6906 75.3649C42.7048 75.3264 42.7118 75.2856 42.7112 75.2445C43.0961 75.4583 43.4763 75.2898 43.7901 75.0458L43.8012 75.0674C43.9446 75.1859 44.1624 75.1286 44.3268 75.1812C44.4801 75.2121 44.907 75.2943 45.0393 75.391C45.457 75.6153 45.6353 75.9079 45.9129 76.2868C46.1576 76.5988 46.4809 76.8399 46.8497 76.9854C47.6628 77.3905 48.6456 77.3786 49.0799 78.0614C49.4246 78.5705 49.6529 79.3867 50.1075 79.9492C50.352 80.2561 50.6261 80.5381 50.9259 80.7911C51.0805 80.9312 51.268 81.0818 51.4759 81.1121C52.0115 81.1384 51.71 80.6069 51.6192 80.3241C51.4845 79.9269 51.4095 79.5119 51.3968 79.0926C51.3664 78.394 51.7631 77.7776 51.7425 76.9914C51.7787 76.3684 51.5859 75.781 51.2846 75.2495C50.9172 74.5248 50.3861 73.8956 49.7333 73.4117C49.2627 73.0691 48.7234 72.8328 48.1525 72.7191C47.5817 72.6053 46.9929 72.6169 46.427 72.7529C45.8831 72.9233 45.4285 73.2674 44.9845 73.5786C44.3241 74.0562 43.6683 74.9161 43.1013 74.9885C42.8941 75.0128 42.8935 74.9583 42.7066 74.8622C42.8492 74.0195 42.9485 73.1992 43.0912 72.3565C43.1931 71.7546 43.5009 71.0192 43.9083 70.3698C43.9412 70.3804 43.9632 70.3692 44.0063 70.3468C44.4183 70.0797 44.9891 70.3349 45.6245 70.5019C46.7626 70.6847 47.9532 70.703 47.9354 69.2288C47.9301 68.792 47.8905 68.2355 47.974 67.9178C48.1095 67.381 48.2877 66.7672 48.0084 66.2246C48.4629 65.8805 48.9286 65.5581 49.4055 65.2575C50.2153 64.766 51.0742 64.3602 51.9683 64.0469C52.2979 64.2066 52.6281 64.421 52.9892 64.4822C53.6896 64.6157 54.6061 64.5281 55.1969 64.6084C55.9086 64.7635 56.3829 65.1508 57.0639 65.4594C57.7769 65.7237 58.5722 65.5612 59.3149 65.5631C59.5552 65.5494 60.08 65.6084 59.8569 65.2288C58.5384 63.6831 57.078 62.1281 55.1683 61.3541C53.7967 60.8247 51.5273 61.0051 51.111 62.7029C51.117 63.1944 51.3176 63.5305 51.388 63.9337C51.1512 64.0229 50.9192 64.1241 50.6927 64.2371C49.6849 64.7109 48.7321 65.2938 47.8515 65.9755C47.5732 65.5421 47.1429 65.1869 46.7245 64.908C46.2621 64.5969 45.8108 64.3075 45.2734 64.1174C44.2201 63.726 43.0485 64.3847 42.2231 64.7552C41.8942 64.9159 41.5327 64.9987 41.1667 64.9973C40.8719 65.0119 40.5437 64.9612 40.3056 65.1388C39.8945 65.4606 39.9893 66.071 40.2018 66.4834C40.3472 66.7656 40.655 66.9366 40.9405 67.0642C41.3905 67.2444 42.1543 67.1805 42.4825 67.2311C42.8983 67.2916 43.1732 67.4521 43.3732 67.7337C43.4566 67.863 43.4967 68.0155 43.4877 68.1691C43.4693 68.4533 43.3852 68.7164 43.3884 68.9894C43.3491 69.3396 43.4951 69.6761 43.6951 69.9576C43.7129 69.9958 43.7395 70.0292 43.7728 70.055C43.3117 70.7595 42.9605 71.5176 42.8178 72.36C42.6547 73.3231 42.5569 74.2526 42.3714 75.1723C42.3282 75.1424 42.2798 75.1208 42.2287 75.1084C41.1196 74.6087 39.6282 73.2069 38.2291 74.0103C37.5555 74.3025 37.0622 75.0511 36.586 75.4063C35.6546 76.0511 34.6415 76.2708 33.6087 75.7591C32.7746 75.4198 32.5523 76.0014 32.9865 76.6841C33.3313 77.1932 33.8167 77.6024 34.345 77.9345C34.7634 78.2134 35.214 78.4482 35.7383 78.4527C36.5348 78.3994 37.3932 78.0395 38.0282 78.1519C38.6301 78.2538 39.1905 78.5418 39.761 78.7425C40.2655 78.9221 40.8351 79.068 41.3923 79.0831C41.372 79.1804 41.3586 79.2791 41.3523 79.3784C41.2767 80.3513 41.3649 81.3222 41.5077 82.2925C41.6716 83.1969 41.8684 84.1122 42.1086 85.0049C41.8122 84.8784 41.4864 84.837 41.1678 84.8853C40.5574 84.98 40.0595 85.3465 39.4944 85.5827C38.9725 85.7965 38.1656 85.8828 37.811 85.4611C37.4236 85.0289 37.1432 84.4317 36.5512 84.2423C36.0911 84.1496 36.1533 84.7495 36.1677 85.0442C36.1849 85.5573 36.431 86.0349 36.6876 86.4794C37.1016 87.2083 37.6771 87.8328 38.3699 88.3048C39.2179 88.8842 40.0185 89.1584 40.8763 89.6507C41.5592 90.1229 42.2322 90.6827 43.0222 90.9897C43.4137 91.1603 43.8214 91.2907 44.2392 91.379C44.4419 91.8789 44.6557 92.4005 44.8583 92.9005C45.5887 94.5844 46.4052 96.1691 46.9934 97.8438C45.9428 97.6708 44.893 97.5526 43.9034 97.0185C43.354 96.7521 42.6399 96.3786 42.0555 95.9379C41.372 95.411 40.0029 94.1938 39.561 95.575C39.3953 96.3197 39.6888 97.1024 40.1112 97.7089C40.6993 98.4771 41.4618 99.2106 41.821 100.014C42.5231 102.07 42.989 104.467 44.7232 106.073C45.408 106.709 46.1593 107.421 47.1322 107.497C47.3341 107.503 47.5359 107.482 47.7322 107.435C47.7224 107.522 47.7342 107.598 47.7243 107.686C47.7332 108.399 47.7966 109.11 47.9139 109.813C46.2997 109.986 44.7827 110.987 43.7601 112.201C42.5926 113.742 41.6567 115.446 40.9819 117.258C40.7715 117.916 40.3538 118.598 40.5699 119.284C40.7627 119.871 41.412 120.279 42.035 120.315C42.5047 120.32 42.9388 120.096 43.3848 119.949C43.5552 119.884 43.7297 119.831 43.9071 119.79C43.8345 120.306 43.6338 120.797 43.3234 121.216C42.8617 121.866 42.1492 122.563 41.7554 123.398C41.3575 123.16 40.9125 123.013 40.4516 122.966C39.9907 122.918 39.525 122.973 39.0872 123.125C37.9453 123.521 37.1714 124.524 36.3069 125.299C35.7781 125.819 35.3998 126.151 34.6588 126.258C33.9938 126.354 32.8892 126.236 32.117 126.496C31.3224 126.714 30.7732 127.354 30.4542 128.068C29.5689 129.815 29.6592 131.856 29.6824 133.767C29.7589 135.568 29.7374 137.392 30.021 139.169C30.1599 139.812 30.2238 140.575 30.4929 141.151C31.0143 141.843 31.3924 140.604 31.5319 140.395ZM73.6098 96.1336C73.9223 96.6868 74.1585 97.2518 74.4276 97.8273C74.6848 98.3266 74.9526 98.7929 75.1665 99.3146C75.2389 99.4616 75.2992 99.6143 75.3467 99.7711C74.7573 99.8001 74.1022 99.8081 73.6311 99.6936C73.226 99.6003 72.8194 99.3977 72.3938 99.4247C72.376 99.431 72.3567 99.4312 72.3388 99.4254C72.6861 98.3399 73.1645 97.242 73.6098 96.1336ZM70.3428 107.706C70.4141 107.664 70.4677 107.597 70.4934 107.519C71.6264 106.358 73.1508 106.918 74.7969 107.554C75.8284 107.956 76.9328 108.074 77.9321 108.521C78.7551 108.838 79.7017 109.449 80.2655 110.01C80.3872 110.126 80.4983 110.253 80.5977 110.388C79.6982 110.935 78.9977 111.762 78.7047 112.792C78.0708 114.547 78.0953 116.568 77.6896 118.233C77.3437 119.427 76.7997 120.504 75.9697 121.399C75.3348 120.38 74.331 120.458 73.2647 120.787C72.7312 120.925 72.328 120.995 72.0622 120.693C71.863 120.466 71.7394 120.172 71.5826 119.869C71.6596 119.911 71.7582 119.943 71.8352 119.985C72.3832 120.143 72.9831 120.081 73.5278 119.965C74.7354 119.59 75.2537 118.196 75.4148 117.069C75.4406 116.749 75.388 116.427 75.2614 116.132C75.4745 116.099 75.6804 116.03 75.8705 115.928C76.2717 115.694 76.573 115.319 76.8525 114.955C77.5181 114.007 77.6673 112.805 77.3916 111.683C76.8059 109.32 74.8528 108.569 72.6024 108.519C71.8374 108.474 71.0144 108.156 70.2131 107.828C70.3105 107.75 70.3211 107.717 70.3428 107.706ZM67.6266 121.467C68.1818 121.319 68.7481 121.192 69.1803 120.804C69.6528 120.389 69.9535 119.813 70.0235 119.188C70.034 119.012 70.0171 118.836 69.9734 118.665C70.0284 118.719 70.0839 118.773 70.1504 118.848C69.9196 119.626 69.8532 120.457 69.8086 121.277C69.7921 121.725 69.8192 122.151 70.01 122.574C70.0211 122.596 69.9995 122.607 70.0106 122.629C70.4139 123.465 71.2751 124.23 71.6981 124.891C72.1791 125.825 71.7891 126.987 71.1866 127.737C70.5302 128.542 69.708 129.186 68.9193 129.894L68.8858 129.829C68.751 129.578 68.5705 129.354 68.3535 129.169C67.5364 128.437 66.4102 128.33 65.6274 127.717C65.2748 127.459 65.1162 126.992 65.3201 126.694C65.3418 126.683 65.3523 126.65 65.374 126.639C65.4931 126.55 65.6234 126.483 65.7424 126.394C66.6857 125.826 67.7032 125.082 67.886 123.944C67.9501 123.376 67.9321 122.803 67.8326 122.241C67.778 121.979 67.7093 121.721 67.6266 121.467ZM47.3849 128.299C47.4806 128.267 47.579 128.244 47.6789 128.23C47.9953 128.204 48.1596 128.257 48.4775 128.34C49.2781 128.614 50.1366 129.161 51.0251 129.5C51.0034 129.511 51.0034 129.511 50.9929 129.544C50.7614 130.267 50.2319 130.732 49.4261 130.928C48.7722 131.045 48.2862 131.488 47.9323 132.027C47.8377 132.157 47.7518 132.293 47.6751 132.435C47.7488 132.204 47.8441 131.963 47.9178 131.733C48.0881 131.091 48.1173 130.42 48.0031 129.766C47.9099 129.264 47.6744 128.754 47.3849 128.299ZM43.7103 121.594C44.0648 121.109 44.2221 120.561 44.3022 119.971C44.4982 119.924 44.7055 119.9 44.8798 119.865C45.8941 119.755 46.7381 120.006 47.5104 120.652C48.0953 121.148 48.7775 121.566 49.5531 121.578C50.5023 121.501 51.293 120.956 51.852 120.228C52.5981 121.409 53.3113 122.581 53.8192 123.94C54.1007 124.646 54.2837 125.321 54.4779 126.018C54.3013 126.113 54.0991 126.15 53.9003 126.123C53.5287 126.095 52.9794 125.828 52.53 125.703C51.1164 125.305 49.6225 125.498 48.252 125.929C47.5777 126.167 46.8628 126.645 46.3286 126.728C46.2665 126.728 46.2046 126.732 46.1432 126.741C45.0387 126.624 43.9197 126.211 43.2855 125.247C42.9855 124.825 42.7611 124.336 42.3638 123.991C42.2756 123.927 42.1874 123.862 42.0881 123.776C42.4935 123.017 43.1414 122.409 43.7103 121.594V121.594Z" fill="url(#paint0_linear_15459_25064)"/>
<path fill-rule="evenodd" clip-rule="evenodd" d="M51.8403 150.576C52.0838 152.3 52.894 154.071 54.0043 155.784C55.4318 157.984 57.3072 160.109 58.763 161.918C60.0433 163.543 61.3971 165.089 62.802 166.579C64.2126 168.074 65.6911 169.496 67.232 170.863C69.2801 172.689 71.4469 174.378 73.7182 175.918C79.0715 179.531 85.2348 182.409 92.5086 184.294C92.6899 184.335 92.8775 184.341 93.0608 184.309C93.2441 184.278 93.4194 184.211 93.5768 184.112C93.7342 184.013 93.8706 183.884 93.9781 183.732C94.0856 183.581 94.1622 183.409 94.2035 183.228C94.2448 183.047 94.2499 182.859 94.2187 182.676C94.1875 182.493 94.1204 182.317 94.0215 182.16C93.9225 182.003 93.7934 181.866 93.6417 181.759C93.4901 181.651 93.3187 181.575 93.1374 181.533C86.0508 180.117 79.9212 177.763 74.636 174.502C72.3629 173.107 70.2137 171.52 68.212 169.758C66.7135 168.429 65.3001 167.008 63.9803 165.501C62.666 163.993 61.4295 162.419 60.2755 160.784C58.9896 158.939 57.2958 156.774 56.0778 154.546C55.3018 153.124 54.741 151.68 54.6616 150.301C54.6234 149.928 54.4391 149.585 54.1491 149.348C53.8591 149.111 53.4869 148.998 53.1139 149.035C52.741 149.071 52.3977 149.254 52.159 149.543C51.9204 149.831 51.8059 150.203 51.8406 150.576L51.8403 150.576ZM93.6798 15.1567C94.8525 14.2328 96.1725 13.5155 97.5659 12.9429C99.7469 12.0455 102.098 11.4836 104.347 11.0208C109.559 9.96091 114.968 9.71844 120.203 10.5127C125.443 11.308 130.49 13.1332 134.982 16.1327C138.732 18.6735 142.058 21.7891 145.417 24.8356C147.7 26.913 150 28.9597 152.481 30.76C155.149 32.7033 158.021 34.3674 161.279 35.4964C163.969 36.4367 166.683 36.8746 169.408 37.0836C175.605 37.559 181.865 36.7794 188.045 38.1102C190.6 38.6642 192.934 39.6328 195.126 40.8548C198.502 42.7355 201.544 45.2221 204.552 47.7687C204.696 47.888 204.861 47.9778 205.04 48.033C205.218 48.0881 205.405 48.1075 205.591 48.09C205.777 48.0726 205.957 48.0186 206.122 47.9311C206.287 47.8437 206.433 47.7246 206.551 47.5806C206.67 47.4367 206.759 47.2707 206.813 47.0922C206.868 46.9137 206.886 46.7263 206.868 46.5406C206.849 46.355 206.795 46.1748 206.706 46.0104C206.618 45.846 206.498 45.7006 206.354 45.5827C203.142 43.0119 199.89 40.5194 196.316 38.6517C193.88 37.3813 191.308 36.3925 188.498 35.8601C182.188 34.6546 175.843 35.5808 169.532 35.2335C166.955 35.0919 164.383 34.7288 161.822 33.8915C158.707 32.8634 155.948 31.3242 153.382 29.5041C150.929 27.7649 148.651 25.7806 146.408 23.7428C142.998 20.647 139.667 17.4339 135.877 14.8218C131.238 11.5826 125.981 9.58639 120.514 8.61542C115.059 7.64617 109.388 7.70673 103.905 8.65394C101.486 9.0652 98.9593 9.58921 96.597 10.4656C94.943 11.0785 93.3738 11.871 91.9632 12.9037C91.6645 13.1313 91.4684 13.4683 91.4181 13.8406C91.3678 14.2128 91.4675 14.5897 91.6951 14.8885C91.9228 15.1873 92.2598 15.3834 92.632 15.4336C93.0042 15.4839 93.3812 15.3843 93.6799 15.1566L93.6798 15.1567Z" fill="#F2F8FD"/>
<path fill-rule="evenodd" clip-rule="evenodd" d="M146.556 60.7511C146.555 58.3161 145.588 55.981 143.867 54.2589C142.145 52.5368 139.81 51.5686 137.375 51.5669H69.6385C67.2035 51.5686 64.8687 52.5368 63.1472 54.2589C61.4258 55.981 60.4583 58.3161 60.4575 60.7511V156.437C60.4583 158.872 61.4257 161.207 63.1472 162.929C64.8687 164.652 67.2034 165.62 69.6385 165.622H137.376C139.811 165.62 142.145 164.652 143.867 162.929C145.588 161.207 146.556 158.872 146.557 156.437L146.556 60.7511Z" fill="white"/>
<mask id="mask0_15459_25064" style="mask-type:luminance" maskUnits="userSpaceOnUse" x="60" y="51" width="87" height="115">
<path d="M146.547 60.7511C146.546 58.3161 145.579 55.981 143.857 54.2589C142.136 52.5368 139.801 51.5686 137.366 51.5669H69.6294C67.1944 51.5686 64.8597 52.5368 63.1382 54.2589C61.4167 55.981 60.4493 58.3161 60.4485 60.7511V156.437C60.4493 158.872 61.4167 161.207 63.1382 162.929C64.8597 164.652 67.1944 165.62 69.6294 165.622H137.367C139.802 165.62 142.136 164.652 143.858 162.929C145.579 161.207 146.547 158.872 146.547 156.437L146.547 60.7511Z" fill="white"/>
</mask>
<g mask="url(#mask0_15459_25064)">
<path fill-rule="evenodd" clip-rule="evenodd" d="M156.759 66.5248V53.3529C156.759 52.3671 155.77 51.5669 154.554 51.5669H52.4471C51.2311 51.5669 50.2415 52.3671 50.2415 53.3527V66.5248C50.2415 67.5106 51.2311 68.3108 52.4471 68.3108H154.554C155.77 68.3108 156.759 67.5104 156.759 66.5248Z" fill="#62B7F9"/>
<path d="M70.0121 62.2073C71.265 62.2073 72.2807 61.1915 72.2807 59.9386C72.2807 58.6856 71.265 57.6699 70.0121 57.6699C68.7591 57.6699 67.7434 58.6856 67.7434 59.9386C67.7434 61.1915 68.7591 62.2073 70.0121 62.2073Z" fill="white"/>
<path d="M77.2015 62.2073C78.4545 62.2073 79.4702 61.1915 79.4702 59.9386C79.4702 58.6856 78.4545 57.6699 77.2015 57.6699C75.9486 57.6699 74.9329 58.6856 74.9329 59.9386C74.9329 61.1915 75.9486 62.2073 77.2015 62.2073Z" fill="white"/>
<path d="M84.6039 62.2073C85.8568 62.2073 86.8725 61.1915 86.8725 59.9386C86.8725 58.6856 85.8568 57.6699 84.6039 57.6699C83.3509 57.6699 82.3352 58.6856 82.3352 59.9386C82.3352 61.1915 83.3509 62.2073 84.6039 62.2073Z" fill="white"/>
</g>
<path d="M85.4328 108.593C94.0541 108.593 101.043 101.604 101.043 92.9831C101.043 84.3619 94.0541 77.373 85.4328 77.373C76.8116 77.373 69.8228 84.3619 69.8228 92.9831C69.8228 101.604 76.8116 108.593 85.4328 108.593Z" fill="#E3F2FE"/>
<mask id="mask1_15459_25064" style="mask-type:luminance" maskUnits="userSpaceOnUse" x="69" y="77" width="33" height="32">
<path d="M85.4375 108.593C94.0587 108.593 101.048 101.604 101.048 92.9831C101.048 84.3619 94.0587 77.373 85.4375 77.373C76.8163 77.373 69.8274 84.3619 69.8274 92.9831C69.8274 101.604 76.8163 108.593 85.4375 108.593Z" fill="white"/>
</mask>
<g mask="url(#mask1_15459_25064)">
<path fill-rule="evenodd" clip-rule="evenodd" d="M69.9532 100.727C77.6065 88.5647 81.1414 87.9053 85.4353 92.7404C89.7349 97.576 91.0492 98.9973 95.9606 96.7665C100.866 94.5356 103.155 96.9535 104.668 100.287C106.181 103.62 85.9625 112.742 82.2235 112.668C78.4845 112.595 62.2943 112.888 69.9532 100.727Z" fill="url(#paint1_linear_15459_25064)"/>
</g>
<path d="M94.2258 89.9339C97.2551 89.9339 99.7108 87.4782 99.7108 84.4489C99.7108 81.4196 97.2551 78.9639 94.2258 78.9639C91.1965 78.9639 88.7408 81.4196 88.7408 84.4489C88.7408 87.4782 91.1965 89.9339 94.2258 89.9339Z" fill="url(#paint2_linear_15459_25064)"/>
<path fill-rule="evenodd" clip-rule="evenodd" d="M100.427 120.961C100.428 120.78 100.393 120.601 100.324 120.433C100.255 120.266 100.153 120.114 100.025 119.986C99.8969 119.858 99.7448 119.757 99.5773 119.688C99.4099 119.619 99.2305 119.585 99.0494 119.585H74.3078C74.1273 119.585 73.9485 119.621 73.7817 119.69C73.6149 119.759 73.4634 119.86 73.3359 119.988C73.2084 120.116 73.1073 120.268 73.0386 120.435C72.9699 120.602 72.9348 120.781 72.9354 120.961V120.962C72.9348 121.143 72.9698 121.322 73.0385 121.489C73.1073 121.656 73.2083 121.807 73.3358 121.935C73.4633 122.063 73.6148 122.164 73.7817 122.233C73.9485 122.302 74.1273 122.338 74.3078 122.338H99.0494C99.2305 122.339 99.4099 122.304 99.5773 122.235C99.7448 122.166 99.897 122.065 100.025 121.937C100.153 121.809 100.255 121.657 100.324 121.49C100.393 121.323 100.428 121.143 100.427 120.962V120.961Z" fill="#E3F2FE"/>
<path fill-rule="evenodd" clip-rule="evenodd" d="M142.475 95.5682C142.475 94.4687 142.037 93.4144 141.259 92.6372C140.482 91.86 139.427 91.4236 138.327 91.4238H109.701C109.157 91.4238 108.618 91.5311 108.116 91.7394C107.613 91.9477 107.157 92.253 106.772 92.6379C106.387 93.0228 106.082 93.4797 105.875 93.9825C105.667 94.4853 105.56 95.0242 105.56 95.5682V95.5693C105.56 96.1134 105.667 96.6521 105.875 97.1549C106.083 97.6576 106.388 98.1144 106.772 98.4992C107.157 98.884 107.613 99.1893 108.116 99.3975C108.618 99.6057 109.157 99.7128 109.701 99.7127H138.327C139.427 99.7132 140.481 99.277 141.259 98.4999C142.037 97.7229 142.475 96.6688 142.475 95.5693V95.5682Z" fill="#EFF7FE"/>
<path fill-rule="evenodd" clip-rule="evenodd" d="M98.707 140.156C98.707 139.792 98.5624 139.442 98.3049 139.184C98.0474 138.926 97.6981 138.781 97.3336 138.781H73.5412C73.1768 138.781 72.8275 138.927 72.57 139.184C72.3125 139.442 72.1679 139.792 72.1678 140.156V140.157C72.1679 140.522 72.3125 140.871 72.57 141.129C72.8275 141.387 73.1768 141.532 73.5412 141.533H97.334C97.6984 141.532 98.0477 141.387 98.3052 141.129C98.5627 140.871 98.7073 140.522 98.7073 140.157L98.707 140.156ZM131.209 140.001C131.209 139.637 131.064 139.287 130.807 139.029C130.549 138.771 130.2 138.626 129.835 138.625H106.043C105.679 138.626 105.329 138.771 105.072 139.029C104.814 139.287 104.67 139.637 104.67 140.001V140.002C104.67 140.367 104.814 140.716 105.072 140.974C105.329 141.232 105.679 141.377 106.043 141.378H129.836C130.2 141.377 130.549 141.232 130.807 140.974C131.064 140.716 131.209 140.367 131.209 140.002L131.209 140.001ZM131.208 126.066C131.208 125.886 131.173 125.707 131.105 125.54C131.036 125.373 130.935 125.221 130.807 125.094C130.547 124.836 130.196 124.691 129.83 124.69H74.3138C73.9476 124.691 73.5962 124.835 73.3364 125.094C73.2087 125.221 73.1076 125.373 73.0388 125.54C72.9701 125.707 72.9351 125.886 72.9358 126.066V126.067C72.9351 126.248 72.9701 126.427 73.0389 126.594C73.1076 126.761 73.2087 126.912 73.3364 127.04C73.5963 127.298 73.9476 127.443 74.3138 127.443H129.83C130.196 127.443 130.547 127.298 130.807 127.04C130.935 126.912 131.036 126.76 131.105 126.594C131.173 126.427 131.208 126.248 131.208 126.067V126.066ZM98.707 145.262C98.707 144.897 98.5623 144.548 98.3049 144.29C98.0474 144.032 97.6981 143.886 97.3336 143.886H73.5412C73.1768 143.886 72.8275 144.032 72.57 144.29C72.3125 144.548 72.1679 144.897 72.1678 145.262V145.263C72.1679 145.627 72.3125 145.977 72.57 146.234C72.8275 146.492 73.1768 146.637 73.5412 146.638H97.334C97.6984 146.637 98.0477 146.492 98.3052 146.234C98.5627 145.977 98.7073 145.627 98.7073 145.263L98.707 145.262ZM131.209 145.106C131.209 144.742 131.064 144.392 130.807 144.134C130.549 143.876 130.2 143.731 129.835 143.731H106.043C105.679 143.731 105.329 143.876 105.072 144.134C104.814 144.392 104.67 144.742 104.67 145.106V145.107C104.67 145.472 104.814 145.821 105.072 146.079C105.329 146.337 105.679 146.482 106.043 146.483H129.836C130.2 146.482 130.549 146.337 130.807 146.079C131.064 145.821 131.209 145.472 131.209 145.107L131.209 145.106ZM131.208 131.481C131.208 131.301 131.173 131.122 131.105 130.955C131.036 130.788 130.935 130.636 130.807 130.509C130.547 130.251 130.196 130.106 129.83 130.105H74.3138C73.9476 130.106 73.5962 130.251 73.3364 130.509C73.2087 130.636 73.1076 130.788 73.0388 130.955C72.9701 131.122 72.9351 131.301 72.9358 131.481V131.482C72.9351 131.663 72.9701 131.842 73.0389 132.009C73.1076 132.176 73.2087 132.327 73.3364 132.455C73.5963 132.713 73.9476 132.858 74.3138 132.858H129.83C130.196 132.858 130.547 132.713 130.807 132.455C130.935 132.327 131.036 132.175 131.105 132.009C131.173 131.842 131.208 131.663 131.208 131.482V131.481ZM98.707 150.677C98.707 150.312 98.5623 149.963 98.3049 149.705C98.0474 149.447 97.6981 149.301 97.3336 149.301H73.5412C73.1768 149.301 72.8275 149.447 72.57 149.705C72.3125 149.963 72.1679 150.312 72.1678 150.677V150.678C72.1679 151.042 72.3125 151.392 72.57 151.649C72.8275 151.907 73.1768 152.052 73.5412 152.053H97.334C97.6984 152.052 98.0477 151.907 98.3052 151.649C98.5627 151.392 98.7073 151.042 98.7073 150.678L98.707 150.677ZM131.209 150.521C131.209 150.157 131.064 149.807 130.807 149.549C130.549 149.291 130.2 149.146 129.835 149.146H106.043C105.679 149.146 105.329 149.292 105.072 149.549C104.814 149.807 104.67 150.157 104.67 150.521V150.522C104.67 150.887 104.814 151.236 105.072 151.494C105.329 151.752 105.679 151.897 106.043 151.898H129.836C130.2 151.897 130.549 151.752 130.807 151.494C131.064 151.236 131.209 150.887 131.209 150.522L131.209 150.521Z" fill="#E3F2FE"/>
<path fill-rule="evenodd" clip-rule="evenodd" d="M200.267 67.7197C205.705 67.7197 209.669 72.7266 208.896 79.523C208.346 84.3392 202.468 89.3534 196.651 91.7567C191.627 93.8328 191.6 86.2366 191.6 79.3964C191.6 72.5561 194.833 67.7197 200.267 67.7197Z" fill="url(#paint3_linear_15459_25064)"/>
<path fill-rule="evenodd" clip-rule="evenodd" d="M196.122 103.866C201.35 115.979 166.319 154.789 154.641 153.793C142.961 152.792 126.043 97.8702 126.043 97.8702L121.121 91.4243L134.105 93.0675L133.201 94.83C133.201 94.83 151.511 126.706 156.488 129.092C158.962 130.28 165.412 110.769 179.104 103.01C194.034 94.558 193.132 96.9378 196.122 103.866Z" fill="url(#paint4_linear_15459_25064)"/>
<mask id="mask2_15459_25064" style="mask-type:luminance" maskUnits="userSpaceOnUse" x="121" y="91" width="76" height="63">
<path d="M196.119 103.866C201.347 115.979 166.316 154.789 154.638 153.793C142.958 152.792 126.04 97.8702 126.04 97.8702L121.118 91.4243L134.102 93.0675L133.198 94.83C133.198 94.83 151.508 126.706 156.485 129.092C158.959 130.28 165.409 110.769 179.101 103.01C194.031 94.558 193.129 96.9378 196.119 103.866Z" fill="white"/>
</mask>
<g mask="url(#mask2_15459_25064)">
<path fill-rule="evenodd" clip-rule="evenodd" d="M163.446 111.957C167.302 111.401 173.687 112.441 175.875 116.011C177.129 118.057 176.717 120.494 177.316 122.733C178.65 127.723 183.301 132.519 188.785 132.32C195.496 132.084 197.674 123.105 198.946 118.003C200.65 111.134 202.339 102.324 196.587 96.8604C195.559 95.883 194.38 95.11 193.113 94.4873C191.43 93.6677 189.635 93.105 187.786 92.8182C185.478 92.448 183.074 92.4324 180.77 92.8456C176.982 93.5323 173.46 95.4595 170.529 97.9167C166.732 101.112 163.965 105.053 161.767 109.471L163.446 111.957Z" fill="url(#paint5_linear_15459_25064)"/>
</g>
<path fill-rule="evenodd" clip-rule="evenodd" d="M203.734 95.2104C222.076 96.8241 228.276 97.2298 227.294 131.141C226.304 165.724 180.868 164.509 180.868 164.509C180.868 164.509 187.54 142.879 182.182 124.434C175.704 102.169 190.779 94.0701 203.734 95.2104Z" fill="url(#paint6_linear_15459_25064)"/>
<path fill-rule="evenodd" clip-rule="evenodd" d="M158.896 87.0198C158.896 85.4169 158.259 83.8797 157.125 82.7461C155.992 81.6126 154.455 80.9754 152.852 80.9746H118.472C116.869 80.9746 115.331 81.6116 114.197 82.7453C113.063 83.8791 112.426 85.4168 112.426 87.0202C112.426 88.6236 113.063 90.1614 114.197 91.2951C115.331 92.4289 116.869 93.0659 118.472 93.0659H152.852C154.455 93.065 155.992 92.4277 157.126 91.294C158.259 90.1603 158.896 88.6229 158.896 87.0198Z" fill="#ABDAFF"/>
<path d="M121.404 84.3826V85.2737C121.189 85.2322 120.971 85.2101 120.752 85.2074C120.174 85.2074 119.75 85.3307 119.478 85.5773C119.206 85.8245 119.047 86.2401 119.013 86.8264H119.058C119.291 86.4236 119.681 86.2221 120.231 86.2221C120.701 86.2221 121.075 86.37 121.353 86.6656C121.63 86.9614 121.766 87.3661 121.766 87.8796C121.766 88.4427 121.608 88.8874 121.29 89.2137C120.973 89.5406 120.537 89.7037 119.988 89.7037C119.627 89.7122 119.271 89.6124 118.968 89.4171C118.669 89.2153 118.44 88.9268 118.311 88.5906C118.163 88.2303 118.09 87.7958 118.09 87.2871C118.09 86.3167 118.305 85.582 118.747 85.084C119.189 84.586 119.84 84.3363 120.707 84.3363C120.94 84.3337 121.173 84.3492 121.404 84.3826ZM120.792 87.9067C120.792 87.6331 120.724 87.4227 120.588 87.2756C120.446 87.1283 120.248 87.0547 119.988 87.0547C119.753 87.0471 119.525 87.128 119.347 87.2813C119.268 87.343 119.203 87.4218 119.157 87.5121C119.112 87.6023 119.088 87.7016 119.087 87.8025C119.077 88.0683 119.164 88.3287 119.33 88.536C119.407 88.6233 119.499 88.6944 119.604 88.7451C119.708 88.7957 119.821 88.825 119.937 88.8311C120.052 88.8373 120.168 88.8201 120.277 88.7807C120.386 88.7413 120.486 88.6805 120.571 88.6018C120.718 88.4483 120.792 88.2166 120.792 87.9067ZM126.672 86.8808V86.9074C127.505 87.0111 127.924 87.428 127.924 88.1582C127.924 88.6389 127.749 89.0166 127.386 89.2912C127.029 89.5659 126.514 89.7037 125.845 89.7037C125.273 89.7037 124.775 89.6094 124.35 89.421V88.4914C124.796 88.7097 125.286 88.8262 125.783 88.8324C126.163 88.8324 126.446 88.7729 126.633 88.6539C126.725 88.5961 126.8 88.5146 126.85 88.4179C126.899 88.3213 126.922 88.2131 126.916 88.1045C126.916 87.8281 126.808 87.6332 126.599 87.52C126.389 87.4067 126.055 87.3494 125.59 87.3494H125.148V86.5323H125.567C125.975 86.5323 126.281 86.4796 126.491 86.3737C126.7 86.2677 126.808 86.0808 126.808 85.8123C126.811 85.7284 126.796 85.6447 126.763 85.5676C126.729 85.4905 126.679 85.4219 126.615 85.3671C126.491 85.2611 126.292 85.2079 126.026 85.2079C125.83 85.2085 125.635 85.2393 125.448 85.2991C125.236 85.3707 125.035 85.469 124.848 85.5914L124.355 84.8442C124.871 84.515 125.47 84.339 126.083 84.3366C126.615 84.3366 127.034 84.4484 127.34 84.672C127.487 84.7737 127.605 84.9104 127.685 85.0697C127.766 85.229 127.805 85.4058 127.799 85.584C127.805 85.8863 127.701 86.1804 127.504 86.4105C127.312 86.6361 127.029 86.793 126.672 86.8808ZM133.102 86.8729C133.487 87.074 133.764 87.2892 133.94 87.5175C134.145 87.7877 134.235 88.1282 134.189 88.4644C134.143 88.8005 133.966 89.1048 133.696 89.3104C133.357 89.5727 132.915 89.7036 132.377 89.7036C131.799 89.7036 131.346 89.5795 131.023 89.332C130.705 89.0839 130.541 88.7405 130.541 88.3015C130.537 88.0146 130.624 87.7338 130.79 87.5C130.949 87.2705 131.204 87.0728 131.544 86.9074C130.983 86.559 130.7 86.1228 130.7 85.5988C130.696 85.4185 130.736 85.2399 130.818 85.0793C130.901 84.9186 131.021 84.781 131.17 84.6787C131.481 84.4504 131.884 84.3361 132.377 84.3359C132.869 84.3359 133.272 84.4492 133.578 84.6753C133.726 84.78 133.846 84.9199 133.927 85.0824C134.008 85.245 134.048 85.425 134.042 85.6066C134.042 86.1489 133.725 86.5709 133.102 86.8729ZM132.377 86.4471C132.643 86.3361 132.824 86.2205 132.926 86.1004C133.026 85.985 133.08 85.8369 133.079 85.6841C133.082 85.6069 133.066 85.5302 133.032 85.4606C132.999 85.3911 132.949 85.3308 132.886 85.2853C132.733 85.1807 132.55 85.129 132.365 85.138C132.186 85.1306 132.009 85.1808 131.861 85.2813C131.798 85.3271 131.747 85.3879 131.714 85.4583C131.68 85.5286 131.664 85.6062 131.668 85.6841C131.667 85.8374 131.723 85.9856 131.827 86.0987C131.985 86.2499 132.172 86.3683 132.377 86.4469V86.4471ZM132.314 87.3261C131.77 87.5555 131.498 87.8601 131.499 88.2399C131.494 88.3334 131.513 88.4266 131.552 88.5115C131.591 88.5963 131.651 88.6704 131.725 88.7274C131.872 88.8463 132.088 88.906 132.36 88.906C132.643 88.906 132.858 88.8482 133.011 88.7338C133.086 88.6775 133.146 88.6038 133.185 88.519C133.225 88.4343 133.243 88.3411 133.238 88.2477C133.234 88.081 133.167 87.9219 133.051 87.8025C132.92 87.6625 132.711 87.5216 132.422 87.3799L132.314 87.3261ZM140.46 89.626H136.818V88.8553L138.172 87.5156C138.676 87.0148 138.993 86.6676 139.118 86.4739C139.239 86.2967 139.306 86.088 139.31 85.8734C139.315 85.7867 139.301 85.7001 139.269 85.6195C139.236 85.539 139.187 85.4665 139.123 85.4072C138.989 85.2893 138.814 85.2287 138.636 85.2383C138.43 85.2385 138.226 85.2799 138.036 85.3601C137.793 85.4698 137.567 85.6112 137.362 85.7805L136.801 85.0798C137.008 84.9185 137.225 84.7717 137.452 84.6403C137.626 84.545 137.81 84.4715 138.002 84.4216C138.218 84.3632 138.441 84.3344 138.664 84.3361C139.157 84.3361 139.554 84.4703 139.854 84.7389C140 84.8661 140.117 85.024 140.195 85.2015C140.274 85.3789 140.312 85.5714 140.307 85.7653C140.307 86.0148 140.257 86.2618 140.16 86.4916C140.049 86.7449 139.898 86.9788 139.712 87.1844C139.424 87.51 139.117 87.8195 138.795 88.1114L138.183 88.6806V88.7232H140.46L140.46 89.626ZM143.349 89.6571V88.7626C143.563 88.8115 143.782 88.8349 144.001 88.8323C144.584 88.8323 145.015 88.7053 145.292 88.4511C145.57 88.197 145.717 87.7736 145.74 87.1827H145.695C145.559 87.4178 145.4 87.581 145.207 87.6727C144.987 87.7707 144.746 87.8176 144.505 87.8101C144.029 87.8101 143.655 87.6611 143.389 87.3631C143.117 87.0646 142.981 86.6482 142.981 86.114C142.981 85.564 143.14 85.1306 143.463 84.8128C143.78 84.4956 144.216 84.3364 144.754 84.3364C145.343 84.3364 145.808 84.5456 146.148 84.964C146.493 85.3821 146.663 85.9775 146.663 86.7494C146.663 87.7124 146.442 88.4455 146.006 88.9491C145.57 89.4526 144.919 89.7044 144.052 89.7044C143.817 89.7074 143.582 89.6915 143.349 89.6571ZM143.955 86.0984C143.955 86.6842 144.222 86.9774 144.749 86.9774C144.987 86.9851 145.219 86.9037 145.4 86.7491C145.48 86.6876 145.544 86.6091 145.59 86.5193C145.635 86.4295 145.659 86.3307 145.661 86.2301C145.666 85.9701 145.58 85.7164 145.417 85.5135C145.342 85.4242 145.249 85.3511 145.145 85.2988C145.041 85.2464 144.927 85.2159 144.81 85.2091C144.693 85.2022 144.577 85.2192 144.467 85.259C144.357 85.2988 144.256 85.3605 144.171 85.4405C144.029 85.5949 143.955 85.8141 143.955 86.0984ZM151.076 89.7036C150.476 89.7036 150.023 89.4778 149.717 89.0261C149.411 88.5745 149.258 87.9096 149.258 87.0315C149.258 86.1228 149.411 85.4464 149.711 85.0023C150.011 84.5581 150.47 84.3362 151.076 84.3362C152.289 84.3362 152.9 85.2324 152.9 87.0242C152.9 87.9561 152.747 88.6353 152.453 89.063C152.153 89.4901 151.694 89.7036 151.076 89.7036ZM151.076 88.8323C151.371 88.8323 151.58 88.6909 151.705 88.408C151.836 88.1253 151.898 87.6643 151.898 87.0241C151.898 86.3732 151.835 85.9081 151.705 85.6277C151.58 85.3479 151.371 85.2078 151.076 85.2074C150.984 85.2026 150.893 85.2182 150.807 85.2531C150.722 85.288 150.646 85.3412 150.583 85.4091C150.464 85.5433 150.379 85.7421 150.328 86.0055C150.275 86.3449 150.251 86.6881 150.255 87.0315C150.255 87.6665 150.323 88.1253 150.447 88.408C150.578 88.6907 150.787 88.8321 151.076 88.8323Z" fill="black"/>
<path fill-rule="evenodd" clip-rule="evenodd" d="M131.346 93.0658C131.289 92.3917 132.745 90.0629 133.351 89.7037C133.935 89.3594 134.92 90.2385 134.983 90.9123C135.039 91.5865 134.303 93.3885 133.697 93.7471C133.091 94.1056 131.403 93.7394 131.346 93.0658Z" fill="#9AD1FB"/>
<path fill-rule="evenodd" clip-rule="evenodd" d="M200.842 67.7199C200.842 67.7199 202.032 70.349 201.171 72.4211C200.944 72.9678 200.412 73.3672 199.981 73.7632C198.877 74.767 197.489 75.3014 196.294 76.1543C195.937 76.4047 195.178 76.8902 195.223 77.4113C195.285 78.0192 196.481 77.7337 196.809 77.6357C198.101 77.2493 199.121 76.7921 199.818 77.8441C200.526 78.9182 199.959 81.5597 199.228 83.3493C199.098 83.6665 198.509 85.011 199.183 85.1456C199.619 85.2311 200.004 84.7252 200.242 84.4409C200.928 83.6059 201.109 80.7564 201.789 79.9124C202.106 79.5215 202.593 79.0757 203.046 79.7809C204.44 81.9577 203.035 84.1984 201.483 84.9444C199.614 85.8474 199.376 90.3986 199.376 90.3986C199.376 90.3986 203.432 91.6693 204.689 88.4057C206.916 89.1807 211.136 88.6493 211.108 84.3581C215.107 82.7001 216.942 76.4234 213.192 74.252C213.736 73.9875 214.07 73.2142 214.218 72.6789C215.753 67.2678 209.425 61.1991 203.466 64.5923C202.151 65.3401 201.194 66.3042 200.842 67.7199Z" fill="url(#paint7_linear_15459_25064)"/>
<path d="M144.798 197.085C156.006 197.085 165.092 187.999 165.092 176.791C165.092 165.583 156.006 156.497 144.798 156.497C133.59 156.497 124.504 165.583 124.504 176.791C124.504 187.999 133.59 197.085 144.798 197.085Z" fill="url(#paint8_linear_15459_25064)"/>
<path fill-rule="evenodd" clip-rule="evenodd" d="M132.905 178.563L139.624 186.941C139.899 187.285 140.251 187.56 140.652 187.744C141.053 187.928 141.491 188.016 141.931 188.001C142.372 187.986 142.803 187.868 143.19 187.657C143.577 187.446 143.91 187.147 144.161 186.785L156.709 168.704C157.137 168.087 157.302 167.324 157.169 166.585C157.035 165.845 156.613 165.189 155.995 164.761C155.378 164.333 154.615 164.167 153.876 164.301C153.137 164.435 152.481 164.857 152.052 165.474L141.669 180.437L137.324 175.019C136.852 174.437 136.17 174.066 135.426 173.986C134.681 173.906 133.936 174.124 133.352 174.593C132.768 175.061 132.393 175.741 132.309 176.485C132.226 177.229 132.44 177.976 132.905 178.562V178.563Z" fill="white"/>
<path fill-rule="evenodd" clip-rule="evenodd" d="M218.366 99.0814C231.509 100.235 250.679 146.519 242.595 159.3C234.506 172.081 183.482 173.401 169.852 175.767C159.497 184.813 155.265 173.56 156.75 173.545C163.344 173.479 163.168 168.19 163.168 168.19C163.168 168.19 163.276 167.637 161.412 165.387C163.468 163.94 168.062 168.117 168.062 168.117C168.062 168.117 217.273 149.187 221.737 145.942C223.958 144.329 210.096 129.377 209.529 113.65C209.337 108.26 210.849 98.4214 218.366 99.0814Z" fill="url(#paint9_linear_15459_25064)"/>
<mask id="mask3_15459_25064" style="mask-type:luminance" maskUnits="userSpaceOnUse" x="156" y="99" width="89" height="81">
<path d="M218.367 99.0814C231.509 100.235 250.679 146.519 242.596 159.3C234.506 172.081 183.483 173.401 169.853 175.767C159.498 184.813 155.266 173.56 156.75 173.545C163.344 173.479 163.169 168.19 163.169 168.19C163.169 168.19 163.276 167.637 161.412 165.387C163.469 163.94 168.063 168.117 168.063 168.117C168.063 168.117 217.274 149.187 221.738 145.942C223.958 144.329 210.096 129.377 209.53 113.65C209.337 108.26 210.85 98.4214 218.367 99.0814Z" fill="white"/>
</mask>
<g mask="url(#mask3_15459_25064)">
<path fill-rule="evenodd" clip-rule="evenodd" d="M209.968 131.676C211.31 128.019 215.259 122.895 219.439 122.665C221.836 122.533 223.784 124.053 226.039 124.59C231.064 125.787 237.493 123.972 239.924 119.052C242.903 113.034 236.038 106.852 232.151 103.31C226.917 98.5466 219.966 92.8754 212.426 95.3414C211.078 95.7816 209.838 96.4522 208.688 97.2719C207.167 98.3628 205.819 99.6756 204.688 101.167C203.266 103.021 202.111 105.129 201.38 107.353C200.185 111.013 200.207 115.028 200.978 118.773C201.986 123.633 204.139 127.94 206.982 131.973L209.968 131.676Z" fill="url(#paint10_linear_15459_25064)"/>
</g>
<defs>
<linearGradient id="paint0_linear_15459_25064" x1="33.4552" y1="68.7976" x2="85.6341" y2="157.994" gradientUnits="userSpaceOnUse">
<stop stop-color="#DBECF9"/>
<stop offset="0.61" stop-color="#C1E1FA"/>
<stop offset="0.82" stop-color="#85C7FB"/>
<stop offset="1" stop-color="#46ADFD"/>
</linearGradient>
<linearGradient id="paint1_linear_15459_25064" x1="90.9891" y1="94.9081" x2="80.1596" y2="114.464" gradientUnits="userSpaceOnUse">
<stop stop-color="#AADAFF"/>
<stop offset="1" stop-color="#0080E3"/>
</linearGradient>
<linearGradient id="paint2_linear_15459_25064" x1="96.4887" y1="79.5472" x2="85.0521" y2="102.121" gradientUnits="userSpaceOnUse">
<stop stop-color="#AADAFF"/>
<stop offset="1" stop-color="#0080E3"/>
</linearGradient>
<linearGradient id="paint3_linear_15459_25064" x1="193.144" y1="70.4228" x2="207.999" y2="92.9298" gradientUnits="userSpaceOnUse">
<stop stop-color="#9AD1FB"/>
<stop offset="0.64" stop-color="#86C8FC"/>
<stop offset="0.84" stop-color="#50B1FD"/>
<stop offset="1" stop-color="#1297FF"/>
</linearGradient>
<linearGradient id="paint4_linear_15459_25064" x1="158.66" y1="103.824" x2="187.591" y2="153.258" gradientUnits="userSpaceOnUse">
<stop stop-color="#9AD1FB"/>
<stop offset="0.63" stop-color="#84C7FC"/>
<stop offset="0.83" stop-color="#4EB0FD"/>
<stop offset="1" stop-color="#1297FF"/>
</linearGradient>
<linearGradient id="paint5_linear_15459_25064" x1="179.253" y1="103.344" x2="193.712" y2="129.72" gradientUnits="userSpaceOnUse">
<stop stop-color="#205D8C"/>
<stop offset="0.54" stop-color="#1A537F"/>
<stop offset="1" stop-color="#053051"/>
</linearGradient>
<linearGradient id="paint6_linear_15459_25064" x1="183.955" y1="106.731" x2="218.578" y2="156.19" gradientUnits="userSpaceOnUse">
<stop stop-color="#205D8C"/>
<stop offset="0.51" stop-color="#19527E"/>
<stop offset="1" stop-color="#053051"/>
</linearGradient>
<linearGradient id="paint7_linear_15459_25064" x1="199.576" y1="88.9015" x2="213.136" y2="63.1847" gradientUnits="userSpaceOnUse">
<stop/>
<stop offset="1" stop-color="#4D4D4D"/>
</linearGradient>
<linearGradient id="paint8_linear_15459_25064" x1="152.96" y1="157.402" x2="133.184" y2="204.499" gradientUnits="userSpaceOnUse">
<stop stop-color="#AADAFF"/>
<stop offset="0.6" stop-color="#92CFFF"/>
<stop offset="0.81" stop-color="#5BB7FF"/>
<stop offset="1" stop-color="#229EFF"/>
</linearGradient>
<linearGradient id="paint9_linear_15459_25064" x1="199.328" y1="152.458" x2="205.06" y2="190.558" gradientUnits="userSpaceOnUse">
<stop stop-color="#9AD1FB"/>
<stop offset="0.47" stop-color="#75C1FC"/>
<stop offset="1" stop-color="#1297FF"/>
</linearGradient>
<linearGradient id="paint10_linear_15459_25064" x1="225.223" y1="98.674" x2="213.726" y2="135.894" gradientUnits="userSpaceOnUse">
<stop stop-color="#205D8C"/>
<stop offset="0.49" stop-color="#19517D"/>
<stop offset="1" stop-color="#053051"/>
</linearGradient>
</defs>
</svg>

