<svg width="25" height="24" viewBox="0 0 25 24" fill="none" xmlns="http://www.w3.org/2000/svg">
<rect opacity="0.12" x="2.5" y="8" width="20" height="14" rx="4" fill="#0169BA"/>
<path fill-rule="evenodd" clip-rule="evenodd" d="M13.25 2C13.25 1.58579 12.9142 1.25 12.5 1.25C12.0858 1.25 11.75 1.58579 11.75 2V15.1893L9.03031 12.4697C8.73742 12.1768 8.26254 12.1768 7.96965 12.4697C7.67676 12.7626 7.67676 13.2374 7.96965 13.5303L11.9696 17.5303C12.1103 17.671 12.3011 17.75 12.5 17.75C12.6989 17.75 12.8897 17.671 13.0303 17.5303L17.0303 13.5303C17.3232 13.2374 17.3232 12.7626 17.0303 12.4697C16.7374 12.1768 16.2625 12.1768 15.9697 12.4697L13.25 15.1893V2ZM7.99998 7.25L7.85697 7.24998C6.59885 7.2497 5.79694 7.24953 5.1211 7.45455C3.60301 7.91506 2.41503 9.10305 1.95452 10.6211C1.7495 11.297 1.74968 12.0989 1.74996 13.357L1.74998 13.5V15.6L1.74998 15.633C1.74997 16.7252 1.74997 17.5907 1.80697 18.2883C1.86525 19.0017 1.98686 19.6053 2.2677 20.1565C2.7231 21.0502 3.44975 21.7769 4.34352 22.2323C4.8947 22.5131 5.49832 22.6347 6.21171 22.693C6.90934 22.75 7.77485 22.75 8.86701 22.75H8.89998H16.1H16.133C17.2251 22.75 18.0906 22.75 18.7882 22.693C19.5016 22.6347 20.1053 22.5131 20.6564 22.2323C21.5502 21.7769 22.2769 21.0502 22.7323 20.1565C23.0131 19.6053 23.1347 19.0017 23.193 18.2883C23.25 17.5907 23.25 16.7252 23.25 15.6331V15.633V15.6V13.5L23.25 13.357V13.357C23.2503 12.0989 23.2505 11.297 23.0454 10.6211C22.5849 9.10305 21.3969 7.91507 19.8789 7.45455C19.203 7.24953 18.4011 7.2497 17.143 7.24998L17 7.25L17 8L17 7.25L16.5 7.25002C16.0857 7.25003 15.75 7.58583 15.75 8.00004C15.75 8.41426 16.0858 8.75003 16.5 8.75002L17 8.75H17C18.4501 8.75001 19.0089 8.75815 19.4434 8.88996C20.4821 9.20505 21.2949 10.0179 21.61 11.0566C21.7418 11.4911 21.75 12.0499 21.75 13.5V15.6C21.75 16.7325 21.7494 17.5368 21.698 18.1661C21.6473 18.7868 21.5509 19.171 21.3958 19.4755C21.0842 20.087 20.587 20.5842 19.9754 20.8958C19.671 21.0509 19.2867 21.1473 18.6661 21.198C18.0367 21.2494 17.2325 21.25 16.1 21.25H8.89998C7.7675 21.25 6.96324 21.2494 6.33386 21.198C5.71323 21.1473 5.32898 21.0509 5.02451 20.8958C4.41298 20.5842 3.9158 20.087 3.60421 19.4755C3.44907 19.171 3.35269 18.7868 3.30199 18.1661C3.25056 17.5368 3.24998 16.7325 3.24998 15.6V13.5C3.24998 12.0499 3.25812 11.4911 3.38993 11.0566C3.70501 10.0179 4.51784 9.20505 5.55654 8.88995C5.99103 8.75815 6.54983 8.75 7.99995 8.75H7.99998L8.49995 8.75002C8.91417 8.75003 9.24997 8.41426 9.24998 8.00004C9.24999 7.58583 8.91422 7.25003 8.50001 7.25002L8.00001 7.25L7.99998 8L7.99998 7.25Z" fill="#0169BA"/>
</svg>





