<svg width="48" height="48" viewBox="0 0 48 48" fill="none" xmlns="http://www.w3.org/2000/svg">
<rect width="48" height="48" rx="24" fill="#0000FF" fill-opacity="0.12"/>
<path d="M27.3342 38C23.1921 38 19.3902 36.5651 17.1601 34.1574C15.7696 32.6559 15.1039 30.914 15.2407 29.1166C15.3775 27.3192 16.3946 26.0137 17.7075 24.5233C18.6173 23.4952 18.817 22.8036 18.7134 22.5003C18.5766 22.1305 17.8406 21.8309 17.4338 21.7607C14.575 21.7385 12.0971 20.8213 10.7768 19.2939C10.4175 18.9022 10.1498 18.4356 9.99304 17.9277C9.83633 17.4198 9.79455 16.8834 9.87073 16.3574C10.2849 13.6909 13.8094 11.679 18.0662 11.679C22.408 11.679 25.7143 13.7575 25.7587 16.509C25.777 17.4988 25.4112 18.4572 24.738 19.1829C23.9355 20.0631 23.8097 20.6623 23.8763 20.7991C23.8763 20.7991 24.1758 21.4389 26.7906 21.5129C33.0999 21.6941 38.1518 24.8636 38.799 29.0464C38.9334 29.9633 38.862 30.8986 38.5902 31.7845C38.3183 32.6705 37.8528 33.4848 37.2272 34.1685C35.171 36.5614 31.4689 38 27.3342 38ZM18.0884 13.8832C14.8043 13.8832 12.2894 15.3626 12.086 16.6829C12.0605 16.8926 12.0829 17.1054 12.1514 17.3052C12.2199 17.5051 12.3329 17.6868 12.4817 17.8367C13.3509 18.8649 15.3369 19.5306 17.5152 19.5306H17.689C17.9405 19.5713 20.1484 19.967 20.7845 21.7496C21.2283 22.9848 20.7475 24.4124 19.3532 25.9915C18.2437 27.2416 17.5041 28.1477 17.4338 29.2831C17.4126 29.9052 17.5203 30.5249 17.75 31.1035C17.9798 31.682 18.3267 32.2068 18.7689 32.6448C20.5885 34.6049 23.7838 35.7773 27.3157 35.7773C30.8476 35.7773 33.8876 34.6271 35.5371 32.704C35.9467 32.2605 36.2542 31.7327 36.4382 31.1577C36.6222 30.5827 36.6782 29.9744 36.6022 29.3755C36.1251 26.2985 31.8794 23.8687 26.7203 23.7208C23.9835 23.6431 22.3822 22.9811 21.8274 21.6534C21.3429 20.5143 21.7867 19.109 23.0737 17.6999C23.2237 17.5459 23.3414 17.3635 23.4201 17.1635C23.4989 16.9635 23.537 16.7498 23.5323 16.5349C23.5286 15.2775 21.2764 13.8832 18.0773 13.8832H18.0884ZM33.0814 14.2198L31.3025 10L29.7307 14.2198H30.855V15.5475H31.9608V14.2198H33.0814ZM37.2753 20.322L34.827 14.5194L32.6672 20.322H34.2094V22.149H35.7294V20.322H37.2753ZM13.7429 28.4731L11.2983 22.6742L9.13477 28.4731H10.6807V30.3038H12.197V28.4731H13.7429ZM15.6549 35.8661L13.6689 31.1581L11.9159 35.8661H13.1696V37.3454H14.4012V35.8661H15.6549ZM29.7307 18.728L28.1072 14.8744L26.6685 18.728H27.6966V19.9448H28.7026V18.728H29.7307ZM28.2403 34.6086C28.1189 34.6087 27.9986 34.5848 27.8864 34.5383C27.7742 34.4918 27.6723 34.4237 27.5864 34.3379C27.5005 34.252 27.4324 34.1501 27.386 34.0379C27.3395 33.9257 27.3156 33.8055 27.3156 33.6841C27.3156 33.5626 27.3395 33.4424 27.386 33.3302C27.4324 33.218 27.5005 33.1161 27.5864 33.0302C27.6723 32.9444 27.7742 32.8763 27.8864 32.8298C27.9986 32.7834 28.1189 32.7595 28.2403 32.7595C31.0436 32.7595 33.503 31.3985 33.503 29.8489C33.4886 29.4401 33.3346 29.0485 33.0666 28.7394C32.9136 28.5476 32.843 28.303 32.8704 28.0592C32.8978 27.8154 33.0209 27.5925 33.2127 27.4394C33.4045 27.2864 33.6491 27.2159 33.8929 27.2433C34.1367 27.2706 34.3596 27.3938 34.5127 27.5855C35.0442 28.2254 35.3405 29.0282 35.3522 29.86C35.3485 32.5154 32.2271 34.6086 28.2403 34.6086Z" fill="#0000FF"/>
</svg>

