<svg width="28" height="28" viewBox="0 0 28 28" fill="none" xmlns="http://www.w3.org/2000/svg">
<g clip-path="url(#clip0_15629_13041)">
<rect width="28" height="28" rx="4.47961" fill="#1D4339"/>
<g filter="url(#filter0_f_15629_13041)">
<circle cx="1.09848" cy="0.214936" r="11.338" fill="#3C826E"/>
</g>
<g filter="url(#filter1_f_15629_13041)">
<circle cx="22.0142" cy="-2.05223" r="14.4829" fill="#E7A465"/>
</g>
<g filter="url(#filter2_f_15629_13041)">
<circle cx="32.2376" cy="3.49564" r="10.5035" fill="#CB8752"/>
</g>
<path d="M14.0846 22.0989C14.7419 22.0933 15.3958 22.0033 16.0303 21.8312L13.9814 19.7776C13.8352 19.8619 12.4007 21.267 11.9337 21.8035C12.2586 21.9385 12.5946 21.9757 12.926 22.0217C13.2574 22.0677 13.5864 22.0806 13.959 22.1142C13.8688 22.2009 13.8045 22.2681 13.7349 22.3294C12.9773 22.9939 12.1218 23.4703 11.1277 23.6808C10.1139 23.9029 9.05657 23.8108 8.09651 23.4167C6.3896 22.7263 5.17206 21.5193 4.54589 19.7859C3.85723 17.8797 4.21984 16.1203 5.45978 14.5319C5.57417 14.3857 5.70093 14.2483 5.82357 14.1085C5.85346 14.0856 5.88567 14.0658 5.91968 14.0496C5.91581 14.6718 5.98788 15.2921 6.1343 15.8968C6.14786 15.9528 6.16849 16.0071 6.18029 16.0442L8.21738 14.0059C7.56646 13.3509 6.89135 12.6711 6.2192 11.9948C6.11248 12.1451 6.03819 12.4293 5.98689 12.947C5.95447 13.2772 5.92793 13.6085 5.89786 13.9759C5.81768 13.8933 5.75046 13.8296 5.68973 13.7607C5.04706 13.0378 4.5736 12.22 4.3525 11.2743C4.03824 9.92703 4.23458 8.63933 4.89317 7.4324C5.64079 6.06392 6.74926 5.08458 8.21444 4.54332C9.75744 3.97198 11.2545 4.10877 12.689 4.91949C13.0987 5.15224 13.4798 5.43203 13.8246 5.75319C13.8747 5.79918 13.9301 5.83869 14.0014 5.8947C14.0675 5.83574 14.1335 5.78267 14.1942 5.7243C14.9956 4.9296 16.0432 4.43067 17.1653 4.30924C19.0055 4.09993 20.6115 4.64532 21.993 5.85814C23.0077 6.74904 23.6109 7.87755 23.7424 9.21891C23.9004 10.8356 23.5124 12.3132 22.4706 13.5903C22.3833 13.697 22.2937 13.799 22.2005 13.9016C22.1692 13.93 22.1361 13.9564 22.1015 13.9806C22.0696 13.6268 22.0425 13.2913 22.0089 12.96C21.9812 12.6278 21.916 12.2999 21.8143 11.9824C21.6316 12.0974 20.0455 13.6628 19.7643 14.0006C19.8822 14.1834 21.575 15.8874 21.8132 16.0601C22.0083 15.4057 22.0761 14.7382 22.0755 14.0278C22.2961 14.197 22.4328 14.3874 22.5767 14.5702C23.1433 15.2907 23.5407 16.092 23.7058 16.9988C23.8989 17.9976 23.7904 19.0312 23.3939 19.9681C22.6221 21.7894 21.2967 23.034 19.3899 23.5865C17.6606 24.0877 16.0745 23.7091 14.6435 22.6384C14.479 22.5158 14.3281 22.3743 14.1677 22.2451C14.1259 22.2177 14.0813 22.1949 14.0345 22.1773L14.0846 22.0989ZM15.9813 10.4836L15.9448 10.5331C15.9584 10.5597 15.9707 10.5856 15.9843 10.6116C15.9979 10.6375 16.015 10.6617 16.0291 10.6876C16.3085 11.1666 16.4007 11.732 16.2879 12.2749C16.1004 13.2247 15.3475 14.1026 14.2786 14.2353C14.1017 14.2571 13.9248 14.2471 13.7509 14.263C13.1082 14.322 12.62 14.6233 12.314 15.1964C12.0988 15.5969 12.0247 16.0581 12.1035 16.5059C12.2432 17.3803 12.9289 18.0017 13.8134 18.043C14.4124 18.0711 15.0103 17.9669 15.5645 17.7376C16.5261 17.3449 17.239 16.6951 17.6435 15.7329C18.1004 14.6445 18.1151 13.5425 17.7024 12.4376C17.4417 11.722 16.9591 11.1084 16.3251 10.6864C16.216 10.6122 16.0975 10.5502 15.9831 10.483L15.9813 10.4836ZM11.913 17.4546C11.63 16.9988 11.5386 16.5112 11.5734 15.9882C11.6395 14.9965 12.3399 13.9087 13.7096 13.7825C13.9442 13.7706 14.1778 13.7434 14.4089 13.7011C15.1677 13.5284 15.8534 12.7825 15.8345 11.8433C15.8276 11.4183 15.6788 11.0079 15.4117 10.6773C15.1445 10.3467 14.7745 10.115 14.3605 10.019C14.0468 9.94295 13.7391 9.97774 13.4266 10.019C12.4454 10.1557 11.5491 10.6493 10.909 11.4055C10.269 12.1616 9.93014 13.1271 9.95732 14.1174C9.98503 15.3137 10.4815 16.3143 11.3924 17.0996C11.5499 17.2418 11.7265 17.3611 11.9172 17.454L11.913 17.4546ZM16.0244 6.19776C14.6981 5.86789 13.3113 5.86668 11.9844 6.19422C12.6707 6.88052 13.3442 7.55445 14.005 8.21599L16.0244 6.19776Z" fill="url(#paint0_linear_15629_13041)"/>
<path d="M13.453 16.1363C13.4514 16.0702 13.4633 16.0045 13.4879 15.9431C13.5126 15.8817 13.5496 15.8261 13.5965 15.7795C13.6435 15.7329 13.6995 15.6964 13.761 15.6723C13.8226 15.6481 13.8885 15.6368 13.9546 15.6389C14.0875 15.6432 14.2135 15.6991 14.3059 15.7947C14.3983 15.8903 14.4498 16.0181 14.4496 16.1511C14.4506 16.2196 14.4377 16.2876 14.4115 16.3509C14.3853 16.4142 14.3465 16.4715 14.2974 16.5193C14.2482 16.5671 14.1899 16.6044 14.1259 16.6288C14.0619 16.6532 13.9936 16.6643 13.9251 16.6614C13.6393 16.6497 13.4477 16.4363 13.453 16.1363Z" fill="url(#paint1_linear_15629_13041)"/>
<path d="M13.4513 11.8777C13.4454 11.573 13.6322 11.3738 13.9304 11.3673C14.2287 11.3609 14.4414 11.5542 14.4532 11.8435C14.4569 11.9122 14.4467 11.9809 14.4231 12.0455C14.3994 12.1101 14.3629 12.1693 14.3157 12.2193C14.2686 12.2694 14.2117 12.3093 14.1486 12.3367C14.0855 12.3641 14.0175 12.3784 13.9487 12.3787C13.6611 12.381 13.4566 12.1753 13.4513 11.8777Z" fill="url(#paint2_linear_15629_13041)"/>
</g>
<defs>
<filter id="filter0_f_15629_13041" x="-18.0795" y="-18.963" width="38.356" height="38.3558" filterUnits="userSpaceOnUse" color-interpolation-filters="sRGB">
<feFlood flood-opacity="0" result="BackgroundImageFix"/>
<feBlend mode="normal" in="SourceGraphic" in2="BackgroundImageFix" result="shape"/>
<feGaussianBlur stdDeviation="3.92" result="effect1_foregroundBlur_15629_13041"/>
</filter>
<filter id="filter1_f_15629_13041" x="-0.308749" y="-24.3752" width="44.6458" height="44.6468" filterUnits="userSpaceOnUse" color-interpolation-filters="sRGB">
<feFlood flood-opacity="0" result="BackgroundImageFix"/>
<feBlend mode="normal" in="SourceGraphic" in2="BackgroundImageFix" result="shape"/>
<feGaussianBlur stdDeviation="3.92" result="effect1_foregroundBlur_15629_13041"/>
</filter>
<filter id="filter2_f_15629_13041" x="13.8941" y="-14.8478" width="36.6868" height="36.6878" filterUnits="userSpaceOnUse" color-interpolation-filters="sRGB">
<feFlood flood-opacity="0" result="BackgroundImageFix"/>
<feBlend mode="normal" in="SourceGraphic" in2="BackgroundImageFix" result="shape"/>
<feGaussianBlur stdDeviation="3.92" result="effect1_foregroundBlur_15629_13041"/>
</filter>
<linearGradient id="paint0_linear_15629_13041" x1="14.0001" y1="4.19531" x2="14.0001" y2="23.8052" gradientUnits="userSpaceOnUse">
<stop stop-color="white"/>
<stop offset="1" stop-color="#E7E8E9"/>
</linearGradient>
<linearGradient id="paint1_linear_15629_13041" x1="13.9513" y1="15.6387" x2="13.9513" y2="16.6619" gradientUnits="userSpaceOnUse">
<stop stop-color="white"/>
<stop offset="1" stop-color="#E7E8E9"/>
</linearGradient>
<linearGradient id="paint2_linear_15629_13041" x1="13.9526" y1="11.3672" x2="13.9526" y2="12.3787" gradientUnits="userSpaceOnUse">
<stop stop-color="white"/>
<stop offset="1" stop-color="#E7E8E9"/>
</linearGradient>
<clipPath id="clip0_15629_13041">
<rect width="28" height="28" rx="4.47961" fill="white"/>
</clipPath>
</defs>
</svg>






