<svg width="28" height="28" viewBox="0 0 28 28" fill="none" xmlns="http://www.w3.org/2000/svg">
<rect width="28" height="28" rx="4.47961" fill="url(#paint0_linear_15629_13023)"/>
<path d="M23.8085 12.6539C22.3224 12.6627 20.8737 12.6539 19.4255 12.6539C17.9773 12.6539 16.5423 12.6539 15.0754 12.6539C14.0483 14.555 13.025 16.4484 11.9946 18.3544H8.72542L13.3006 9.86343H19.5589C19.4639 9.7229 19.4123 9.63341 19.3481 9.55436C18.3248 8.28623 16.9963 7.52315 15.4086 7.20914C13.7193 6.87846 11.9673 7.18152 10.4872 8.06046C9.00705 8.93941 7.90245 10.3327 7.38427 11.9742C6.13645 15.9269 8.71773 20.1809 12.8065 20.8644C15.3949 21.2975 17.5749 20.4921 19.3453 18.563C19.3887 18.5158 19.4277 18.4648 19.4667 18.4148C19.4847 18.3828 19.5004 18.3496 19.5139 18.3155C18.0223 18.3116 16.5538 18.3155 15.0123 18.3116C15.5613 17.313 16.0811 16.3759 16.6016 15.4322H23.7932C23.7849 15.553 23.786 15.6518 23.7712 15.7446C23.1366 19.6577 20.0135 22.7605 16.2266 23.6103C11.2974 24.7176 6.26656 21.8876 4.6899 17.1028C2.81735 11.4198 6.39886 5.58746 12.0335 4.43297C16.8234 3.4514 21.4452 5.97504 23.2875 10.5551C23.4907 11.0602 23.6197 11.5982 23.7668 12.1225C23.8113 12.274 23.7948 12.442 23.8085 12.6539Z" fill="white"/>
<defs>
<linearGradient id="paint0_linear_15629_13023" x1="3.9941e-07" y1="14" x2="28" y2="14" gradientUnits="userSpaceOnUse">
<stop stop-color="#A234FF"/>
<stop offset="1" stop-color="#6872FA"/>
</linearGradient>
</defs>
</svg>







