<svg width="28" height="28" viewBox="0 0 28 28" fill="none" xmlns="http://www.w3.org/2000/svg">
<rect width="28" height="28" rx="4.47961" fill="url(#paint0_linear_15629_13059)"/>
<path d="M9.2843 15.7714C9.27981 15.1479 9.39947 14.5297 9.6363 13.9529C9.87314 13.3761 10.2224 12.8522 10.6638 12.4118C11.1051 11.9714 11.6297 11.6232 12.207 11.3875C12.7843 11.1519 13.4027 11.0335 14.0262 11.0393C16.683 11.0487 18.768 13.1556 18.7344 15.8333C18.7008 18.4147 16.6883 20.4625 14.0443 20.4998C12.7462 20.5183 11.6034 20.0501 10.6746 19.1183C9.75176 18.1948 9.30011 17.0719 9.2843 15.7714ZM18.2811 15.8087C18.2511 15.536 18.2451 15.2582 18.1866 14.9918C17.9683 13.991 17.3889 13.2175 16.614 12.5802C16.1119 12.1669 15.5294 11.9214 14.8895 11.8134C14.7512 11.7899 14.6103 11.7815 14.4708 11.7677C14.4526 11.7677 14.4345 11.7701 14.4169 11.7748C14.4319 11.7895 14.4484 11.8025 14.466 11.8138C14.6241 11.8941 14.7876 11.9651 14.9406 12.0539C15.3626 12.2991 15.6804 12.6384 15.8244 13.1132C15.9308 13.4585 15.9623 13.8226 15.9169 14.181C15.8694 14.5922 15.6812 14.9743 15.3842 15.2625C15.0815 15.5612 14.7018 15.7546 14.2811 15.8565C13.9428 15.9382 13.6028 16.0159 13.2913 16.1817C12.9197 16.3797 12.5791 16.6078 12.3625 16.9868C12.0776 17.4862 12.005 18.0212 12.152 18.5644C12.3201 19.1882 12.7472 19.5914 13.3714 19.7751C13.9327 19.9354 14.5224 19.97 15.0986 19.8763C15.4323 19.8258 15.7539 19.7144 16.0473 19.5477C16.5209 19.2783 16.9435 18.9277 17.2957 18.5119C17.6122 18.142 17.8674 17.733 18.0312 17.2716C18.1993 16.7994 18.2639 16.3115 18.2811 15.8087ZM13.2981 13.5007C13.2973 13.5768 13.3118 13.6523 13.3407 13.7227C13.3696 13.7931 13.4124 13.857 13.4665 13.9106C13.5205 13.9642 13.5848 14.0064 13.6555 14.0347C13.7261 14.063 13.8017 14.0768 13.8779 14.0754C14.268 14.0714 14.4896 13.8309 14.4953 13.5299C14.5027 13.1677 14.2347 12.9582 13.8792 12.9411C13.6132 12.9276 13.2493 13.2229 13.2981 13.5007Z" fill="#FDFEFF"/>
<path d="M19.9525 18.2733C19.978 19.296 19.7134 20.2481 19.2291 21.1393C18.9279 21.6947 18.5374 22.1968 18.0732 22.6254C17.5656 23.0968 16.9797 23.4762 16.3419 23.7467C15.8627 23.9484 15.3646 24.1021 14.843 24.1563C14.5821 24.1835 14.3208 24.2205 14.0591 24.2235C13.2434 24.2305 12.4349 24.0702 11.6835 23.7527C11.0081 23.4755 10.3933 23.0694 9.87315 22.5572C9.64817 22.3342 9.41713 22.1089 9.23216 21.8536C9.01619 21.55 8.82446 21.2299 8.65876 20.8962C8.51158 20.6072 8.39113 20.3054 8.29892 19.9945C8.19792 19.6551 8.12592 19.3077 8.08369 18.956C8.04552 18.5853 8.03338 18.2123 8.04737 17.8398C8.05409 17.5853 8.11463 17.332 8.15028 17.0785C8.15481 17.0613 8.16112 17.0446 8.16911 17.0287C8.18424 17.0452 8.20745 17.059 8.21316 17.0785C8.26832 17.2597 8.31775 17.443 8.37358 17.6239C8.53064 18.1207 8.76194 18.5907 9.05964 19.0183C9.30531 19.3833 9.58869 19.7214 9.9051 20.0272C10.4444 20.5454 11.0785 20.9551 11.7726 21.2338C13.0304 21.7385 14.4219 21.8032 15.7211 21.4174C16.2674 21.2548 16.7862 21.0109 17.26 20.694C17.6441 20.4426 17.9974 20.1473 18.313 19.8139C18.7242 19.3776 19.0684 18.8827 19.3343 18.3453C19.5283 17.9498 19.6791 17.5345 19.7843 17.1067C19.7945 17.0789 19.8077 17.0523 19.8237 17.0273C19.8406 17.0515 19.8536 17.0782 19.8623 17.1064C19.896 17.3418 19.9316 17.5772 19.9528 17.8143C19.9649 17.9663 19.9525 18.1203 19.9525 18.2733Z" fill="#FDFEFF"/>
<path d="M14.4408 4.9119C14.4041 5.19405 14.465 5.48028 14.6134 5.72306C14.6629 5.81473 14.7027 5.91132 14.7321 6.01127C14.7966 6.20498 14.8296 6.40037 14.759 6.6035C14.685 6.81739 14.6171 7.03329 14.5552 7.25122C14.4879 7.48663 14.4133 7.71532 14.4728 7.9699C14.4999 8.08085 14.5659 8.17838 14.6589 8.24474C14.7518 8.31109 14.8655 8.34185 14.9793 8.33142C15.2298 8.30653 15.4104 8.13872 15.3932 7.88313C15.3805 7.68841 15.3596 7.49369 15.3495 7.29864C15.3367 7.07937 15.3125 6.85909 15.324 6.64083C15.3354 6.42257 15.4013 6.20565 15.5964 6.06273C15.6206 6.04985 15.6465 6.04057 15.6734 6.03515C15.6781 6.05804 15.6803 6.08139 15.6798 6.10476C15.6716 6.17756 15.6594 6.24986 15.6434 6.32134C15.5802 6.57592 15.6471 6.80461 15.7746 7.02287C15.9219 7.2761 16.0971 7.51791 16.2088 7.78628C16.4005 8.24768 16.3853 8.71918 16.1338 9.16242C16.0335 9.34712 15.8795 9.497 15.6922 9.59222C15.5005 9.68537 15.3983 9.86126 15.2611 10.0069C14.8158 10.4777 14.2717 10.6492 13.632 10.5658C13.1313 10.5006 12.7576 10.245 12.461 9.85252C12.4044 9.78067 12.3414 9.71414 12.2727 9.65376C11.8964 9.31141 11.6795 8.89204 11.6832 8.37884C11.6855 8.04523 11.7931 7.74323 12.0322 7.49739C12.0961 7.43152 12.1558 7.36166 12.2108 7.28821C12.3497 7.10358 12.4075 6.90281 12.3574 6.66773C12.2999 6.39869 12.2565 6.12158 12.3443 5.85153C12.3954 5.69683 12.4788 5.55255 12.5525 5.40525C12.5616 5.38709 12.5898 5.37869 12.609 5.36557C12.6191 5.38508 12.6393 5.40525 12.6372 5.42341C12.5928 5.84884 12.7745 6.22684 12.8942 6.61561C12.9684 6.84339 12.9621 7.08974 12.8764 7.31343C12.8293 7.43955 12.7849 7.56667 12.7297 7.68942C12.6386 7.8912 12.6988 8.06204 12.8373 8.20968C12.9675 8.34824 13.1319 8.37245 13.3082 8.31057C13.397 8.2832 13.4747 8.22824 13.5302 8.15368C13.5856 8.07912 13.6159 7.98883 13.6166 7.89591C13.624 7.70893 13.593 7.51891 13.5631 7.33294C13.5295 7.1204 13.4353 6.92938 13.3455 6.73264C13.0606 6.11115 13.1521 5.53036 13.5755 4.99833C13.6747 4.87423 13.7773 4.75215 13.8725 4.62571C13.9709 4.49901 14.0272 4.34475 14.0336 4.18448C14.039 4.06879 14.0558 3.95344 14.0712 3.83876C14.0739 3.81824 14.0938 3.80042 14.1049 3.78125C14.124 3.79403 14.1496 3.80244 14.1607 3.82026C14.2237 3.90967 14.2794 4.00403 14.3272 4.10242C14.4371 4.36137 14.456 4.63546 14.4408 4.9119Z" fill="#FDFEFF"/>
<path d="M13.8771 17.4205C13.9593 17.4128 14.0422 17.4226 14.1203 17.4492C14.1984 17.4759 14.27 17.5187 14.3303 17.5751C14.3907 17.6314 14.4384 17.6998 14.4704 17.7759C14.5023 17.852 14.5178 17.934 14.5158 18.0165C14.503 18.3433 14.2358 18.6018 13.8865 18.6024C13.5312 18.6024 13.2546 18.3379 13.2576 18.0021C13.2623 17.6898 13.5221 17.3896 13.8771 17.4205Z" fill="#FDFEFF"/>
<defs>
<linearGradient id="paint0_linear_15629_13059" x1="-0.00109504" y1="-2.94" x2="21.8389" y2="29.12" gradientUnits="userSpaceOnUse">
<stop stop-color="#00ACED"/>
<stop offset="1" stop-color="#0155D3"/>
</linearGradient>
</defs>
</svg>









