<svg width="28" height="28" viewBox="0 0 28 28" fill="none" xmlns="http://www.w3.org/2000/svg">
<rect width="28" height="28" rx="4.47961" fill="url(#paint0_radial_15629_13068)"/>
<path fill-rule="evenodd" clip-rule="evenodd" d="M13.4229 6.69142C13.1342 6.13434 12.3691 5.60085 11.6527 5.45705C11.4861 5.4236 11.3139 5.41019 11.1403 5.41502C10.9667 5.41019 10.7945 5.4236 10.6279 5.45705C9.91157 5.60085 9.14643 6.13434 8.85768 6.69142C8.82363 6.75712 8.80402 6.79441 8.81131 6.82502C8.79201 6.84554 8.77651 6.85739 8.76739 6.85739C8.67895 6.85739 7.90215 7.26466 7.57211 7.48403C6.97152 7.88323 6.43899 8.43321 6.03599 9.05635C6.03095 9.05839 6.02602 9.06062 6.02118 9.06304C5.91606 9.11556 5.8556 9.25748 5.69613 9.5852C5.24396 10.5146 5.14726 11.0667 5.14726 12.72V13.9647H4.9902H4.94705H4.82068H4.74685V16.4669V18.9289C4.71417 18.9417 4.66954 18.9507 4.62027 18.953C4.52402 18.9575 4.41711 18.9632 4.38273 18.9656C4.37495 18.9661 4.368 18.9704 4.36183 18.9789C4.32859 18.9897 4.3049 19.0049 4.29278 19.0241C4.26805 19.0631 4.24753 19.2795 4.24708 19.5051L4.24633 19.9151L4.16691 19.9208H4.10029C4.02656 19.9208 3.97102 19.9262 3.93079 19.9379L3.82089 19.9459V20.6938C3.82077 20.7359 3.82077 20.7786 3.82089 20.8215V20.8718V21.7978L4.55467 21.799C5.46423 21.8149 7.40348 21.817 11.1403 21.8105C14.8771 21.817 16.8164 21.8149 17.726 21.799L18.4597 21.7978V20.8718V20.8216C18.4599 20.7787 18.4599 20.7359 18.4597 20.6937V19.9459L18.3498 19.9379C18.3096 19.9262 18.2541 19.9208 18.1803 19.9208H18.1137L18.0343 19.9151L18.0335 19.5051C18.0331 19.2795 18.0126 19.0631 17.9878 19.0241C17.9757 19.0049 17.952 18.9897 17.9188 18.9789C17.9126 18.9704 17.9057 18.9661 17.8979 18.9656C17.8635 18.9632 17.7566 18.9575 17.6603 18.953C17.6111 18.9507 17.5665 18.9417 17.5338 18.9289V16.4669V13.9647H17.4599H17.3336H17.2904H17.1334V12.72C17.1334 11.0667 17.0367 10.5146 16.5845 9.5852C16.425 9.25748 16.3646 9.11556 16.2594 9.06304C16.2546 9.06062 16.2497 9.05839 16.2446 9.05635C15.8416 8.43321 15.3091 7.88323 14.7085 7.48403C14.3785 7.26466 13.6017 6.85739 13.5132 6.85739C13.5041 6.85739 13.4886 6.84554 13.4693 6.82502C13.4766 6.79441 13.457 6.75712 13.4229 6.69142ZM11.1403 8.75212C11.1112 8.7557 11.078 8.75662 11.0376 8.75705C10.6119 8.7616 9.84856 8.86941 9.37998 8.99114C7.81161 9.39866 6.76013 10.2874 6.52769 11.402C6.49661 11.551 6.47238 12.1707 6.47238 12.816V13.9647H6.62333H6.67214H6.79801H6.87184L6.88486 16.4548L6.89782 18.9448H11.1034H11.1772H15.3828L15.3958 16.4548L15.4088 13.9647H15.4826H15.6085H15.6573H15.8082V12.816C15.8082 12.1707 15.784 11.551 15.7529 11.402C15.5205 10.2874 14.469 9.39866 12.9006 8.99114C12.4321 8.86941 11.6687 8.7616 11.243 8.75705C11.2026 8.75662 11.1694 8.7557 11.1403 8.75212ZM16.758 18.9448L16.745 16.4548L16.732 13.9647H16.8598H16.8827H17.0104L16.9974 16.4548L16.9845 18.9448L16.8712 18.9578L16.758 18.9448ZM15.9571 18.9448L15.9442 16.4548L15.9312 13.9647H16.0589H16.1073H16.2096L16.1966 16.4548L16.1836 18.9448H16.1073H15.9571ZM6.09699 18.9448L6.08403 16.4548L6.07102 13.9647H6.17332H6.22167H6.34945L6.33643 16.4548L6.32347 18.9448H6.17332H6.09699ZM5.29617 18.9448L5.28321 16.4548L5.27019 13.9647H5.39797H5.42085H5.54862L5.53561 16.4548L5.52265 18.9448L5.40941 18.9578L5.29617 18.9448Z" fill="#FEFEFE"/>
<path d="M23.775 21.7626L23.8806 21.8296C23.8941 21.8084 23.8992 21.7868 23.9009 21.7797C23.9035 21.7687 23.9053 21.7573 23.9068 21.7468C23.9097 21.7255 23.9119 21.6994 23.9138 21.6706C23.9175 21.6125 23.9201 21.5354 23.9218 21.4468C23.9253 21.2694 23.9256 21.0405 23.9245 20.8148C23.9233 20.5889 23.9207 20.3654 23.9184 20.1985C23.9172 20.115 23.9161 20.0456 23.9153 19.997L23.9144 19.9407L23.9141 19.9259L23.9141 19.922L23.914 19.9211L23.914 19.9208L23.914 19.9208L23.7889 19.923L23.914 19.9207L23.9118 19.7979H23.7889H23.4447C23.4449 19.7848 23.4452 19.771 23.4454 19.7567C23.4469 19.6604 23.447 19.5374 23.4407 19.4395C23.4387 19.4084 23.4368 19.3724 23.4348 19.3346C23.4312 19.2653 23.4272 19.19 23.4216 19.1271C23.4173 19.0781 23.4115 19.0286 23.4024 18.9893C23.398 18.9705 23.3912 18.9459 23.3792 18.9232C23.3714 18.9084 23.3376 18.8481 23.2618 18.8429L23.2411 18.8415L23.221 18.8468L20.0961 19.681L16.4557 19.681L12.9005 19.681L10.1507 18.7603L10.122 18.7506L10.092 18.7552L9.8789 18.7879C9.81463 18.7857 9.74665 18.7858 9.69432 18.7864C9.66634 18.7867 9.64247 18.7872 9.62557 18.7876L9.60572 18.7881L9.60034 18.7883L9.5989 18.7883L9.5985 18.7883L9.59839 18.7884L9.59835 18.7884L9.59834 18.7884L9.60246 18.9134L9.59833 18.7884L9.47742 18.7923L9.47733 18.9133L9.47667 19.8229H9.38899H9.17627H9.05114V19.9481V20.874V21.8V21.9249L9.17605 21.9251L16.4555 21.9377C19.3506 21.9428 21.1731 21.9428 22.2758 21.9352C22.8269 21.9315 23.1994 21.9258 23.4364 21.9179C23.5546 21.914 23.6413 21.9095 23.7003 21.9041C23.7293 21.9014 23.755 21.8983 23.7757 21.8942C23.7856 21.8922 23.7986 21.8892 23.8117 21.8842C23.8183 21.8818 23.8281 21.8776 23.8386 21.8711C23.848 21.8652 23.8661 21.8525 23.8806 21.8296L23.775 21.7626Z" stroke="url(#paint1_radial_15629_13068)" stroke-width="0.250258"/>
<path fill-rule="evenodd" clip-rule="evenodd" d="M15.9833 5.45705C15.2669 5.60085 14.5018 6.13434 14.2131 6.69142C14.1336 6.84478 14.1328 6.84333 14.3691 6.9635C14.9784 7.27332 15.7486 7.91153 16.1393 8.43026C16.3724 8.73983 16.3936 8.75489 16.5984 8.75705C17.0241 8.7616 17.7874 8.86941 18.256 8.99114C19.8244 9.39866 20.8759 10.2874 21.1083 11.402C21.1394 11.551 21.1636 12.1707 21.1636 12.816V13.9647H20.9639H20.7642L20.7511 16.4548L20.7382 18.9238H16.4588H12.1794L12.1664 16.4548L12.1534 13.9647H11.9787H11.804V12.7187C11.804 11.6187 11.8155 11.4354 11.9028 11.1546C12.0797 10.5855 12.57 9.99267 13.1708 9.62174C13.3888 9.48715 13.4432 9.43204 13.3883 9.40131C13.2442 9.32063 12.2711 9.10991 11.829 9.06361C11.3027 9.0085 11.3464 8.97917 11.0515 9.5852C10.5993 10.5146 10.5026 11.0667 10.5026 12.72V13.9647H10.3024H10.1022V16.4669V18.9238H9.89761H9.60171C9.60171 18.9238 9.60291 19.2795 9.60246 19.5051L9.60171 19.9459H9.38899H9.17627V20.8718V21.8104H16.4557H23.775V19.9459C23.775 19.9459 23.69 19.9459 23.5357 19.9459H23.3158V18.9238H23.2533H23.0157H22.8343C22.8343 18.9238 22.825 17.7273 22.8216 16.3922L22.8153 13.9647H22.6458H22.4763L22.4514 12.5758C22.4252 11.1134 22.3824 10.7959 22.1138 10.0738C21.7309 9.04404 20.9759 8.09021 20.0639 7.48403C19.7338 7.26466 18.957 6.85739 18.8686 6.85739C18.8423 6.85739 18.7628 6.75859 18.692 6.63781C18.1895 5.78028 16.9862 5.25574 15.9833 5.45705ZM10.891 16.4548L10.8791 18.9238H10.7452H10.6027V16.4706V13.9647H10.7533H10.904L10.891 16.4548ZM11.6918 16.4548L11.6788 18.9238H11.5287H11.3785L11.3656 16.4548L11.3526 13.9647H11.5287H11.7048L11.6918 16.4548ZM21.552 16.4548L21.539 18.9238H21.4014H21.2637V16.4706V13.9647H21.4143H21.565L21.552 16.4548ZM22.3528 16.4548L22.3398 18.9238H22.2022H22.0645V16.4706V13.9647H22.2151H22.3658L22.3528 16.4548Z" fill="#FEFEFE"/>
<defs>
<radialGradient id="paint0_radial_15629_13068" cx="0" cy="0" r="1" gradientUnits="userSpaceOnUse" gradientTransform="rotate(45) scale(39.598)">
<stop stop-color="#B7925C"/>
<stop offset="1" stop-color="#53301F"/>
</radialGradient>
<radialGradient id="paint1_radial_15629_13068" cx="0" cy="0" r="1" gradientUnits="userSpaceOnUse" gradientTransform="translate(-1.85451 -1.82597) rotate(45) scale(44.7152 229.394)">
<stop stop-color="#B28D59"/>
<stop offset="0.501263" stop-color="#83603D"/>
<stop offset="0.646044" stop-color="#765235"/>
<stop offset="0.74875" stop-color="#6C492F"/>
<stop offset="1" stop-color="#583522"/>
</radialGradient>
</defs>
</svg>











