<svg width="28" height="28" viewBox="0 0 28 28" fill="none" xmlns="http://www.w3.org/2000/svg">
<rect width="28" height="28" rx="4.47961" fill="url(#paint0_radial_15629_13077)"/>
<path fill-rule="evenodd" clip-rule="evenodd" d="M11.8515 5.81564C11.7341 6.01988 9.95497 9.10183 7.89791 12.6644C5.84085 16.227 4.16527 19.1493 4.17435 19.1584C4.18347 19.1675 6.87604 19.1708 10.1579 19.1658L16.1249 19.1567L15.375 17.8597L14.6252 16.5627L11.7017 16.5535C9.75837 16.5474 8.77812 16.5321 8.77812 16.5078C8.77812 16.4878 9.86487 14.589 11.1931 12.2883L13.6081 8.10522L12.8799 6.83988C12.4793 6.14395 12.1321 5.54522 12.1082 5.50941C12.07 5.45191 12.0398 5.48783 11.8515 5.81564ZM12.9285 10.6465L9.92878 15.8422L11.434 15.8516C12.2618 15.8568 12.9559 15.8546 12.9763 15.8468C12.9968 15.8389 13.6692 14.6962 14.4705 13.3074C15.2719 11.9185 15.9383 10.7939 15.9513 10.8083C15.9643 10.8227 17.0577 12.711 18.3811 15.0046L20.7871 19.1747H22.3161C23.6555 19.1747 23.8425 19.168 23.8245 19.121C23.8001 19.0576 15.9855 5.51446 15.9515 5.47663C15.9386 5.46236 14.5783 7.7888 12.9285 10.6465ZM15.6089 12.6993C15.434 13.0012 15.0897 13.5977 14.8437 14.0248L14.3965 14.8014L15.8517 17.3213L17.307 19.8412L12.4571 19.8506L7.60725 19.86L6.84384 21.1836L6.08043 22.5072L10.0412 22.5163C12.2197 22.5214 15.7844 22.5214 17.963 22.5163L21.924 22.5072L18.9505 17.3553C17.315 14.5218 15.9657 12.1915 15.9519 12.1769C15.9381 12.1623 15.7837 12.3974 15.6089 12.6993Z" fill="white"/>
<defs>
<radialGradient id="paint0_radial_15629_13077" cx="0" cy="0" r="1" gradientUnits="userSpaceOnUse" gradientTransform="rotate(45) scale(39.598)">
<stop stop-color="#77B97E"/>
<stop offset="1" stop-color="#185720"/>
</radialGradient>
</defs>
</svg>










