<svg width="48" height="48" viewBox="0 0 48 48" fill="none" xmlns="http://www.w3.org/2000/svg">
<rect width="48" height="48" rx="24" fill="#A52A2A" fill-opacity="0.12"/>
<g clip-path="url(#clip0_15428_21574)">
<path d="M37.7454 31.1188L30.8727 18.6461C30.4273 17.6915 29.4727 17.1188 28.4546 17.1188C28.2 17.1188 27.8818 17.1825 27.6273 17.2461C27.3091 17.3733 27.1182 17.6916 27.2455 18.0733C27.3727 18.3915 27.6909 18.5824 28.0727 18.4552C28.7091 18.2643 29.4727 18.5188 29.7909 19.2188L30.9363 21.2552L30.6818 21.3824C30.3636 21.5097 30.0454 21.5733 29.7909 21.5733H29.0909C28.709 21.5733 28.4545 21.8279 28.4545 22.2097C28.4545 22.5915 28.7091 22.8461 29.0909 22.8461H29.7909C30.3 22.8461 30.7455 22.7188 31.1909 22.5279L31.4455 22.4007L36.6 31.7552C36.6637 31.8824 36.7273 32.0097 36.7273 32.2006C36.7273 32.7097 36.3454 33.0915 35.8363 33.0915H12.1637C11.6546 33.0279 11.2727 32.646 11.2727 32.1369C11.2727 32.0097 11.3364 31.8188 11.4 31.6915L16.6182 21.7005L17.5091 22.3369C18.4 23.0369 19.8 22.9096 20.5637 22.146L21.5818 21.1278C21.9 20.8096 22.4727 20.8732 22.7273 21.1915L23.6182 22.4005C24.1273 23.0369 24.8273 23.4187 25.6545 23.4187H26.8636L30.5545 31.3096C30.6818 31.6278 31.0636 31.7551 31.3818 31.6278C31.6999 31.5005 31.8272 31.1187 31.6999 30.8005L23.8727 14.1916C23.4273 13.237 22.4727 12.6643 21.4546 12.6643C20.4364 12.6643 19.4818 13.237 19.1 14.128L10.2546 31.1188C10.0637 31.437 10 31.7552 10 32.137C10 33.3461 10.9546 34.3006 12.1637 34.3006H35.8364C37.0455 34.3006 38 33.3461 38 32.137C38 31.7552 37.9363 31.437 37.7454 31.1188ZM20.2454 14.7007C20.4363 14.2552 20.9454 13.937 21.4545 13.937C21.9636 13.937 22.4727 14.2552 22.6636 14.7007L26.2273 22.2097H25.5909C25.2091 22.2097 24.8273 22.0188 24.5727 21.7007L23.6818 20.4916C23.3 19.9825 22.6637 19.6643 22.0909 19.6643C21.5182 19.6643 21.0091 19.8552 20.6273 20.237L19.6091 21.2552C19.2273 21.637 18.6545 21.637 18.2091 21.3825L17.1909 20.6188L20.2454 14.7007Z" fill="#A52A2A"/>
<path d="M31 12.5457C28.5818 12.5457 26.4818 14.2638 25.9727 16.6184C25.9091 17.0002 26.1636 17.3184 26.4818 17.3821C26.8 17.4457 27.1818 17.2548 27.2455 16.873C27.6273 15.0911 29.1545 13.8184 31 13.8184C33.1 13.8184 34.8182 15.5366 34.8182 17.6366C34.8182 18.8457 34.2455 19.9911 33.2909 20.6911C33.0364 20.8821 32.9728 21.3275 33.1637 21.5821C33.2909 21.773 33.4819 21.8366 33.6728 21.8366C33.8 21.8366 33.9273 21.773 34.0546 21.7094C35.3273 20.7548 36.0909 19.2275 36.0909 17.6366C36.0909 14.8366 33.8 12.5457 31 12.5457Z" fill="#A52A2A"/>
</g>
<defs>
<clipPath id="clip0_15428_21574">
<rect width="28" height="28" fill="white" transform="translate(10 10)"/>
</clipPath>
</defs>
</svg>


