<svg width="25" height="24" viewBox="0 0 25 24" fill="none" xmlns="http://www.w3.org/2000/svg">
<rect y="0.0429688" width="25" height="23.913" rx="6" fill="url(#paint0_radial_19315_21429)"/>
<path d="M18.7278 14.1211C18.5106 14.5143 18.3016 14.8915 18.0875 15.2783C18.4472 15.5127 18.8192 15.7558 19.2201 16.0175C18.894 16.4039 18.5751 16.7815 18.2454 17.1728L17.2957 16.2231L18.0931 15.2771L16.8683 14.4816L16.2177 15.2463L15.2746 14.2939C15.6061 13.9593 15.8717 13.5698 16.0586 13.1443L17.342 13.6458C17.4496 13.3103 17.5529 12.987 17.6625 12.6455L19.0824 12.924C19.1038 12.8039 19.1307 12.696 19.141 12.5862C19.1679 12.2949 19.1865 12.0031 19.211 11.7125C19.2173 11.6365 19.1885 11.6076 19.105 11.6087C18.6828 11.6136 18.2607 11.6151 17.8386 11.6133C17.7559 11.6133 17.7357 11.6445 17.7306 11.7201C17.7116 12.0187 17.6847 12.3165 17.6585 12.636L16.3 12.3674C16.3154 12.2671 16.3328 12.1775 16.3423 12.0863C16.5643 9.9611 15.0079 8.21126 13.0099 7.92367C10.8547 7.61443 8.88116 8.98019 8.50165 11.0435C8.12649 13.082 9.60971 15.0868 11.7269 15.4241C12.5686 15.5582 13.3549 15.4139 14.108 15.0571C14.5611 14.8425 15.0427 14.9933 15.3071 15.4055C15.505 15.7151 15.7495 15.9982 15.9763 16.2907C16.9387 17.533 17.9017 18.7746 18.8651 20.0157C18.8897 20.0476 18.9126 20.0806 18.9585 20.1437C18.8885 20.1205 18.8485 20.1091 18.8101 20.0947C17.7955 19.713 16.7809 19.3304 15.7665 18.947C15.7163 18.9251 15.6619 18.9135 15.6067 18.9129C15.5515 18.9122 15.4968 18.9225 15.446 18.9432C13.2418 19.7623 11.0533 19.7269 8.91638 18.7506C6.73984 17.7552 5.29778 16.1201 4.58942 13.9045C4.25162 12.85 4.16453 11.7361 4.33457 10.6449C4.70695 8.18846 6.01209 6.30794 8.19733 4.99726C9.25328 4.35999 10.4578 3.9849 11.7023 3.9058C14.5952 3.71584 16.9723 4.7036 18.8014 6.85766C19.754 7.9799 20.3013 9.28335 20.4869 10.7236C20.654 11.9953 20.4925 13.287 20.0167 14.4846C19.9772 14.5849 19.9423 14.6134 19.8307 14.5663C19.4643 14.4109 19.0931 14.2669 18.7278 14.1211Z" fill="#FEFEFE"/>
<defs>
<radialGradient id="paint0_radial_19315_21429" cx="0" cy="0" r="1" gradientUnits="userSpaceOnUse" gradientTransform="translate(0 0.0429688) rotate(43.727) scale(34.5953 34.5611)">
<stop stop-color="#375B9F"/>
<stop offset="1" stop-color="#19305C"/>
</radialGradient>
</defs>
</svg>
