<svg width="197" height="196" viewBox="0 0 197 196" fill="none" xmlns="http://www.w3.org/2000/svg">
<path fill-rule="evenodd" clip-rule="evenodd" d="M159.75 134.75V154.677C159.75 158.066 158.566 161.292 156.483 163.701C154.401 166.11 151.543 167.457 148.562 167.457H139.333V171.541C139.333 173.786 141.171 175.624 143.417 175.624H176.083C177.513 175.624 178.819 174.889 179.554 173.705C180.289 172.48 180.371 171.01 179.718 169.744L172.449 155.248L179.718 140.752C180.371 139.487 180.289 137.976 179.554 136.792C178.819 135.607 177.513 134.872 176.083 134.872H159.75V134.75ZM37.25 134.75V154.677C37.25 158.066 38.4342 161.292 40.5167 163.701C42.5992 166.11 45.4575 167.457 48.4384 167.457H57.6667V171.541C57.6667 173.786 55.8292 175.624 53.5834 175.624H20.9167C19.4875 175.624 18.1809 174.889 17.4459 173.705C16.7109 172.48 16.6292 171.01 17.2825 169.744L24.5509 155.248L17.2825 140.752C16.6292 139.487 16.7109 137.976 17.4459 136.792C18.1809 135.607 19.4875 134.872 20.9167 134.872H37.25V134.75ZM151.583 144.713V128.829C151.583 126.052 150.481 123.398 148.521 121.438C146.561 119.478 143.907 118.376 141.13 118.376H55.87C53.0934 118.376 50.4392 119.478 48.4792 121.438C46.5192 123.398 45.4167 126.052 45.4167 128.829V144.713C45.4167 147.49 46.5192 150.144 48.4792 152.104C50.4392 154.064 53.0934 155.167 55.87 155.167H141.171C143.948 155.167 146.602 154.064 148.562 152.104C150.522 150.144 151.624 147.49 151.624 144.713H151.583ZM42.8034 71.3765C42.0684 70.1515 40.7209 69.4165 39.2917 69.4165C37.8625 69.4165 36.5559 70.1515 35.78 71.3765L30.0634 80.809L19.8142 83.5857C18.5075 83.9532 17.4459 84.9332 16.9967 86.2398C16.5884 87.5465 16.8334 88.9757 17.65 90.0373L24.4692 98.7348L23.8159 110.005C23.7342 111.393 24.3875 112.741 25.5309 113.557C26.6742 114.374 28.1442 114.537 29.4509 114.007L39.2509 109.964L49.0509 114.007C50.3575 114.537 51.8275 114.374 52.9709 113.557C54.1142 112.741 54.7675 111.393 54.6859 110.005L54.0325 98.7348L60.8517 90.0373C61.7092 88.9757 61.9542 87.5465 61.505 86.2398C61.0559 84.9332 60.035 83.9532 58.6875 83.5857L48.4384 80.809L42.7217 71.3765H42.8034ZM161.22 71.3765C160.485 70.1515 159.138 69.4165 157.708 69.4165C156.279 69.4165 154.973 70.1515 154.197 71.3765L148.48 80.809L138.231 83.5857C136.924 83.9532 135.863 84.9332 135.413 86.2398C135.005 87.5465 135.25 88.9757 136.067 90.0373L142.886 98.7348L142.233 110.005C142.151 111.393 142.804 112.741 143.948 113.557C145.091 114.374 146.561 114.537 147.868 114.007L157.668 109.964L167.468 114.007C168.774 114.537 170.244 114.374 171.388 113.557C172.531 112.741 173.184 111.393 173.103 110.005L172.449 98.7348L179.268 90.0373C180.126 88.9757 180.371 87.5465 179.922 86.2398C179.473 84.9332 178.452 83.9532 177.104 83.5857L166.855 80.809L161.138 71.3765H161.22ZM132.637 22.3765C131.902 21.1515 130.554 20.4165 129.125 20.4165C127.696 20.4165 126.389 21.1515 125.613 22.3765L118.468 34.2182L105.605 37.689C104.298 38.0565 103.237 39.0365 102.788 40.3432C102.379 41.6498 102.624 43.079 103.441 44.1407L111.975 55.0432L111.158 69.1715C111.077 70.5598 111.73 71.9073 112.873 72.724C114.017 73.5407 115.487 73.704 116.793 73.1732L129.125 68.069L141.457 73.1732C142.763 73.704 144.233 73.5407 145.377 72.724C146.52 71.9073 147.173 70.5598 147.092 69.1715L146.275 55.0432L154.809 44.1407C155.667 43.079 155.912 41.6498 155.463 40.3432C155.013 39.0365 153.993 38.0565 152.645 37.689L139.783 34.2182L132.637 22.3765ZM71.3867 22.3765C70.6517 21.1515 69.3042 20.4165 67.875 20.4165C66.4459 20.4165 65.1392 21.1515 64.3634 22.3765L57.2175 34.2182L44.355 37.689C43.0484 38.0565 41.9867 39.0365 41.5375 40.3432C41.1292 41.6498 41.3742 43.079 42.1909 44.1407L50.725 55.0432L49.9084 69.1715C49.8267 70.5598 50.48 71.9073 51.6234 72.724C52.7667 73.5407 54.2367 73.704 55.5434 73.1732L67.875 68.069L80.2067 73.1732C81.5134 73.704 82.9834 73.5407 84.1267 72.724C85.27 71.9073 85.9234 70.5598 85.8417 69.1715L85.025 55.0432L93.5592 44.1407C94.4167 43.079 94.6617 41.6498 94.2125 40.3432C93.7634 39.0365 92.7425 38.0565 91.395 37.689L78.5325 34.2182L71.3867 22.3765Z" fill="#F1B23A"/>
<path d="M70.308 134.422C70.884 134.302 71.436 134.218 71.964 134.17C72.492 134.11 73.002 134.08 73.494 134.08C74.862 134.08 76.068 134.284 77.112 134.692C78.156 135.1 79.032 135.664 79.74 136.384C80.448 137.104 80.982 137.95 81.342 138.922C81.702 139.882 81.882 140.92 81.882 142.036C81.882 143.416 81.636 144.676 81.144 145.816C80.664 146.956 79.992 147.934 79.128 148.75C78.264 149.554 77.238 150.178 76.05 150.622C74.874 151.066 73.59 151.288 72.198 151.288C71.382 151.288 70.608 151.204 69.876 151.036C69.144 150.868 68.454 150.646 67.806 150.37C67.17 150.082 66.576 149.758 66.024 149.398C65.484 149.026 64.998 148.636 64.566 148.228L65.934 146.338C66.222 145.93 66.6 145.726 67.068 145.726C67.368 145.726 67.674 145.822 67.986 146.014C68.298 146.206 68.652 146.416 69.048 146.644C69.456 146.872 69.93 147.082 70.47 147.274C71.022 147.466 71.682 147.562 72.45 147.562C73.266 147.562 73.986 147.43 74.61 147.166C75.234 146.902 75.75 146.536 76.158 146.068C76.578 145.588 76.89 145.024 77.094 144.376C77.31 143.716 77.418 143.002 77.418 142.234C77.418 140.818 77.004 139.714 76.176 138.922C75.36 138.118 74.148 137.716 72.54 137.716C71.304 137.716 70.038 137.944 68.742 138.4L65.97 137.608L68.13 124.972H80.982V126.862C80.982 127.498 80.784 128.014 80.388 128.41C79.992 128.806 79.32 129.004 78.372 129.004H71.226L70.308 134.422ZM85.4308 148.552C85.4308 148.18 85.4968 147.826 85.6288 147.49C85.7728 147.154 85.9648 146.866 86.2048 146.626C86.4448 146.386 86.7328 146.194 87.0688 146.05C87.4048 145.906 87.7648 145.834 88.1488 145.834C88.5328 145.834 88.8868 145.906 89.2108 146.05C89.5468 146.194 89.8348 146.386 90.0748 146.626C90.3268 146.866 90.5248 147.154 90.6688 147.49C90.8128 147.826 90.8848 148.18 90.8848 148.552C90.8848 148.936 90.8128 149.296 90.6688 149.632C90.5248 149.956 90.3268 150.238 90.0748 150.478C89.8348 150.718 89.5468 150.904 89.2108 151.036C88.8868 151.18 88.5328 151.252 88.1488 151.252C87.7648 151.252 87.4048 151.18 87.0688 151.036C86.7328 150.904 86.4448 150.718 86.2048 150.478C85.9648 150.238 85.7728 149.956 85.6288 149.632C85.4968 149.296 85.4308 148.936 85.4308 148.552ZM99.7338 134.422C100.31 134.302 100.862 134.218 101.39 134.17C101.918 134.11 102.428 134.08 102.92 134.08C104.288 134.08 105.494 134.284 106.538 134.692C107.582 135.1 108.458 135.664 109.166 136.384C109.874 137.104 110.408 137.95 110.768 138.922C111.128 139.882 111.308 140.92 111.308 142.036C111.308 143.416 111.062 144.676 110.57 145.816C110.09 146.956 109.418 147.934 108.554 148.75C107.69 149.554 106.664 150.178 105.476 150.622C104.3 151.066 103.016 151.288 101.624 151.288C100.808 151.288 100.034 151.204 99.3018 151.036C98.5698 150.868 97.8798 150.646 97.2318 150.37C96.5958 150.082 96.0018 149.758 95.4498 149.398C94.9098 149.026 94.4238 148.636 93.9918 148.228L95.3598 146.338C95.6478 145.93 96.0258 145.726 96.4938 145.726C96.7938 145.726 97.0998 145.822 97.4118 146.014C97.7238 146.206 98.0778 146.416 98.4738 146.644C98.8818 146.872 99.3558 147.082 99.8958 147.274C100.448 147.466 101.108 147.562 101.876 147.562C102.692 147.562 103.412 147.43 104.036 147.166C104.66 146.902 105.176 146.536 105.584 146.068C106.004 145.588 106.316 145.024 106.52 144.376C106.736 143.716 106.844 143.002 106.844 142.234C106.844 140.818 106.43 139.714 105.602 138.922C104.786 138.118 103.574 137.716 101.966 137.716C100.73 137.716 99.4638 137.944 98.1678 138.4L95.3958 137.608L97.5558 124.972H110.408V126.862C110.408 127.498 110.21 128.014 109.814 128.41C109.418 128.806 108.746 129.004 107.798 129.004H100.652L99.7338 134.422ZM120.617 134.422C121.193 134.302 121.745 134.218 122.273 134.17C122.801 134.11 123.311 134.08 123.803 134.08C125.171 134.08 126.377 134.284 127.421 134.692C128.465 135.1 129.341 135.664 130.049 136.384C130.757 137.104 131.291 137.95 131.651 138.922C132.011 139.882 132.191 140.92 132.191 142.036C132.191 143.416 131.945 144.676 131.453 145.816C130.973 146.956 130.301 147.934 129.437 148.75C128.573 149.554 127.547 150.178 126.359 150.622C125.183 151.066 123.899 151.288 122.507 151.288C121.691 151.288 120.917 151.204 120.185 151.036C119.453 150.868 118.763 150.646 118.115 150.37C117.479 150.082 116.885 149.758 116.333 149.398C115.793 149.026 115.307 148.636 114.875 148.228L116.243 146.338C116.531 145.93 116.909 145.726 117.377 145.726C117.677 145.726 117.983 145.822 118.295 146.014C118.607 146.206 118.961 146.416 119.357 146.644C119.765 146.872 120.239 147.082 120.779 147.274C121.331 147.466 121.991 147.562 122.759 147.562C123.575 147.562 124.295 147.43 124.919 147.166C125.543 146.902 126.059 146.536 126.467 146.068C126.887 145.588 127.199 145.024 127.403 144.376C127.619 143.716 127.727 143.002 127.727 142.234C127.727 140.818 127.313 139.714 126.485 138.922C125.669 138.118 124.457 137.716 122.849 137.716C121.613 137.716 120.347 137.944 119.051 138.4L116.279 137.608L118.439 124.972H131.291V126.862C131.291 127.498 131.093 128.014 130.697 128.41C130.301 128.806 129.629 129.004 128.681 129.004H121.535L120.617 134.422Z" fill="white"/>
</svg>









