<svg width="48" height="49" viewBox="0 0 48 49" fill="none" xmlns="http://www.w3.org/2000/svg">
  <rect y="0.5" width="48" height="48" rx="4" fill="#FEE4E2" />
  <path
    d="M23.9998 21.5002V25.5002M23.9998 29.5002H24.0098M22.6151 16.392L14.3902 30.5986C13.934 31.3866 13.7059 31.7806 13.7396 32.1039C13.769 32.386 13.9168 32.6423 14.1461 32.809C14.4091 33.0002 14.8643 33.0002 15.7749 33.0002H32.2246C33.1352 33.0002 33.5904 33.0002 33.8534 32.809C34.0827 32.6423 34.2305 32.386 34.2599 32.1039C34.2936 31.7806 34.0655 31.3866 33.6093 30.5986L25.3844 16.392C24.9299 15.6068 24.7026 15.2142 24.4061 15.0824C24.1474 14.9673 23.8521 14.9673 23.5935 15.0824C23.2969 15.2142 23.0696 15.6068 22.6151 16.392Z"
    stroke="#F04438" stroke-width="2" stroke-linecap="round" stroke-linejoin="round" />
</svg>