<svg width="24" height="25" viewBox="0 0 24 25" fill="none" xmlns="http://www.w3.org/2000/svg">
<path d="M9.21296 14.9C9.52517 15.4945 10.1486 15.9 10.8667 15.9H13C14.1046 15.9 15 15.0046 15 13.9C15 12.7954 14.1046 11.9 13 11.9H11C9.89543 11.9 9 11.0046 9 9.90002C9 8.79545 9.89543 7.90002 11 7.90002H13.1333C13.8514 7.90002 14.4748 8.30551 14.787 8.90002M12 6.40002V7.90002M12 15.9V17.4M20 12.4C20 17.3085 14.646 20.8784 12.698 22.0149C12.4766 22.1441 12.3659 22.2086 12.2097 22.2421C12.0884 22.2681 11.9116 22.2681 11.7903 22.2421C11.6341 22.2086 11.5234 22.1441 11.302 22.0149C9.35396 20.8784 4 17.3085 4 12.4V7.61762C4 6.81811 4 6.41835 4.13076 6.07472C4.24627 5.77116 4.43398 5.50029 4.67766 5.28555C4.9535 5.04246 5.3278 4.90209 6.0764 4.62137L11.4382 2.61069C11.6461 2.53273 11.75 2.49375 11.857 2.4783C11.9518 2.46459 12.0482 2.46459 12.143 2.4783C12.25 2.49375 12.3539 2.53273 12.5618 2.61069L17.9236 4.62137C18.6722 4.90209 19.0465 5.04246 19.3223 5.28555C19.566 5.50029 19.7537 5.77116 19.8692 6.07472C20 6.41835 20 6.81811 20 7.61762V12.4Z" stroke="#101828" stroke-width="1.6" stroke-linecap="round" stroke-linejoin="round"/>
</svg>






