<svg width="24" height="24" viewBox="0 0 24 24" fill="none" xmlns="http://www.w3.org/2000/svg">
<path opacity="0.12" d="M9.13784 4.72433C10.0591 2.8819 10.5197 1.96069 11.143 1.66508C11.6854 1.40782 12.3146 1.40782 12.8571 1.66508C13.4804 1.96069 13.941 2.88191 14.8622 4.72434L15.2215 5.4429C15.5059 6.01177 15.6481 6.29621 15.8562 6.51399C16.0403 6.70676 16.2612 6.86077 16.5058 6.96694C16.782 7.08689 17.0981 7.12201 17.7302 7.19225L18.0564 7.22849C20.2646 7.47385 21.3687 7.59653 21.8677 8.10561C22.3013 8.54802 22.5055 9.16639 22.4205 9.78001C22.3227 10.4861 21.5086 11.242 19.8805 12.7539L19.5361 13.0736C18.9804 13.5897 18.7025 13.8477 18.5419 14.1604C18.4 14.4368 18.3244 14.7424 18.3211 15.0531C18.3174 15.4046 18.4446 15.7671 18.699 16.4921C19.5294 18.8587 19.9446 20.042 19.673 20.7338C19.4374 21.3339 18.927 21.7836 18.3021 21.9418C17.5816 22.1241 16.4767 21.5717 14.267 20.4668L13.4311 20.0489C12.9064 19.7865 12.644 19.6553 12.3688 19.6037C12.1251 19.558 11.8749 19.558 11.6312 19.6037C11.356 19.6553 11.0937 19.7865 10.5689 20.0489L9.73299 20.4668C7.52325 21.5717 6.41838 22.1241 5.69791 21.9418C5.07298 21.7836 4.56261 21.3339 4.32703 20.7338C4.05543 20.042 4.47062 18.8587 5.30101 16.4921C5.55541 15.7671 5.68261 15.4046 5.67891 15.0531C5.67565 14.7424 5.60005 14.4368 5.45811 14.1604C5.29751 13.8477 5.01964 13.5897 4.46388 13.0736L4.11954 12.7539C2.49141 11.242 1.67734 10.4861 1.57953 9.78001C1.49453 9.16639 1.69867 8.54802 2.13229 8.10561C2.63127 7.59653 3.73538 7.47385 5.9436 7.22849L6.26976 7.19225C6.90189 7.12201 7.21795 7.08689 7.49423 6.96694C7.73879 6.86077 7.95965 6.70676 8.14383 6.51399C8.35189 6.29621 8.49411 6.01178 8.77855 5.44291L9.13784 4.72433Z" fill="#0169BA"/>
<path fill-rule="evenodd" clip-rule="evenodd" d="M10.8216 0.987948C11.5674 0.634225 12.4326 0.634226 13.1784 0.987949C13.6948 1.23282 14.061 1.69634 14.3855 2.22022C14.7118 2.74695 15.0697 3.46291 15.5155 4.3545L15.533 4.38945L15.8923 5.10801C16.198 5.71938 16.2869 5.8796 16.3985 5.99641C16.5136 6.11689 16.6516 6.21314 16.8045 6.27951C16.9526 6.34384 17.1337 6.37187 17.8131 6.44736L18.1392 6.4836L18.1784 6.48795C19.2493 6.60693 20.1048 6.70198 20.7525 6.83372C21.3913 6.96365 21.9866 7.15598 22.4033 7.58114C22.9996 8.18945 23.2803 9.03971 23.1634 9.88344C23.0817 10.4731 22.7179 10.9821 22.282 11.4668C21.8401 11.9583 21.2093 12.544 20.4197 13.2771L20.3908 13.304L20.0465 13.6237C19.4483 14.1791 19.295 14.3362 19.2091 14.5035C19.1203 14.6763 19.0731 14.8673 19.071 15.0615C19.0691 15.2493 19.1328 15.4637 19.4067 16.2443L19.4196 16.2811C19.8239 17.4332 20.144 18.3456 20.3258 19.0555C20.5023 19.745 20.6013 20.4221 20.3711 21.0084C20.0472 21.8335 19.3454 22.4518 18.4861 22.6694C17.8772 22.8235 17.2237 22.6439 16.5678 22.3852C15.8945 22.1196 15.0419 21.6933 13.9669 21.1558L13.9316 21.1382L13.0957 20.7202C12.5321 20.4384 12.3782 20.3691 12.2305 20.3414C12.0782 20.3128 11.9218 20.3128 11.7695 20.3414C11.6218 20.3691 11.4679 20.4384 10.9043 20.7202L10.0684 21.1382L10.0332 21.1558C8.95816 21.6933 8.10552 22.1196 7.43217 22.3852C6.77625 22.6439 6.12278 22.8235 5.51387 22.6694C4.65459 22.4518 3.95283 21.8335 3.62891 21.0084C3.39872 20.4221 3.49765 19.745 3.67422 19.0555C3.85598 18.3457 4.17613 17.4333 4.58037 16.2812L4.59331 16.2443C4.86723 15.4637 4.93093 15.2493 4.92895 15.0615C4.92691 14.8673 4.87966 14.6763 4.79095 14.5035C4.70503 14.3362 4.55167 14.1791 3.95354 13.6237L3.6092 13.304L3.58035 13.2772C2.79073 12.544 2.15995 11.9583 1.71799 11.4668C1.28211 10.9821 0.918314 10.4731 0.836625 9.88344C0.719746 9.03971 1.00044 8.18945 1.59667 7.58114C2.01339 7.15598 2.60871 6.96365 3.24749 6.83372C3.89518 6.70198 4.75069 6.60693 5.82164 6.48794L5.86078 6.4836L6.18694 6.44736C6.86629 6.37187 7.04736 6.34384 7.19555 6.27951C7.3484 6.21314 7.48643 6.11689 7.60155 5.99641C7.71315 5.8796 7.80204 5.71938 8.10773 5.10802L8.46702 4.38944L8.48448 4.35452C8.93027 3.46292 9.28824 2.74695 9.61453 2.22022C9.93905 1.69634 10.3053 1.23282 10.8216 0.987948ZM12.5357 2.34324C12.1967 2.18246 11.8034 2.18246 11.4643 2.34324C11.3574 2.39399 11.1816 2.53888 10.8897 3.01012C10.6038 3.47165 10.2759 4.12568 9.80866 5.06026L9.44937 5.77884C9.43498 5.80762 9.42079 5.83605 9.40677 5.86413C9.16447 6.34963 8.97399 6.73129 8.68611 7.03261C8.43287 7.29767 8.12919 7.50943 7.79292 7.65542C7.41066 7.82139 6.98667 7.86818 6.44734 7.9277C6.41614 7.93114 6.38457 7.93463 6.35259 7.93818L6.02642 7.97442C4.90746 8.09875 4.11976 8.18702 3.54647 8.30362C2.9564 8.42364 2.75017 8.54719 2.66791 8.63112C2.3969 8.90762 2.26931 9.2941 2.32244 9.67761C2.33856 9.79402 2.4307 10.0161 2.83334 10.4638C3.22453 10.8988 3.80486 11.4387 4.62987 12.2048L4.97422 12.5245C5.00265 12.5509 5.03075 12.577 5.05849 12.6027C5.53166 13.0413 5.90303 13.3855 6.12526 13.8183C6.32043 14.1983 6.42438 14.6185 6.42887 15.0457C6.43398 15.5322 6.26425 16.0146 6.04758 16.6304C6.03478 16.6668 6.02181 16.7036 6.00871 16.7409C5.58867 17.9381 5.29093 18.7887 5.12733 19.4276C4.95661 20.0943 4.98374 20.3548 5.02515 20.4603C5.17239 20.8353 5.49137 21.1164 5.88195 21.2152C5.99351 21.2435 6.25272 21.238 6.88179 20.9899C7.48608 20.7515 8.27947 20.3556 9.39758 19.7965L10.2335 19.3786C10.2599 19.3654 10.286 19.3523 10.3118 19.3394C10.7598 19.115 11.1122 18.9385 11.4929 18.8671C11.8281 18.8042 12.172 18.8042 12.5071 18.8671C12.8878 18.9385 13.2402 19.115 13.6882 19.3394C13.714 19.3523 13.7401 19.3654 13.7665 19.3786L14.6024 19.7965C15.7205 20.3556 16.5139 20.7515 17.1182 20.9898C17.7473 21.238 18.0065 21.2435 18.118 21.2152C18.5086 21.1164 18.8276 20.8353 18.9748 20.4602C19.0163 20.3548 19.0434 20.0943 18.8727 19.4276C18.7091 18.7887 18.4113 17.9381 17.9913 16.7409C17.9782 16.7036 17.9652 16.6668 17.9524 16.6304C17.7357 16.0146 17.566 15.5322 17.5711 15.0457C17.5756 14.6185 17.6796 14.1983 17.8747 13.8183C18.097 13.3855 18.4683 13.0413 18.9415 12.6027C18.9693 12.577 18.9974 12.5509 19.0258 12.5245L19.3701 12.2048C20.1951 11.4387 20.7755 10.8988 21.1667 10.4638C21.5693 10.0161 21.6614 9.79402 21.6776 9.67761C21.7307 9.2941 21.6031 8.90762 21.3321 8.63112C21.2498 8.54719 21.0436 8.42364 20.4535 8.30362C19.8802 8.18702 19.0925 8.09875 17.9736 7.97442L17.6474 7.93818C17.6154 7.93463 17.5839 7.93114 17.5527 7.9277C17.0133 7.86818 16.5893 7.82139 16.2071 7.65542C15.8708 7.50943 15.5671 7.29767 15.3139 7.03261C15.026 6.73129 14.8355 6.34962 14.5932 5.86412C14.5792 5.83604 14.565 5.80761 14.5506 5.77883L14.1913 5.06027C13.7241 4.12568 13.3962 3.47165 13.1103 3.01013C12.8184 2.53888 12.6426 2.39399 12.5357 2.34324Z" fill="#0169BA"/>
</svg>







