<svg width="25" height="24" viewBox="0 0 25 24" fill="none" xmlns="http://www.w3.org/2000/svg">
<path opacity="0.12" fill-rule="evenodd" clip-rule="evenodd" d="M16.1 6H2.5V15.6C2.5 17.8402 2.5 18.9603 2.93597 19.816C3.31947 20.5686 3.93139 21.1805 4.68404 21.564C5.53969 22 6.65979 22 8.9 22H16.1C18.3402 22 19.4603 22 20.316 21.564C21.0686 21.1805 21.6805 20.5686 22.064 19.816C22.3979 19.1606 22.4761 18.3501 22.4944 17H21.5C19.8431 17 18.5 15.6569 18.5 14C18.5 12.3431 19.8431 11 21.5 11H22.4944C22.4761 9.6499 22.3979 8.8394 22.064 8.18404C21.6805 7.43139 21.0686 6.81947 20.316 6.43597C19.4603 6 18.3402 6 16.1 6Z" fill="#0169BA"/>
<path fill-rule="evenodd" clip-rule="evenodd" d="M13.3925 2.87498C12.9787 2.75681 12.5168 2.75003 11.3 2.75003H4.5C3.80964 2.75003 3.25 3.30967 3.25 4.00003C3.25 4.69039 3.80964 5.25003 4.5 5.25003L12.5 5.25003L16 5.25003L15.82 5.01003C15.0899 4.03659 14.8073 3.67112 14.4645 3.411C14.1435 3.16741 13.78 2.98564 13.3925 2.87498ZM4.5 1.25003C2.98122 1.25003 1.75 2.48125 1.75 4.00003V6.00003V15.6V15.633C1.74999 16.7252 1.74999 17.5907 1.80699 18.2883C1.86527 19.0017 1.98688 19.6053 2.26772 20.1565C2.72312 21.0503 3.44978 21.7769 4.34355 22.2323C4.89472 22.5131 5.49834 22.6348 6.21173 22.693C6.90935 22.75 7.77485 22.75 8.86698 22.75H8.9H16.1H16.133C17.2252 22.75 18.0906 22.75 18.7883 22.693C19.5017 22.6348 20.1053 22.5131 20.6565 22.2323C21.5502 21.7769 22.2769 21.0503 22.7323 20.1565C23.0131 19.6053 23.1347 19.0017 23.193 18.2883C23.25 17.5907 23.25 16.7252 23.25 15.6331V15.6V12.4V12.367C23.25 11.2749 23.25 10.4094 23.193 9.71176C23.1347 8.99837 23.0131 8.39475 22.7323 7.84358C22.2769 6.94981 21.5502 6.22315 20.6565 5.76775C20.1053 5.48691 19.5017 5.3653 18.7883 5.30702C18.5141 5.28462 18.2141 5.27103 17.8846 5.26277L17.02 4.11003L16.9521 4.0195L16.9521 4.01949C16.3134 3.16757 15.9021 2.61886 15.3713 2.21607C14.9021 1.86004 14.3708 1.59439 13.8044 1.43265C13.1637 1.24966 12.4779 1.2498 11.4131 1.25001L11.3 1.25003H4.5ZM12.5 6.75003H16.1C17.2325 6.75003 18.0367 6.75061 18.6661 6.80204C19.2867 6.85274 19.671 6.94912 19.9755 7.10426C20.587 7.41585 21.0842 7.91303 21.3958 8.52456C21.5509 8.82903 21.6473 9.21328 21.698 9.83391C21.7087 9.96462 21.7172 10.1029 21.7239 10.25H21.5C19.4289 10.25 17.75 11.929 17.75 14C17.75 16.0711 19.4289 17.75 21.5 17.75H21.7239C21.7172 17.8972 21.7087 18.0354 21.698 18.1661C21.6473 18.7868 21.5509 19.171 21.3958 19.4755C21.0842 20.087 20.587 20.5842 19.9755 20.8958C19.671 21.0509 19.2867 21.1473 18.6661 21.198C18.0367 21.2494 17.2325 21.25 16.1 21.25H8.9C7.76752 21.25 6.96327 21.2494 6.33388 21.198C5.71325 21.1473 5.329 21.0509 5.02453 20.8958C4.413 20.5842 3.91582 20.087 3.60423 19.4755C3.44909 19.171 3.35271 18.7868 3.30201 18.1661C3.25058 17.5368 3.25 16.7325 3.25 15.6V6.75003L4.5 6.75003L12.5 6.75003ZM21.7495 16.25C21.75 16.046 21.75 15.8298 21.75 15.6V12.4C21.75 12.1703 21.75 11.954 21.7495 11.75H21.5C20.2574 11.75 19.25 12.7574 19.25 14C19.25 15.2427 20.2574 16.25 21.5 16.25H21.7495Z" fill="#0169BA"/>
</svg>







