<svg width="25" height="24" viewBox="0 0 25 24" fill="none" xmlns="http://www.w3.org/2000/svg">
<path fill-rule="evenodd" clip-rule="evenodd" d="M9.38141 3.79583C5.11111 3.73557 1.56274 6.67467 1.56274 10.141C1.56274 12.1419 2.5675 13.8777 4.51243 15.1522C4.51243 15.1522 3.79961 17.3555 3.80975 17.3997C3.81989 17.4439 3.97502 17.5308 4.02902 17.5024C4.08301 17.474 6.60577 16.0649 6.60577 16.0649C8.41373 16.6462 9.51661 16.5031 9.70485 16.4787C9.71792 16.477 9.72657 16.4759 9.73076 16.4756C9.5378 15.9465 9.41137 15.1225 9.55534 14.3459C10.3091 10.2815 14.7519 9.01721 17.1869 9.2332C16.5145 6.29794 13.5938 3.85524 9.38141 3.79583ZM6.41328 7.13183C5.8531 7.13183 5.39907 7.55721 5.39907 8.08199C5.39907 8.60677 5.8531 9.03215 6.41328 9.03215C6.97347 9.03215 7.4276 8.60677 7.4276 8.08199C7.4276 7.55721 6.97347 7.13183 6.41328 7.13183ZM12.5536 7.13183C11.9935 7.13183 11.5393 7.55721 11.5393 8.08199C11.5393 8.60677 11.9935 9.03215 12.5536 9.03215C13.1137 9.03215 13.5679 8.60677 13.5679 8.08199C13.5679 7.55721 13.1139 7.13183 12.5536 7.13183Z" fill="white"/>
<path fill-rule="evenodd" clip-rule="evenodd" d="M23.4377 14.9643C23.4377 11.9947 20.3716 9.72012 16.8146 9.72012C13.0484 9.72012 10.0445 12.0461 10.0445 15.0155C10.0445 17.9904 12.9016 20.4531 16.819 20.4733C17.6074 20.4774 18.7818 20.2876 19.5736 19.9777C19.5736 19.9777 21.4666 21.0528 21.5727 21.0449C21.6786 21.0369 21.7329 20.9583 21.7371 20.8909C21.7414 20.8234 21.134 19.1454 21.134 19.1454C22.7594 17.9531 23.4377 16.6394 23.4377 14.9643ZM14.3357 12.184C13.8401 12.184 13.4384 12.561 13.4384 13.0262C13.4384 13.4911 13.8401 13.8682 14.3357 13.8682C14.8313 13.8682 15.2331 13.4912 15.2331 13.0262C15.2331 12.561 14.8313 12.184 14.3357 12.184ZM19.1341 12.184C18.6385 12.184 18.2367 12.561 18.2367 13.0262C18.2367 13.4911 18.6385 13.8682 19.1341 13.8682C19.6298 13.8682 20.0315 13.4912 20.0315 13.0262C20.0315 12.561 19.6298 12.184 19.1341 12.184Z" fill="white"/>
</svg>
